<?xml version="1.0" encoding="UTF-8" standalone="no"?>
<!-- Created with Inkscape (http://www.inkscape.org/) -->

<svg
   width="17.305578mm"
   height="11.769925mm"
   viewBox="0 0 17.305578 11.769925"
   version="1.1"
   id="svg8"
   inkscape:version="1.2.1 (9c6d41e4, 2022-07-14)"
   sodipodi:docname="logo_GEVO.svg"
   xmlns:inkscape="http://www.inkscape.org/namespaces/inkscape"
   xmlns:sodipodi="http://sodipodi.sourceforge.net/DTD/sodipodi-0.dtd"
   xmlns="http://www.w3.org/2000/svg"
   xmlns:svg="http://www.w3.org/2000/svg"
   xmlns:rdf="http://www.w3.org/1999/02/22-rdf-syntax-ns#"
   xmlns:cc="http://creativecommons.org/ns#"
   xmlns:dc="http://purl.org/dc/elements/1.1/">
  <defs
     id="defs2" />
  <sodipodi:namedview
     id="base"
     pagecolor="#ffffff"
     bordercolor="#666666"
     borderopacity="1.0"
     inkscape:pageopacity="0.0"
     inkscape:pageshadow="2"
     inkscape:zoom="3.959798"
     inkscape:cx="49.750013"
     inkscape:cy="22.475894"
     inkscape:document-units="mm"
     inkscape:current-layer="layer1"
     showgrid="false"
     inkscape:window-width="1440"
     inkscape:window-height="456"
     inkscape:window-x="0"
     inkscape:window-y="25"
     inkscape:window-maximized="0"
     showguides="true"
     inkscape:guide-bbox="true"
     fit-margin-top="0"
     fit-margin-left="0"
     fit-margin-right="0"
     fit-margin-bottom="0"
     inkscape:showpageshadow="0"
     inkscape:pagecheckerboard="0"
     inkscape:deskcolor="#d1d1d1" />
  <metadata
     id="metadata5">
    <rdf:RDF>
      <cc:Work
         rdf:about="">
        <dc:format>image/svg+xml</dc:format>
        <dc:type
           rdf:resource="http://purl.org/dc/dcmitype/StillImage" />
        <dc:title />
      </cc:Work>
    </rdf:RDF>
  </metadata>
  <g
     inkscape:label="Vrstva 1"
     inkscape:groupmode="layer"
     id="layer1"
     transform="translate(-2.7048321,-285.10642)">
    <g
       id="g6616"
       style="fill:#000000;fill-opacity:1">
      <path
         sodipodi:nodetypes="ccc"
         inkscape:connector-curvature="0"
         id="path4602"
         d="m 8.809,291.16658 1.186008,0.0167 C 10.255555,289.72677 8.90554,290.04543 8.809,291.16658 Z"
         style="fill:#000000;fill-opacity:1;stroke:none;stroke-width:0.05;stroke-linecap:butt;stroke-linejoin:miter;stroke-miterlimit:4;stroke-dasharray:none;stroke-opacity:1" />
      <path
         sodipodi:nodetypes="ccc"
         inkscape:connector-curvature="0"
         id="path4604"
         d="m 19.37128,290.14918 c -1.1032,0.19732 -1.508128,2.3597 -0.472472,2.57496 1.225547,0.11922 1.459494,-2.62319 0.472472,-2.57496 z"
         style="fill:#000000;fill-opacity:1;stroke:none;stroke-width:0.05;stroke-linecap:butt;stroke-linejoin:miter;stroke-miterlimit:4;stroke-dasharray:none;stroke-opacity:1" />
      <path
         sodipodi:nodetypes="ccccccccccccccccccccccccccccccccc"
         inkscape:connector-curvature="0"
         id="path4596-0"
         d="m 4.3259669,287.32126 c 1.6803773,-1.8155 4.1927262,-2.3675 6.7177011,-2.14233 l -0.948539,3.81677 c -2.84568,-0.004 -3.4988538,2.63029 -2.712781,4.15364 1.0276075,1.28445 2.4140497,0.88705 3.638021,0.33073 0.216365,-0.37246 0.04855,-0.93706 -0.224425,-1.08668 -1.2370358,0.54649 -2.1277649,0.62379 -2.090679,-0.46066 h 2.84663 c 0.226102,-1.50704 0.241505,-2.85775 -1.456766,-2.93703 l 0.948539,-3.81677 0.905748,4.04994 1.186009,4.54356 c 0.488257,0.19226 1.002299,0.21691 1.553504,0 l 2.440553,-4.52365 c -0.577972,-0.28186 -1.123769,-0.29023 -1.638745,-0.0366 l -1.353052,2.73952 -0.551242,-2.73953 c -0.668996,-0.30273 -1.152366,-0.1414 -1.637027,0.0167 l -0.905748,-4.04992 c 1.705476,0.11105 5.963608,1.03516 8.162247,3.81268 -2.365999,-0.005 -3.738637,4.2606 -0.992187,4.93731 -1.997315,1.76884 -4.816657,2.54742 -6.316017,2.77991 -3.4812071,0.53979 -6.6919682,-0.47202 -8.1415731,-2.70889 1.1309811,0.0341 1.974999,-0.31436 2.634021,-0.90951 l 0.3661641,-2.78411 -2.7236231,-0.007 c -0.31769,0.32695 -0.406742,0.78944 -0.182067,1.25551 l 1.213149,-0.0202 -0.1028419,1.02417 c -3.4483341,1.20039 -2.2652111,-5.4107 0.924182,-3.65185 0.367747,-0.20523 0.6856338,-0.5338 0.7746839,-1.17831 -0.9592998,-0.45819 -1.652304,-0.44297 -2.333839,-0.40736 z"
         style="fill:#000000;fill-opacity:1;stroke:none;stroke-width:0.05;stroke-linecap:butt;stroke-linejoin:miter;stroke-miterlimit:4;stroke-dasharray:none;stroke-opacity:1" />
    </g>
  </g>
</svg>
