<svg version="1.1" id="Layer_1" xmlns="http://www.w3.org/2000/svg" x="0" y="0" viewBox="0 0 130.72 109.21" xml:space="preserve"><style>.st2{enable-background:new}.st3{fill:#1d1d1b}</style><g id="Layer_2_1_"><path d="M109.71 34.66c-7.15-15.86-40.1-17.91-65.54-6.44C18.72 39.69 10.41 60.34 17.55 76.2s28.12 23.3 53.57 11.83c25.45-11.46 45.74-37.51 38.59-53.37" fill="#e9f403"/><path fill="none" d="M19.12 46.56h87.61v38.26H19.12z"/><g class="st2"><path class="st3" d="M26.61 49.99h1.33v2.56c-.34.25-.74.45-1.19.59-.45.14-.9.21-1.36.21-.65 0-1.24-.14-1.76-.42s-.93-.67-1.23-1.16-.45-1.05-.45-1.68.15-1.18.45-1.68c.3-.5.71-.88 1.24-1.16.53-.28 1.12-.42 1.78-.42.55 0 1.05.09 1.5.28.45.19.83.46 1.13.81l-.94.86c-.45-.47-.99-.71-1.63-.71-.4 0-.76.08-1.07.25s-.56.41-.73.71-.26.66-.26 1.05.09.74.26 1.04c.17.31.42.54.72.72s.66.26 1.06.26c.42 0 .8-.09 1.13-.27v-1.84zm7.56 2.08v1.17h-4.88v-6.3h4.76v1.17h-3.31v1.37h2.93v1.13h-2.93v1.46h3.43zm7.13-5.13l-2.73 6.3h-1.44l-2.72-6.3h1.58l1.92 4.5 1.94-4.5h1.45zm1.73 5.98c-.52-.28-.94-.67-1.23-1.17s-.45-1.05-.45-1.67c0-.62.15-1.17.45-1.67s.71-.88 1.23-1.17c.53-.28 1.11-.42 1.77-.42.65 0 1.24.14 1.76.42a3.167 3.167 0 011.68 2.84c0 .62-.15 1.17-.45 1.67s-.71.88-1.23 1.17c-.52.28-1.11.42-1.76.42-.66.01-1.25-.14-1.77-.42zm2.77-1.07c.3-.17.54-.41.71-.72.17-.31.26-.65.26-1.04s-.09-.74-.26-1.04c-.17-.31-.41-.54-.71-.71-.3-.17-.64-.26-1.01-.26s-.71.09-1.01.26c-.3.17-.54.41-.71.71-.17.31-.26.65-.26 1.04s.09.74.26 1.04c.17.31.41.54.71.72.3.17.64.26 1.01.26s.71-.09 1.01-.26zm6.07 1.26c-.36-.16-.65-.38-.88-.68l.81-.97c.34.46.73.69 1.17.69.59 0 .89-.35.89-1.04v-3h-2.21v-1.17h3.66v4.09c0 .77-.19 1.35-.58 1.74-.38.39-.95.58-1.69.58-.42 0-.81-.08-1.17-.24zm4.86-5.62c-.16-.15-.24-.34-.24-.56s.08-.41.24-.56c.16-.15.37-.22.63-.22s.47.07.63.22c.16.14.24.32.24.54 0 .23-.08.43-.24.58-.16.15-.37.23-.63.23s-.47-.07-.63-.23zm-.07.91h1.4v4.84h-1.4V48.4zm6.69 3.76v1.08h-4.32v-.85l2.47-2.92h-2.4V48.4h4.18v.85l-2.47 2.92h2.54zM63 46.48l-1.19 1.3h-1.24l-1.19-1.3h1.03l.78.67.78-.67H63zm5.65 2.38c.37.36.55.89.55 1.6v2.77h-1.4v-2.56c0-.38-.08-.67-.25-.86-.17-.19-.41-.28-.73-.28-.35 0-.63.11-.85.33-.21.22-.32.54-.32.98v2.39h-1.4V48.4h1.34v.57c.19-.2.42-.36.69-.47.28-.11.58-.17.91-.17.61-.01 1.09.17 1.46.53zm2.92-2.38h1.51l-1.63 1.3h-1.1l1.22-1.3zm-1.1 1.92h1.4v4.84h-1.4V48.4zm11.09 4.84l-.01-3.78-1.85 3.11h-.66l-1.84-3.03v3.7h-1.37v-6.3h1.21l2.36 3.92 2.32-3.92h1.2l.02 6.3h-1.38zm7.48-2.03h-3.66c.07.3.22.54.47.71.25.17.55.26.92.26.25 0 .48-.04.67-.11.2-.08.38-.19.54-.36l.75.81c-.46.52-1.12.78-2 .78-.55 0-1.03-.11-1.45-.32s-.74-.51-.97-.89-.34-.81-.34-1.29a2.41 2.41 0 011.27-2.17c.39-.21.83-.32 1.32-.32.47 0 .9.1 1.29.31.38.2.69.5.9.88s.33.82.33 1.33c-.01.02-.02.15-.04.38zm-.71-4.73l-1.19 1.3H85.9l-1.19-1.3h1.03l.78.67.78-.67h1.03zm-2.58 3.17c-.22.18-.35.43-.4.74h2.38c-.05-.31-.18-.55-.4-.73-.22-.18-.48-.27-.79-.27-.3 0-.57.09-.79.26zm4.7 3.51c-.38-.1-.69-.22-.92-.37l.47-1.01c.22.14.48.25.78.34.31.09.61.13.9.13.59 0 .89-.15.89-.44 0-.14-.08-.24-.24-.3-.16-.06-.41-.11-.75-.15-.4-.06-.72-.13-.98-.21s-.48-.22-.67-.41c-.19-.2-.28-.48-.28-.85 0-.31.09-.58.27-.81.18-.24.43-.42.77-.55.34-.13.74-.2 1.2-.2.34 0 .68.04 1.02.11.34.08.62.18.84.31l-.47 1c-.43-.24-.89-.36-1.39-.36-.3 0-.53.04-.68.13-.15.08-.22.19-.22.32 0 .15.08.26.24.32.16.06.42.12.77.17.4.07.72.14.97.21.25.07.47.21.66.41s.28.47.28.83c0 .3-.09.57-.27.8s-.44.42-.79.54c-.34.13-.75.19-1.23.19-.39 0-.78-.05-1.17-.15zM97.9 53c-.14.1-.31.18-.51.23-.2.05-.41.08-.63.08-.58 0-1.02-.15-1.34-.44-.32-.29-.47-.73-.47-1.3v-1.99h-.75V48.5h.75v-1.18h1.4v1.18h1.21v1.08h-1.21v1.97c0 .2.05.36.16.47.11.11.25.17.45.17.22 0 .41-.06.57-.18l.37.99zm1.57-.01c-.4-.21-.72-.51-.95-.89s-.34-.81-.34-1.29.11-.91.34-1.29.54-.67.95-.89c.41-.21.86-.32 1.37-.32s.97.11 1.37.32c.4.21.72.51.95.89.23.38.34.81.34 1.29s-.11.91-.34 1.29a2.4 2.4 0 01-.95.89c-.4.21-.86.32-1.37.32s-.96-.11-1.37-.32zm2.26-1.2c.23-.24.35-.57.35-.98s-.12-.73-.35-.98c-.23-.24-.53-.36-.89-.36s-.66.12-.89.36c-.23.24-.35.57-.35.98s.12.73.35.98c.23.24.53.36.89.36.37.01.66-.11.89-.36z"/></g><g class="st2"><path class="st3" d="M38.64 63.4h-1.4v1.84h-.72V63.4h-3.95v-.52l3.71-4.64h.8l-3.58 4.52h3.04v-1.62h.7v1.62h1.4v.64zm1.13-5.58h.71v7.42h-.71v-7.42zm7.27 5.01h-4.4c.04.55.25.99.63 1.33.38.34.86.5 1.44.5.33 0 .63-.06.9-.17.27-.12.51-.29.71-.51l.4.46c-.23.28-.52.49-.88.64s-.73.22-1.15.22c-.54 0-1.02-.12-1.44-.34-.42-.23-.74-.55-.98-.96-.23-.41-.35-.87-.35-1.38s.11-.97.33-1.38c.22-.41.53-.72.92-.95.39-.23.83-.34 1.31-.34.49 0 .92.11 1.31.34s.69.54.91.95.33.86.33 1.38l.01.21zm-3.81-1.8c-.34.32-.54.75-.58 1.26h3.73c-.05-.52-.24-.94-.58-1.26s-.77-.49-1.29-.49c-.51.01-.94.17-1.28.49zm8.04 3.89c-.13.12-.3.21-.49.28-.2.06-.4.09-.62.09-.49 0-.87-.13-1.14-.4s-.4-.64-.4-1.13v-3.18h-.94v-.6h.94v-1.15h.71v1.15h1.6v.6h-1.6v3.14c0 .31.08.55.24.71.16.16.38.25.67.25.15 0 .29-.02.42-.07s.26-.11.35-.2l.26.51zm5.68-2.09h-4.4c.04.55.25.99.63 1.33.38.34.86.5 1.44.5.33 0 .63-.06.9-.17.27-.12.51-.29.71-.51l.4.46c-.23.28-.52.49-.88.64s-.73.22-1.15.22c-.54 0-1.02-.12-1.44-.34-.42-.23-.74-.55-.98-.96-.23-.41-.35-.87-.35-1.38s.11-.97.33-1.38c.22-.41.53-.72.92-.95.39-.23.83-.34 1.31-.34.49 0 .92.11 1.31.34s.69.54.91.95.33.86.33 1.38l.01.21zm-3.81-1.8c-.34.32-.54.75-.58 1.26h3.73c-.05-.52-.24-.94-.58-1.26s-.77-.49-1.29-.49c-.51.01-.94.17-1.28.49zm1.99-3.11h.95l-1.62 1.24h-.7l1.37-1.24zm9.32 2.53c.37.35.55.85.55 1.53v3.26h-.68v-.82c-.16.27-.4.49-.7.64-.31.15-.68.23-1.1.23-.59 0-1.05-.14-1.4-.42s-.52-.65-.52-1.11c0-.45.16-.81.49-1.08.32-.27.84-.41 1.54-.41h1.67v-.32c0-.45-.13-.8-.38-1.04s-.62-.35-1.11-.35c-.33 0-.65.05-.96.17-.31.11-.57.26-.79.46l-.32-.53c.27-.23.59-.4.96-.53.37-.12.77-.18 1.18-.18.68-.01 1.21.16 1.57.5zm-.8 4c.29-.18.5-.45.64-.79v-.86h-1.65c-.9 0-1.35.31-1.35.94 0 .31.12.55.35.72.23.18.56.27.98.27.4 0 .75-.09 1.03-.28zm9.56-3.14c.36.17.63.42.83.73.2.32.3.69.3 1.11 0 .43-.1.8-.31 1.13-.21.33-.49.58-.85.75-.36.18-.77.26-1.23.26-.93 0-1.64-.3-2.13-.92-.49-.61-.74-1.47-.74-2.58 0-.78.13-1.44.4-1.98s.64-.95 1.12-1.22c.48-.28 1.04-.42 1.68-.42.69 0 1.25.13 1.66.38l-.29.58c-.33-.22-.79-.33-1.36-.33-.77 0-1.38.25-1.82.73-.44.49-.66 1.2-.66 2.14 0 .17.01.36.03.57.17-.38.45-.67.83-.88.38-.21.82-.32 1.31-.32.46.01.87.09 1.23.27zm-.05 2.96c.32-.28.47-.65.47-1.11s-.16-.83-.47-1.1-.75-.41-1.29-.41c-.35 0-.67.07-.93.2-.27.13-.48.32-.63.55a1.4 1.4 0 00-.23.78c0 .27.07.51.21.74.14.23.36.41.63.55.28.14.61.21 1 .21.51.01.92-.13 1.24-.41zm2.48-6.45h.71v7.42h-.71v-7.42zm7.27 5.01h-4.4c.04.55.25.99.63 1.33.38.34.86.5 1.44.5.33 0 .63-.06.9-.17.27-.12.51-.29.71-.51l.4.46c-.23.28-.52.49-.88.64-.35.15-.73.22-1.15.22-.54 0-1.02-.12-1.44-.34-.42-.23-.74-.55-.97-.96-.23-.41-.35-.87-.35-1.38s.11-.97.33-1.38c.22-.41.53-.72.92-.95.39-.23.83-.34 1.32-.34s.92.11 1.31.34.69.54.91.95c.22.4.33.86.33 1.38l-.01.21zm-3.81-1.8c-.34.32-.54.75-.58 1.26h3.73c-.05-.52-.24-.94-.58-1.26-.34-.32-.77-.49-1.29-.49-.51.01-.94.17-1.28.49zm8.04 3.89c-.13.12-.3.21-.49.28-.2.06-.4.09-.62.09-.49 0-.87-.13-1.14-.4s-.4-.64-.4-1.13v-3.18h-.94v-.6h.94v-1.15h.71v1.15h1.6v.6h-1.6v3.14c0 .31.08.55.24.71.16.16.38.25.67.25.15 0 .29-.02.42-.07s.25-.11.35-.2l.26.51zm5.68-2.09h-4.4c.04.55.25.99.63 1.33.38.34.86.5 1.44.5.33 0 .63-.06.9-.17s.51-.29.71-.51l.4.46c-.23.28-.53.49-.88.64-.35.15-.74.22-1.16.22-.54 0-1.02-.12-1.43-.34-.42-.23-.74-.55-.98-.96-.23-.41-.35-.87-.35-1.38s.11-.97.33-1.38c.22-.41.53-.72.92-.95s.83-.34 1.31-.34c.49 0 .92.11 1.31.34s.69.54.91.95c.22.4.33.86.33 1.38l.01.21zm-3.81-1.8c-.34.32-.54.75-.58 1.26h3.73c-.05-.52-.24-.94-.58-1.26-.34-.32-.77-.49-1.29-.49-.51.01-.94.17-1.28.49zM91 57.92h.95l-1.62 1.24h-.7L91 57.92z"/></g><g class="st2"><path class="st3" d="M42.85 77.1a2.82 2.82 0 01-.92-.46l.32-.56c.22.17.5.32.83.42.33.11.68.17 1.04.17.48 0 .83-.07 1.06-.22s.34-.36.34-.63c0-.19-.06-.35-.19-.46-.13-.11-.29-.19-.48-.25s-.45-.11-.77-.17c-.43-.08-.77-.16-1.03-.25-.26-.08-.48-.22-.67-.42-.18-.2-.27-.48-.27-.83 0-.44.18-.8.55-1.08s.88-.42 1.53-.42c.34 0 .68.04 1.02.13.34.09.62.21.84.36l-.3.57c-.43-.3-.95-.45-1.55-.45-.45 0-.79.08-1.02.24s-.34.37-.34.63c0 .2.06.36.19.48s.29.21.48.26.46.12.8.17c.42.08.76.16 1.01.24s.47.22.65.41c.18.19.27.46.27.8 0 .46-.19.83-.57 1.09-.38.27-.92.41-1.6.41-.42.01-.83-.05-1.22-.18zm7.47-.18c-.13.12-.3.21-.49.28-.2.06-.4.09-.62.09-.49 0-.87-.13-1.14-.4s-.4-.64-.4-1.13v-3.18h-.94v-.6h.94v-1.15h.71v1.15h1.6v.6h-1.6v3.14c0 .31.08.55.24.71.16.16.38.25.67.25.15 0 .29-.02.42-.07s.26-.11.35-.2l.26.51zm6.03-4.94v5.26h-.68v-.96c-.19.32-.44.57-.77.75s-.7.26-1.12.26c-.69 0-1.23-.19-1.62-.58-.4-.38-.6-.94-.6-1.68v-3.05h.71v2.98c0 .55.14.97.41 1.26.27.29.66.43 1.17.43.55 0 .99-.17 1.31-.5s.48-.81.48-1.41v-2.76h.71zm6.79-2.16v7.42h-.68V76.2c-.21.35-.49.62-.84.81-.35.19-.75.28-1.19.28-.49 0-.94-.11-1.34-.34-.4-.23-.71-.54-.94-.95-.23-.41-.34-.87-.34-1.39 0-.52.11-.98.34-1.39.23-.41.54-.72.94-.95.4-.22.85-.33 1.34-.33.43 0 .81.09 1.15.26s.62.44.85.78v-3.16h.71zm-1.65 6.58c.3-.17.53-.41.7-.72s.25-.67.25-1.07-.08-.76-.25-1.07-.4-.55-.7-.72c-.3-.17-.63-.25-.99-.25-.37 0-.71.08-1.01.25-.3.17-.53.41-.7.72s-.25.67-.25 1.07.08.76.25 1.07.4.55.7.72c.3.17.63.25 1.01.25.36.01.69-.08.99-.25zm3.62-5.72a.491.491 0 010-.71c.1-.1.22-.15.37-.15s.27.05.37.14c.1.1.15.21.15.35 0 .15-.05.27-.15.37-.1.1-.22.15-.37.15-.14 0-.27-.05-.37-.15zm.01 1.3h.71v5.26h-.71v-5.26zm7.43 0v5.26h-.68v-.96c-.19.32-.44.57-.77.75-.33.18-.7.26-1.12.26-.69 0-1.23-.19-1.62-.58-.4-.38-.59-.94-.59-1.68v-3.05h.71v2.98c0 .55.14.97.41 1.26.27.29.66.43 1.17.43.55 0 .99-.17 1.31-.5.32-.34.48-.81.48-1.41v-2.76h.7zm10.11.53c.38.38.56.94.56 1.68v3.05h-.71v-2.98c0-.55-.13-.96-.39-1.25-.26-.29-.63-.43-1.12-.43-.55 0-.98.17-1.29.5-.31.34-.47.8-.47 1.4v2.76h-.71v-2.98c0-.55-.13-.96-.4-1.25-.26-.29-.64-.43-1.12-.43-.54 0-.97.17-1.29.5-.32.34-.47.8-.47 1.4v2.76h-.71v-5.26h.68v.96c.19-.32.45-.57.78-.74.33-.17.72-.26 1.15-.26.44 0 .82.09 1.14.28.32.19.57.46.73.83.19-.35.47-.62.83-.81.36-.2.78-.29 1.24-.29.67-.01 1.19.18 1.57.56z"/></g></g></svg>