<svg version="1.1" id="Layer_1" xmlns="http://www.w3.org/2000/svg" x="0" y="0" viewBox="0 0 130.72 109.21" xml:space="preserve"><style>.st2{enable-background:new}.st3{fill:#fff}</style><g id="Layer_2_1_"><path d="M10.87 66.8C7.64 49.71 33.47 29.15 60.9 23.98c27.43-5.18 46.07 6.99 49.3 24.08 3.23 17.09-9.7 35.21-37.13 40.39-27.43 5.17-58.98-4.55-62.2-21.65" fill="#e66da3"/><path fill="none" d="M19.35 46.56h87.61v38.26H19.35z"/><g class="st2"><path class="st3" d="M33.19 46.94h1.46v6.3h-1.46v-6.3zm7.25 1.92c.37.36.55.89.55 1.6v2.77h-1.4v-2.56c0-.38-.08-.67-.25-.86-.17-.19-.41-.28-.73-.28-.35 0-.64.11-.85.33-.21.22-.32.54-.32.98v2.39h-1.4V48.4h1.34v.57c.19-.2.42-.36.69-.47.28-.11.58-.17.91-.17.61-.01 1.09.17 1.46.53zM45.39 53c-.14.1-.31.18-.51.23-.2.05-.41.08-.63.08-.58 0-1.02-.15-1.34-.44s-.47-.73-.47-1.3v-1.99h-.75V48.5h.75v-1.18h1.4v1.18h1.21v1.08h-1.21v1.97c0 .2.05.36.16.47.1.11.25.17.45.17.22 0 .41-.06.57-.18l.37.99zm5.35-1.79h-3.66c.07.3.22.54.47.71.25.17.55.26.92.26.25 0 .48-.04.67-.11.2-.08.38-.19.54-.36l.75.81c-.46.52-1.12.78-2 .78-.55 0-1.03-.11-1.45-.32s-.74-.51-.97-.89-.34-.81-.34-1.29c0-.47.11-.9.34-1.28s.53-.68.93-.89c.39-.21.83-.32 1.32-.32.47 0 .9.1 1.29.31.38.2.69.5.9.88.22.38.33.82.33 1.33-.01.02-.02.15-.04.38zm-3.28-1.56c-.22.18-.35.43-.4.74h2.38c-.05-.31-.18-.55-.4-.73-.22-.18-.48-.27-.79-.27-.31 0-.58.09-.79.26zm6.27-1.15c.29-.12.61-.18.99-.18v1.3c-.16-.01-.26-.02-.31-.02-.4 0-.72.11-.94.34-.23.23-.34.56-.34 1.01v2.29h-1.4V48.4h1.34v.64c.15-.24.37-.42.66-.54zm6.22.36c.37.36.55.89.55 1.6v2.77h-1.4v-2.56c0-.38-.08-.67-.25-.86-.17-.19-.41-.28-.73-.28-.35 0-.64.11-.85.33-.21.22-.32.54-.32.98v2.39h-1.4V48.4h1.34v.57c.19-.2.42-.36.69-.47.28-.11.58-.17.91-.17.6-.01 1.09.17 1.46.53zm5.5 0c.4.36.6.9.6 1.62v2.76h-1.31v-.6c-.26.45-.76.67-1.48.67-.37 0-.69-.06-.97-.19s-.48-.3-.63-.52c-.14-.22-.22-.47-.22-.76 0-.45.17-.8.51-1.06s.86-.39 1.57-.39h1.12c0-.31-.09-.54-.28-.71s-.46-.25-.84-.25c-.26 0-.51.04-.76.12s-.46.19-.63.33l-.5-.98c.26-.19.58-.33.95-.43.37-.1.75-.15 1.14-.15.75 0 1.33.18 1.73.54zm-1.2 3.34c.19-.11.32-.28.4-.49v-.5h-.96c-.58 0-.86.19-.86.57 0 .18.07.32.21.43.14.1.33.16.58.16.23-.01.45-.06.63-.17zm6.19.8c-.14.1-.31.18-.51.23-.2.05-.41.08-.63.08-.58 0-1.02-.15-1.34-.44-.31-.29-.47-.73-.47-1.3v-1.99h-.75V48.5h.75v-1.18h1.4v1.18h1.21v1.08h-1.2v1.97c0 .2.05.36.16.47.11.11.25.17.45.17.22 0 .41-.06.57-.18l.36.99zm.87-5.51c-.16-.15-.24-.34-.24-.56s.08-.41.24-.56c.16-.15.37-.22.63-.22s.47.07.63.22c.16.14.24.32.24.54 0 .23-.08.43-.24.58-.16.15-.37.23-.63.23s-.47-.07-.63-.23zm-.07.91h1.4v4.84h-1.4V48.4zm3.64 4.59c-.41-.21-.72-.51-.95-.89-.23-.38-.34-.81-.34-1.29s.11-.91.34-1.29c.23-.38.54-.67.95-.89s.86-.32 1.37-.32c.51 0 .97.11 1.37.32.4.21.72.51.95.89.23.38.34.81.34 1.29s-.11.91-.34 1.29a2.4 2.4 0 01-.95.89c-.4.21-.86.32-1.37.32-.51 0-.97-.11-1.37-.32zm2.26-1.2c.23-.24.35-.57.35-.98s-.12-.73-.35-.98c-.23-.24-.53-.36-.89-.36s-.66.12-.89.36c-.23.24-.35.57-.35.98s.12.73.35.98c.23.24.53.36.89.36.36.01.66-.11.89-.36zm7.1-2.93c.37.36.55.89.55 1.6v2.77h-1.4v-2.56c0-.38-.08-.67-.25-.86-.17-.19-.41-.28-.73-.28-.35 0-.64.11-.85.33-.21.22-.32.54-.32.98v2.39h-1.4V48.4h1.34v.57c.19-.2.42-.36.69-.47.28-.11.58-.17.91-.17.6-.01 1.09.17 1.46.53zm5.5 0c.4.36.6.9.6 1.62v2.76h-1.31v-.6c-.26.45-.76.67-1.48.67-.37 0-.7-.06-.97-.19s-.48-.3-.63-.52c-.14-.22-.22-.47-.22-.76 0-.45.17-.8.51-1.06s.86-.39 1.57-.39h1.12c0-.31-.09-.54-.28-.71-.19-.17-.46-.25-.84-.25-.26 0-.51.04-.76.12s-.46.19-.63.33l-.5-.98c.26-.19.58-.33.95-.43.37-.1.75-.15 1.14-.15.75 0 1.33.18 1.73.54zm-1.2 3.34c.19-.11.32-.28.4-.49v-.5h-.96c-.58 0-.86.19-.86.57 0 .18.07.32.21.43.14.1.33.16.58.16.23-.01.45-.06.63-.17zm3.07-5.64h1.4v6.68h-1.4v-6.68z"/></g><g class="st2"><path class="st3" d="M48.31 61.33c.2.27.31.59.31.99 0 .55-.21.98-.64 1.27-.43.3-1.05.45-1.88.45h-3.26v-6.3h3.08c.77 0 1.36.15 1.77.44.41.29.62.69.62 1.2 0 .31-.07.58-.22.82s-.35.43-.62.57c.35.1.63.29.84.56zm-4.03-2.5v1.49h1.45c.36 0 .63-.06.82-.19s.28-.31.28-.56-.09-.43-.28-.55-.46-.18-.82-.18h-1.45zm2.57 3.92c.19-.13.29-.32.29-.58 0-.52-.39-.78-1.16-.78h-1.7v1.56h1.7c.39-.01.68-.07.87-.2zm6.45-3.09c.4.36.6.9.6 1.62v2.76h-1.31v-.6c-.26.45-.76.67-1.48.67-.37 0-.69-.06-.97-.19-.27-.13-.48-.3-.63-.52-.14-.22-.22-.47-.22-.76 0-.45.17-.8.51-1.06s.86-.39 1.57-.39h1.12c0-.31-.09-.54-.28-.71s-.46-.25-.84-.25c-.26 0-.51.04-.76.12s-.46.19-.63.33l-.5-.98c.26-.19.58-.33.95-.43.37-.1.75-.15 1.14-.15.75 0 1.33.18 1.73.54zM52.1 63c.19-.11.32-.28.4-.49v-.5h-.96c-.58 0-.86.19-.86.57 0 .18.07.32.21.43.14.1.33.16.58.16.23-.01.45-.06.63-.17zm4.08.79c-.41-.21-.73-.51-.96-.89s-.35-.81-.35-1.29.12-.91.35-1.29.55-.67.96-.89c.41-.21.87-.32 1.39-.32.51 0 .96.11 1.34.32.38.21.66.52.83.91l-1.09.58c-.25-.44-.61-.67-1.09-.67-.37 0-.67.12-.91.36s-.36.57-.36.98.12.74.36.98.54.36.91.36c.48 0 .84-.22 1.09-.67l1.09.59c-.17.38-.45.68-.83.9-.38.22-.83.32-1.34.32-.52.04-.98-.07-1.39-.28zm8.73-4.13c.37.36.55.89.55 1.6v2.77h-1.4v-2.56c0-.38-.08-.67-.25-.86-.17-.19-.41-.28-.73-.28-.35 0-.64.11-.85.33-.21.22-.32.54-.32.98v2.39h-1.4v-6.68h1.4v2.34c.19-.19.41-.33.68-.43.26-.1.55-.15.86-.15.6.01 1.09.19 1.46.55zm6.59 2.35h-3.66c.07.3.22.54.47.71.25.17.55.26.92.26.25 0 .48-.04.67-.11.2-.08.38-.19.54-.36l.75.81c-.46.52-1.12.78-2 .78-.55 0-1.03-.11-1.45-.32-.42-.21-.74-.51-.97-.89s-.34-.81-.34-1.29a2.41 2.41 0 011.27-2.17c.39-.21.83-.32 1.32-.32.47 0 .9.1 1.29.31.38.2.69.5.9.88s.33.82.33 1.33c-.01.02-.02.15-.04.38zm-3.29-1.56c-.22.18-.35.43-.4.74h2.38c-.05-.31-.18-.55-.4-.73-.22-.18-.48-.27-.79-.27-.3 0-.57.08-.79.26zm4.25-3.09h1.4v6.68h-1.4v-6.68zm3.64 6.43c-.4-.21-.72-.51-.95-.89s-.34-.81-.34-1.29.11-.91.34-1.29.54-.67.95-.89c.41-.21.86-.32 1.37-.32s.97.11 1.37.32c.4.21.72.51.95.89.23.38.34.81.34 1.29s-.11.91-.34 1.29a2.4 2.4 0 01-.95.89c-.4.21-.86.32-1.37.32s-.96-.11-1.37-.32zm2.26-1.2c.23-.24.35-.57.35-.98s-.12-.73-.35-.98c-.23-.24-.53-.36-.89-.36s-.66.12-.89.36c-.23.24-.35.57-.35.98s.12.73.35.98c.23.24.53.36.89.36.36.01.66-.11.89-.36zm4.73-3.29c.29-.12.61-.18.99-.18v1.3c-.16-.01-.26-.02-.32-.02-.4 0-.72.11-.94.34-.23.23-.34.56-.34 1.01v2.29h-1.4V59.2h1.34v.64c.15-.24.38-.42.67-.54z"/></g></g></svg>