<svg xmlns="http://www.w3.org/2000/svg" viewBox="0 0 422.29 142.27"><style>.st5{fill:#e66da3}.st6{fill:#fff}</style><g id="Layer_1"><path d="M383.97 46.81H95.05c-3.6 0-6.52-2.92-6.52-6.52V27.17c0-3.6 2.92-6.52 6.52-6.52h288.92c3.6 0 6.52 2.92 6.52 6.52v13.12c0 3.6-2.92 6.52-6.52 6.52z" fill="#158e9b"/><path d="M384.1 82.03H95.18c-3.6 0-6.52-2.92-6.52-6.52V62.39c0-3.6 2.92-6.52 6.52-6.52H384.1c3.6 0 6.52 2.92 6.52 6.52v13.12c.01 3.61-2.91 6.52-6.52 6.52zm-.13 35.23H95.05c-3.6 0-6.52-2.92-6.52-6.52V97.62c0-3.6 2.92-6.52 6.52-6.52h288.92c3.6 0 6.52 2.92 6.52 6.52v13.12c0 3.6-2.92 6.52-6.52 6.52z" fill="#ddd"/><path d="M384.16 82.03H166.47c-1.28 0-2.31-1.04-2.31-2.31V57.3c0-.79.64-1.43 1.43-1.43h218.58c3.6 0 6.52 2.92 6.52 6.52v13.12a6.53 6.53 0 01-6.53 6.52z" fill="#e9f403"/><path d="M384.16 117.26H241.84c-1.29 0-2.33-1.04-2.33-2.33V93.12c0-1.12.91-2.03 2.03-2.03h142.62c3.6 0 6.52 2.92 6.52 6.52v13.12c0 3.61-2.92 6.53-6.52 6.53z" fill="#d5ed26"/><path d="M126.17 16.73v114.69M163.83 18.6v114.69m37.74-117.5v114.7m37.65-112.83v114.7m38.32-112.83v114.7m37.65-112.82V136.1m37.74-117.5v114.69" fill="none" stroke="#fff" stroke-width=".25" stroke-miterlimit="10"/><path d="M26.57 37.1c-.49-.28-.87-.66-1.15-1.15-.28-.49-.42-1.04-.42-1.66 0-.62.14-1.17.42-1.66.28-.49.66-.87 1.15-1.14.49-.27 1.04-.41 1.64-.41s1.16.14 1.64.41c.49.27.87.65 1.15 1.14.28.49.41 1.04.41 1.66 0 .62-.14 1.17-.41 1.66s-.66.87-1.15 1.15c-.49.28-1.04.41-1.64.41s-1.16-.13-1.64-.41zm2.85-.65c.36-.2.63-.49.83-.87.2-.38.3-.8.3-1.28s-.1-.91-.3-1.28c-.2-.38-.48-.67-.83-.87-.36-.2-.76-.31-1.21-.31-.45 0-.85.1-1.21.31-.36.2-.64.49-.84.87-.2.38-.31.8-.31 1.28s.1.91.31 1.28c.2.38.48.67.84.87s.76.31 1.21.31c.45 0 .85-.1 1.21-.31zm3.96.84c-.47-.15-.83-.33-1.1-.56l.38-.67c.26.21.6.38 1 .51s.82.2 1.25.2c.58 0 1-.09 1.28-.27.28-.18.41-.43.41-.76 0-.23-.08-.41-.23-.55s-.34-.23-.58-.3c-.23-.07-.54-.13-.92-.2-.51-.1-.92-.19-1.24-.29-.31-.1-.58-.27-.8-.51-.22-.24-.33-.57-.33-1 0-.53.22-.96.66-1.3.44-.34 1.05-.5 1.84-.5.41 0 .82.05 1.22.16.41.11.74.25 1.01.43l-.37.68c-.52-.36-1.14-.54-1.86-.54-.54 0-.95.1-1.23.29-.28.19-.41.44-.41.76 0 .24.08.43.23.58.16.14.35.25.58.32.23.07.55.14.96.21.5.1.91.19 1.21.29.3.1.56.26.78.49.22.23.32.55.32.96 0 .55-.23.99-.69 1.31s-1.1.49-1.91.49c-.51 0-1-.08-1.46-.23zm15.38-5.51c.45.46.68 1.13.68 2.02v3.66h-.85v-3.58c0-.66-.16-1.16-.47-1.5s-.76-.52-1.34-.52c-.66 0-1.17.2-1.55.61-.38.4-.56.96-.56 1.67v3.31h-.85v-3.58c0-.66-.16-1.16-.47-1.5s-.77-.52-1.35-.52c-.65 0-1.16.2-1.54.61-.38.4-.57.96-.57 1.67v3.31h-.85v-6.31h.82v1.15c.22-.38.54-.68.94-.89s.86-.31 1.38-.31c.53 0 .99.11 1.37.34.39.22.68.56.87 1 .23-.42.57-.74 1-.98s.93-.35 1.49-.35c.78.01 1.4.23 1.85.69zm2.98-2.2a.582.582 0 01-.18-.43c0-.16.06-.3.18-.42s.27-.18.44-.18c.18 0 .32.06.44.17.12.12.18.25.18.41 0 .18-.06.32-.18.44s-.27.18-.44.18a.559.559 0 01-.44-.17zm.01 1.56h.85v6.31h-.85v-6.31zm3.23-2.59h.85v8.9h-.85v-8.9zm8.73 6.01h-5.28c.05.66.3 1.19.76 1.59s1.03.61 1.73.61c.39 0 .75-.07 1.08-.21.33-.14.61-.35.85-.62l.48.55c-.28.34-.63.59-1.05.77s-.88.26-1.39.26c-.65 0-1.22-.14-1.72-.41-.5-.28-.89-.66-1.17-1.15-.28-.49-.42-1.04-.42-1.66 0-.62.13-1.17.4-1.66s.64-.87 1.1-1.14a3.1 3.1 0 011.58-.41c.58 0 1.11.14 1.57.41.46.27.83.65 1.09 1.13.26.48.4 1.04.4 1.66l-.01.28zm-4.58-2.15c-.41.39-.65.89-.7 1.52h4.48c-.06-.62-.29-1.13-.7-1.52-.41-.39-.93-.58-1.54-.58-.62 0-1.13.19-1.54.58zm9.65 4.66c-.16.14-.36.25-.59.33-.24.08-.48.11-.74.11-.59 0-1.05-.16-1.37-.48-.32-.32-.48-.77-.48-1.36v-3.82h-1.13v-.72h1.13v-1.38h.85v1.38h1.92v.72h-1.92v3.77c0 .38.09.66.28.86s.46.29.81.29c.18 0 .35-.03.51-.08.16-.06.31-.14.43-.24l.3.62zm6.82-2.51h-5.28c.05.66.3 1.19.76 1.59s1.03.61 1.73.61c.39 0 .75-.07 1.08-.21.33-.14.61-.35.85-.62l.48.55c-.28.34-.63.59-1.05.77s-.88.26-1.39.26c-.65 0-1.22-.14-1.72-.41-.5-.28-.89-.66-1.17-1.15-.28-.49-.42-1.04-.42-1.66 0-.62.13-1.17.4-1.66s.64-.87 1.1-1.14a3.1 3.1 0 011.58-.41c.58 0 1.11.14 1.57.41.46.27.83.65 1.09 1.13.26.48.4 1.04.4 1.66l-.01.28zm-4.58-2.15c-.41.39-.65.89-.7 1.52h4.48c-.06-.62-.29-1.13-.7-1.52-.41-.39-.93-.58-1.54-.58-.62 0-1.13.19-1.54.58zm2.39-3.74h1.14l-1.94 1.49h-.84l1.64-1.49zM25.85 73.7c-.47-.15-.83-.33-1.1-.56l.38-.67c.26.21.6.38 1 .51s.82.2 1.25.2c.58 0 1-.09 1.28-.27.28-.18.41-.43.41-.76 0-.23-.08-.41-.23-.55s-.34-.23-.58-.3c-.23-.07-.54-.13-.92-.2-.51-.1-.92-.19-1.24-.29-.31-.1-.58-.27-.8-.51-.22-.24-.33-.57-.33-1 0-.53.22-.96.66-1.3.44-.34 1.05-.5 1.84-.5.41 0 .82.05 1.22.16.41.11.74.25 1.01.43l-.37.68c-.52-.36-1.14-.54-1.86-.54-.54 0-.95.1-1.23.29-.28.19-.41.44-.41.76 0 .24.08.43.23.58.16.14.35.25.58.32.23.07.55.14.96.21.5.1.91.19 1.21.29.3.1.56.26.78.49.22.23.32.55.32.96 0 .55-.23.99-.69 1.31s-1.1.49-1.91.49c-.5 0-.99-.08-1.46-.23zm3.49-8.62l-1.55 1.49h-.86l-1.55-1.49h.79l1.19.98 1.19-.98h.79zm7.65 5.9h-5.28c.05.66.3 1.19.76 1.59s1.03.61 1.73.61c.39 0 .75-.07 1.08-.21.33-.14.61-.35.85-.62l.48.55c-.28.34-.63.59-1.05.77s-.88.26-1.39.26c-.65 0-1.22-.14-1.72-.41-.5-.28-.89-.66-1.17-1.15-.28-.49-.42-1.04-.42-1.66 0-.62.13-1.17.4-1.66s.64-.87 1.1-1.14a3.1 3.1 0 011.58-.41c.58 0 1.11.14 1.57.41.46.27.83.65 1.09 1.13.26.48.4 1.04.4 1.66l-.01.28zm-4.57-2.16c-.41.39-.65.89-.7 1.52h4.48c-.06-.62-.29-1.13-.7-1.52-.41-.39-.93-.58-1.54-.58-.62 0-1.13.19-1.54.58zm6.55 4.88c-.47-.15-.83-.33-1.1-.56l.38-.67c.26.21.6.38 1 .51s.82.2 1.25.2c.58 0 1-.09 1.28-.27.28-.18.41-.43.41-.76 0-.23-.08-.41-.23-.55s-.34-.23-.58-.3c-.23-.07-.54-.13-.92-.2-.51-.1-.92-.19-1.24-.29-.31-.1-.58-.27-.8-.51-.22-.24-.33-.57-.33-1 0-.53.22-.96.66-1.3.44-.34 1.05-.5 1.84-.5.41 0 .82.05 1.22.16.41.11.74.25 1.01.43l-.37.68c-.52-.36-1.14-.54-1.86-.54-.54 0-.95.1-1.23.29-.28.19-.41.44-.41.76 0 .24.08.43.23.58.16.14.35.25.58.32.23.07.55.14.96.21.5.1.91.19 1.21.29.3.1.56.26.78.49.22.23.32.55.32.96 0 .55-.23.99-.69 1.31s-1.1.49-1.91.49c-.5 0-.99-.08-1.46-.23zm8.97-.22c-.16.14-.36.25-.59.33-.24.08-.48.11-.74.11-.59 0-1.05-.16-1.37-.48-.32-.32-.48-.77-.48-1.36v-3.82h-1.13v-.72h1.13v-1.38h.85v1.38h1.92v.72h-1.92v3.77c0 .38.09.66.28.86s.46.29.81.29c.18 0 .35-.03.51-.08.16-.06.31-.14.43-.24l.3.62zM49.47 66a.582.582 0 01-.18-.43c0-.16.06-.3.18-.42s.27-.18.44-.18c.18 0 .32.06.44.17.12.12.18.25.18.41 0 .18-.06.32-.18.44s-.27.18-.44.18c-.17 0-.32-.05-.44-.17zm.02 1.56h.85v6.31h-.85v-6.31zm3.22-2.6h.85v8.9h-.85v-8.9zm8.73 6.02h-5.28c.05.66.3 1.19.76 1.59s1.03.61 1.73.61c.39 0 .75-.07 1.08-.21.33-.14.61-.35.85-.62l.48.55c-.28.34-.63.59-1.05.77s-.88.26-1.39.26c-.65 0-1.22-.14-1.72-.41-.5-.28-.89-.66-1.17-1.15-.28-.49-.42-1.04-.42-1.66 0-.62.13-1.17.4-1.66s.64-.87 1.1-1.14a3.1 3.1 0 011.58-.41c.58 0 1.11.14 1.57.41.46.27.83.65 1.09 1.13.26.48.4 1.04.4 1.66l-.01.28zm-4.58-2.16c-.41.39-.65.89-.7 1.52h4.48c-.06-.62-.29-1.13-.7-1.52-.41-.39-.93-.58-1.54-.58-.62 0-1.13.19-1.54.58zm9.65 4.66c-.16.14-.36.25-.59.33-.24.08-.48.11-.74.11-.59 0-1.05-.16-1.37-.48-.32-.32-.48-.77-.48-1.36v-3.82H62.2v-.72h1.13v-1.38h.85v1.38h1.92v.72h-1.92v3.77c0 .38.09.66.28.86s.46.29.81.29c.18 0 .35-.03.51-.08.16-.06.31-.14.43-.24l.3.62zm6.82-2.5h-5.28c.05.66.3 1.19.76 1.59s1.03.61 1.73.61c.39 0 .75-.07 1.08-.21.33-.14.61-.35.85-.62l.48.55c-.28.34-.63.59-1.05.77s-.88.26-1.39.26c-.65 0-1.22-.14-1.72-.41-.5-.28-.89-.66-1.17-1.15-.28-.49-.42-1.04-.42-1.66 0-.62.13-1.17.4-1.66s.64-.87 1.1-1.14a3.1 3.1 0 011.58-.41c.58 0 1.11.14 1.57.41.46.27.83.65 1.09 1.13.26.48.4 1.04.4 1.66l-.01.28zm-4.58-2.16c-.41.39-.65.89-.7 1.52h4.48c-.06-.62-.29-1.13-.7-1.52-.41-.39-.93-.58-1.54-.58-.62 0-1.13.19-1.54.58zm2.4-3.74h1.14l-1.94 1.49h-.85l1.65-1.49zm-44.58 44.85c-.49-.27-.88-.65-1.16-1.15-.28-.49-.42-1.05-.42-1.66 0-.62.14-1.17.42-1.66.28-.49.67-.87 1.16-1.14.49-.27 1.05-.41 1.67-.41.54 0 1.03.11 1.46.32.43.21.77.52 1.01.93l-.64.43c-.21-.31-.47-.55-.79-.7-.32-.16-.67-.23-1.04-.23-.46 0-.87.1-1.23.31-.36.2-.65.49-.85.87-.2.38-.31.8-.31 1.28 0 .49.1.92.31 1.29.2.37.49.66.85.86.36.2.77.31 1.23.31.38 0 .72-.08 1.04-.23.32-.15.58-.38.79-.7l.64.43c-.25.41-.59.72-1.02.93-.43.21-.92.32-1.45.32-.62.01-1.18-.13-1.67-.4zm3.44-8.44l-1.55 1.49h-.86l-1.55-1.49h.79l1.19.98 1.19-.98h.79zm5.77 8.4c-.16.14-.36.25-.59.33-.24.08-.48.11-.74.11-.59 0-1.05-.16-1.37-.48-.32-.32-.48-.77-.48-1.36v-3.82h-1.13v-.72h1.13v-1.38h.85v1.38h1.92v.72h-1.92v3.77c0 .38.09.66.28.86s.46.29.81.29c.18 0 .35-.03.51-.08.16-.06.31-.14.43-.24l.3.62zm6.73-5.92l-3.16 7.07c-.26.59-.55 1.01-.89 1.26-.34.25-.74.37-1.21.37-.3 0-.59-.05-.85-.14-.26-.1-.49-.24-.68-.43l.4-.64c.32.32.7.48 1.15.48.29 0 .53-.08.74-.24.2-.16.39-.43.57-.82l.28-.61-2.82-6.3h.89l2.38 5.36 2.38-5.36h.82zm4.78-2.48l-1.55 1.49h-.86l-1.55-1.49h.79l1.19.98 1.19-.98h.79zm-1.87 2.75c.4-.22.89-.32 1.47-.32v.83l-.2-.01c-.66 0-1.18.2-1.56.61-.38.41-.56.98-.56 1.72v3.22h-.85v-6.31h.82v1.24c.19-.44.49-.76.88-.98zm3.01-2.87h.85v8.9h-.85v-8.9zm8.72 6.02h-5.28c.05.66.3 1.19.76 1.59s1.03.61 1.73.61c.39 0 .75-.07 1.08-.21.33-.14.61-.35.85-.62l.48.55c-.28.34-.63.59-1.05.77s-.88.26-1.39.26c-.65 0-1.22-.14-1.72-.41-.5-.28-.89-.66-1.17-1.15-.28-.49-.42-1.04-.42-1.66 0-.62.13-1.17.4-1.66s.64-.87 1.1-1.14a3.1 3.1 0 011.58-.41c.58 0 1.11.14 1.57.41.46.27.83.65 1.09 1.13.26.48.4 1.04.4 1.66l-.01.28zm-4.58-2.16c-.41.39-.65.89-.7 1.52h4.48c-.06-.62-.29-1.13-.7-1.52-.41-.39-.93-.58-1.54-.58s-1.12.19-1.54.58zm9.66 4.66c-.16.14-.36.25-.59.33-.24.08-.48.11-.74.11-.59 0-1.05-.16-1.37-.48-.32-.32-.48-.77-.48-1.36v-3.82h-1.13v-.72h1.13v-1.38h.85v1.38h1.92v.72H59.9v3.77c0 .38.09.66.28.86s.46.29.81.29c.18 0 .35-.03.51-.08.16-.06.31-.14.43-.24l.3.62zm6.82-2.5h-5.28c.05.66.3 1.19.76 1.59s1.03.61 1.73.61c.39 0 .75-.07 1.08-.21.33-.14.61-.35.85-.62l.48.55c-.28.34-.63.59-1.05.77s-.88.26-1.39.26c-.65 0-1.22-.14-1.72-.41-.5-.28-.89-.66-1.17-1.15-.28-.49-.42-1.04-.42-1.66 0-.62.13-1.17.4-1.66s.64-.87 1.1-1.14a3.1 3.1 0 011.58-.41c.58 0 1.11.14 1.57.41.46.27.83.65 1.09 1.13.26.48.4 1.04.4 1.66l-.01.28zm-4.58-2.16c-.41.39-.65.89-.7 1.52h4.48c-.06-.62-.29-1.13-.7-1.52-.41-.39-.93-.58-1.54-.58-.62 0-1.13.19-1.54.58zm2.39-3.74H68l-1.94 1.49h-.84l1.64-1.49z"/><path class="st5" d="M383.83 82.03H315v-9.88c0-1.77 1.43-3.2 3.2-3.2h69.28c1.77 0 3.2 1.43 3.2 3.2v3.04c0 3.78-3.07 6.84-6.85 6.84z"/><path class="st6" d="M332.01 72.69v6.07h-.78v-6.07h.78zm1.37.08c.34-.07.88-.13 1.43-.13.78 0 1.29.14 1.67.44.32.23.5.59.5 1.07 0 .58-.39 1.1-1.03 1.33v.02c.58.14 1.25.62 1.25 1.52 0 .52-.21.92-.51 1.22-.42.39-1.11.57-2.1.57-.54 0-.95-.04-1.21-.07v-5.97zm.78 2.48h.71c.83 0 1.31-.43 1.31-1.02 0-.71-.54-.99-1.33-.99-.36 0-.57.03-.69.05v1.96zm0 2.91c.15.03.38.04.66.04.81 0 1.56-.3 1.56-1.18 0-.83-.71-1.17-1.57-1.17h-.65v2.31zm35.24-5.47v6.07h-.78v-6.07h.78zm1.37.08c.34-.07.88-.13 1.43-.13.78 0 1.29.14 1.67.44.32.23.5.59.5 1.07 0 .58-.39 1.1-1.03 1.33v.02c.58.14 1.25.62 1.25 1.52 0 .52-.21.92-.51 1.22-.42.39-1.11.57-2.1.57-.54 0-.95-.04-1.21-.07v-5.97zm.78 2.48h.71c.83 0 1.31-.43 1.31-1.02 0-.71-.54-.99-1.33-.99-.36 0-.57.03-.69.05v1.96zm0 2.91c.15.03.38.04.66.04.81 0 1.56-.3 1.56-1.18 0-.83-.71-1.17-1.57-1.17h-.65v2.31z"/><path class="st5" d="M383.83 46.81H315v-9.88c0-1.77 1.43-3.2 3.2-3.2h69.28c1.77 0 3.2 1.43 3.2 3.2v3.04c0 3.78-3.07 6.84-6.85 6.84zm0 70.45H315v-9.88c0-1.77 1.43-3.2 3.2-3.2h69.28c1.77 0 3.2 1.43 3.2 3.2v3.04c0 3.78-3.07 6.84-6.85 6.84z"/><path class="st6" d="M332.01 37.46v6.07h-.78v-6.07h.78zm1.37.08c.34-.07.88-.13 1.43-.13.78 0 1.29.14 1.67.44.32.23.5.59.5 1.07 0 .58-.39 1.1-1.03 1.33v.02c.58.14 1.25.62 1.25 1.52 0 .52-.21.92-.51 1.22-.42.39-1.11.57-2.1.57-.54 0-.95-.04-1.21-.07v-5.97zm.78 2.49h.71c.83 0 1.31-.43 1.31-1.02 0-.71-.54-.99-1.33-.99-.36 0-.57.03-.69.05v1.96zm0 2.9c.15.03.38.04.66.04.81 0 1.56-.3 1.56-1.18 0-.83-.71-1.17-1.57-1.17h-.65v2.31zm35.24-5.47v6.07h-.78v-6.07h.78zm1.37.08c.34-.07.88-.13 1.43-.13.78 0 1.29.14 1.67.44.32.23.5.59.5 1.07 0 .58-.39 1.1-1.03 1.33v.02c.58.14 1.25.62 1.25 1.52 0 .52-.21.92-.51 1.22-.42.39-1.11.57-2.1.57-.54 0-.95-.04-1.21-.07v-5.97zm.78 2.49h.71c.83 0 1.31-.43 1.31-1.02 0-.71-.54-.99-1.33-.99-.36 0-.57.03-.69.05v1.96zm0 2.9c.15.03.38.04.66.04.81 0 1.56-.3 1.56-1.18 0-.83-.71-1.17-1.57-1.17h-.65v2.31zm-39.54 65.32v6.07h-.78v-6.07h.78zm1.37.08c.34-.07.88-.13 1.43-.13.78 0 1.29.14 1.67.44.32.23.5.59.5 1.07 0 .58-.39 1.1-1.03 1.33v.02c.58.14 1.25.62 1.25 1.52 0 .52-.21.92-.51 1.22-.42.39-1.11.57-2.1.57-.54 0-.95-.04-1.21-.07v-5.97zm.78 2.48h.71c.83 0 1.31-.43 1.31-1.02 0-.71-.54-.99-1.33-.99-.36 0-.57.03-.69.05v1.96zm0 2.91c.15.03.38.04.66.04.81 0 1.56-.3 1.56-1.18 0-.83-.71-1.17-1.57-1.17h-.65v2.31zm35.24-5.47v6.07h-.78v-6.07h.78zm1.37.08c.34-.07.88-.13 1.43-.13.78 0 1.29.14 1.67.44.32.23.5.59.5 1.07 0 .58-.39 1.1-1.03 1.33v.02c.58.14 1.25.62 1.25 1.52 0 .52-.21.92-.51 1.22-.42.39-1.11.57-2.1.57-.54 0-.95-.04-1.21-.07v-5.97zm.78 2.48h.71c.83 0 1.31-.43 1.31-1.02 0-.71-.54-.99-1.33-.99-.36 0-.57.03-.69.05v1.96zm0 2.91c.15.03.38.04.66.04.81 0 1.56-.3 1.56-1.18 0-.83-.71-1.17-1.57-1.17h-.65v2.31zm-270.79-87.6c.28.16.5.38.66.66.16.29.24.61.24.97 0 .37-.08.7-.24.98-.16.29-.38.51-.65.66-.28.16-.59.23-.94.23-.3 0-.57-.06-.81-.19-.24-.12-.44-.3-.59-.54v2.05h-.5V25.9h.48v.73c.15-.24.35-.43.59-.56.24-.13.52-.2.83-.2.34.01.65.09.93.25zm-.27 2.89c.21-.12.37-.29.49-.51.12-.22.18-.47.18-.75s-.06-.53-.18-.75c-.12-.22-.28-.39-.49-.51s-.44-.18-.7-.18c-.26 0-.5.06-.7.18-.21.12-.37.29-.49.51-.12.22-.18.47-.18.75s.06.53.18.75c.12.22.28.39.49.51.21.12.44.18.7.18.25 0 .49-.06.7-.18zm3.18-2.94c.23-.13.52-.19.86-.19v.48l-.12-.01c-.39 0-.69.12-.91.36s-.33.57-.33 1v1.88h-.5v-3.68h.48v.72c.11-.24.29-.43.52-.56zm1.74-1.07a.332.332 0 01-.1-.25c0-.09.04-.17.1-.25s.16-.11.26-.11.19.03.26.1.1.15.1.24a.4.4 0 01-.1.26c-.07.07-.16.1-.26.1s-.19-.02-.26-.09zm.01.91h.5v3.68h-.5v-3.68zm7.56.37c.26.27.4.66.4 1.18v2.13h-.5V27.5c0-.38-.09-.67-.28-.88-.18-.2-.44-.3-.78-.3-.38 0-.68.12-.9.35-.22.24-.33.56-.33.98v1.93h-.5v-2.09c0-.38-.09-.67-.28-.88-.18-.2-.45-.3-.79-.3-.38 0-.68.12-.9.35-.22.24-.33.56-.33.98v1.93h-.5v-3.68h.48v.67c.13-.22.31-.4.55-.52.23-.12.5-.18.81-.18.31 0 .58.07.8.2.23.13.4.32.51.58.14-.24.33-.43.58-.57.25-.14.54-.21.87-.21.47.02.83.16 1.09.42zm4.14-.04c.26.24.39.6.39 1.07v2.28h-.48v-.57c-.11.19-.28.34-.49.45-.22.11-.47.16-.77.16-.41 0-.74-.1-.98-.29a.967.967 0 01-.36-.78c0-.31.11-.56.34-.76.23-.19.59-.29 1.08-.29h1.17v-.22c0-.32-.09-.56-.27-.72s-.44-.25-.78-.25c-.23 0-.46.04-.67.12-.21.08-.4.18-.55.32l-.22-.37c.19-.16.41-.28.67-.37.26-.09.54-.13.83-.13.47-.01.84.11 1.09.35zm-.56 2.8c.2-.13.35-.31.45-.56v-.6h-1.16c-.63 0-.94.22-.94.66 0 .21.08.38.25.51.16.12.39.19.69.19.27 0 .51-.07.71-.2zm13.91.46c-.27-.09-.49-.19-.64-.33l.22-.39c.15.12.35.22.58.3s.48.12.73.12c.34 0 .58-.05.75-.16.16-.1.24-.25.24-.44 0-.14-.04-.24-.13-.32a.73.73 0 00-.34-.17c-.14-.04-.31-.08-.54-.12-.3-.06-.54-.11-.72-.17-.18-.06-.34-.16-.47-.3s-.19-.33-.19-.58c0-.31.13-.56.39-.76.26-.2.61-.29 1.07-.29.24 0 .48.03.71.09.24.06.43.15.59.25l-.22.4c-.3-.21-.67-.32-1.08-.32-.32 0-.56.06-.72.17-.16.11-.24.26-.24.44 0 .14.05.25.14.34.09.08.2.15.34.19.14.04.32.08.56.12.29.06.53.11.71.17.18.06.33.15.45.29.13.14.19.32.19.56 0 .32-.13.58-.4.77-.27.19-.64.28-1.12.28-.3-.01-.59-.05-.86-.14zm6.5-1.59h-3.08c.03.38.18.69.44.93.27.24.6.35 1.01.35.23 0 .44-.04.63-.12.19-.08.36-.2.5-.36l.28.32c-.16.2-.37.35-.61.45s-.51.15-.81.15c-.38 0-.71-.08-1-.24-.29-.16-.52-.38-.68-.67-.16-.28-.25-.61-.25-.97s.08-.68.23-.97c.16-.29.37-.51.64-.67.27-.16.58-.24.92-.24.34 0 .65.08.92.24.27.16.48.38.64.66.15.28.23.61.23.97l-.01.17zm-2.67-1.26c-.24.23-.38.52-.41.89h2.61c-.03-.36-.17-.66-.41-.89s-.54-.34-.9-.34c-.35 0-.65.11-.89.34zm5.06 1.1l-.87.8v1.05h-.5v-5.2h.5v3.52l2.2-2.01h.62l-1.57 1.5 1.72 2.18h-.61l-1.49-1.84zm6.09-1.84v3.68h-.48v-.67c-.13.22-.31.4-.54.52-.23.12-.49.19-.78.19-.48 0-.86-.13-1.14-.4-.28-.27-.42-.66-.42-1.18v-2.13h.5V28c0 .39.1.68.29.88.19.2.46.3.82.3.39 0 .69-.12.92-.35.22-.24.34-.56.34-.98v-1.93h.49zm4.37.38c.27.27.41.66.41 1.17v2.13h-.5V27.5c0-.38-.1-.67-.29-.88s-.46-.3-.82-.3c-.4 0-.71.12-.94.35-.23.24-.35.56-.35.98v1.93h-.5V25.9h.48v.68c.14-.22.32-.4.56-.52s.52-.19.84-.19c.47.01.83.15 1.11.42zm5.13-1.89v5.19h-.48v-.73c-.15.25-.35.44-.59.57-.24.13-.52.2-.83.2-.35 0-.66-.08-.94-.24-.28-.16-.5-.38-.66-.67-.16-.28-.24-.61-.24-.97s.08-.69.24-.97c.16-.28.38-.5.66-.66.28-.16.59-.23.94-.23.3 0 .57.06.81.19s.44.3.59.54V24.4h.5zm-1.16 4.61c.21-.12.37-.29.49-.51.12-.22.18-.47.18-.75s-.06-.53-.18-.75c-.12-.22-.28-.39-.49-.51s-.44-.18-.7-.18c-.26 0-.5.06-.7.18-.21.12-.37.29-.49.51-.12.22-.18.47-.18.75s.06.53.18.75c.12.22.28.39.49.51.21.12.44.18.7.18.26 0 .5-.06.7-.18zm4.94-2.77c.26.24.39.6.39 1.07v2.28h-.48v-.57c-.11.19-.28.34-.49.45-.22.11-.47.16-.77.16-.41 0-.74-.1-.98-.29a.967.967 0 01-.36-.78c0-.31.11-.56.34-.76.23-.19.59-.29 1.08-.29h1.17v-.22c0-.32-.09-.56-.27-.72s-.44-.25-.78-.25c-.23 0-.46.04-.67.12-.21.08-.4.18-.55.32l-.22-.37c.19-.16.41-.28.67-.37.26-.09.54-.13.83-.13.47-.01.83.11 1.09.35zm-.56 2.8c.2-.13.35-.31.45-.56v-.6h-1.16c-.63 0-.94.22-.94.66 0 .21.08.38.25.51.16.12.39.19.69.19.27 0 .51-.07.71-.2zm17.7.33c-.09.08-.21.15-.35.19-.14.04-.28.07-.43.07-.35 0-.61-.09-.8-.28-.19-.19-.28-.45-.28-.79v-2.23h-.66v-.42h.66v-.81h.5v.81h1.12v.42h-1.12v2.2c0 .22.05.39.16.5.11.11.27.17.47.17.1 0 .2-.02.3-.05.1-.03.18-.08.25-.14l.18.36zm3.98-1.46h-3.08c.03.38.18.69.44.93.27.24.6.35 1.01.35.23 0 .44-.04.63-.12.19-.08.36-.2.5-.36l.28.32c-.16.2-.37.35-.61.45s-.51.15-.81.15c-.38 0-.71-.08-1-.24-.29-.16-.52-.38-.68-.67-.16-.28-.25-.61-.25-.97s.08-.68.23-.97c.16-.29.37-.51.64-.67.27-.16.58-.24.92-.24.34 0 .65.08.92.24.27.16.48.38.64.66.15.28.23.61.23.97l-.01.17zm-2.67-1.26c-.24.23-.38.52-.41.89h2.61c-.03-.36-.17-.66-.41-.89s-.54-.34-.9-.34c-.35 0-.65.11-.89.34zm4.69-.58c.23-.13.52-.19.86-.19v.48l-.12-.01c-.39 0-.69.12-.91.36s-.33.57-.33 1v1.88h-.5v-3.68h.48v.72c.12-.24.29-.43.52-.56zm2.27 3.32c-.29-.16-.51-.38-.68-.67-.16-.29-.25-.61-.25-.97s.08-.68.25-.97c.16-.29.39-.51.68-.67.29-.16.61-.24.98-.24.32 0 .6.06.85.19.25.12.45.3.59.54l-.37.25c-.12-.18-.28-.32-.46-.41s-.39-.14-.61-.14c-.27 0-.51.06-.72.18-.21.12-.38.29-.5.51s-.18.47-.18.75.06.54.18.75c.12.22.28.39.5.5.21.12.45.18.72.18.22 0 .42-.04.61-.13s.34-.22.46-.41l.37.25c-.14.24-.34.42-.59.54s-.53.19-.85.19c-.37.02-.7-.06-.98-.22zm3.38-4.39a.332.332 0 01-.1-.25c0-.09.04-.17.1-.25.07-.07.16-.11.26-.11s.19.03.26.1.1.15.1.24a.4.4 0 01-.1.26c-.07.07-.16.1-.26.1s-.19-.02-.26-.09zm.01.91h.5v3.68h-.5v-3.68zm5.09 2h-3.08c.03.38.18.69.44.93.27.24.6.35 1.01.35.23 0 .44-.04.63-.12.19-.08.36-.2.5-.36l.28.32c-.16.2-.37.35-.61.45s-.51.15-.81.15c-.38 0-.71-.08-1-.24-.29-.16-.52-.38-.68-.67-.16-.28-.25-.61-.25-.97s.08-.68.24-.97c.16-.29.37-.51.64-.67.27-.16.58-.24.92-.24.34 0 .65.08.92.24.27.16.48.38.64.66s.23.61.23.97l-.02.17zm-2.67-1.26c-.24.23-.38.52-.41.89h2.61c-.03-.36-.17-.66-.41-.89s-.54-.34-.9-.34c-.35 0-.65.11-.89.34zm21.55 1.1l-.87.8v1.05h-.5v-5.2h.5v3.52l2.2-2.01h.62l-1.58 1.5 1.72 2.18h-.61l-1.48-1.84zm5.75-1.84l-1.64 3.68h-.51l-1.63-3.68h.52l1.38 3.14 1.39-3.14h.49zm2.98.33c.26.24.38.6.38 1.07v2.28h-.48v-.57c-.11.19-.28.34-.49.45-.22.11-.47.16-.77.16-.41 0-.74-.1-.98-.29a.967.967 0 01-.36-.78c0-.31.11-.56.34-.76.23-.19.59-.29 1.08-.29h1.17v-.22c0-.32-.09-.56-.27-.72-.18-.17-.44-.25-.78-.25-.23 0-.46.04-.67.12-.21.08-.4.18-.55.32l-.22-.37c.19-.16.41-.28.67-.37.26-.09.54-.13.83-.13.48-.01.85.11 1.1.35zm-.56 2.8c.2-.13.35-.31.45-.56v-.6h-1.16c-.63 0-.94.22-.94.66 0 .21.08.38.25.51.16.12.39.19.69.19.27 0 .51-.07.71-.2zm3.3-2.97c.23-.13.52-.19.86-.19v.48l-.12-.01c-.39 0-.69.12-.91.36-.22.24-.33.57-.33 1v1.88h-.5v-3.68h.48v.72c.11-.24.28-.43.52-.56zm3.85 3.3c-.09.08-.21.15-.35.19-.14.04-.28.07-.43.07-.35 0-.61-.09-.8-.28-.19-.19-.28-.45-.28-.79v-2.23h-.66v-.42h.66v-.81h.5v.81h1.12v.42h-1.12v2.2c0 .22.05.39.16.5s.27.17.47.17c.1 0 .2-.02.3-.05.1-.03.18-.08.25-.14l.18.36zm3.3-3.13c.26.24.38.6.38 1.07v2.28h-.48v-.57c-.11.19-.28.34-.49.45-.22.11-.47.16-.77.16-.41 0-.74-.1-.98-.29a.967.967 0 01-.36-.78c0-.31.11-.56.34-.76.23-.19.59-.29 1.08-.29H230v-.22c0-.32-.09-.56-.27-.72-.18-.17-.44-.25-.78-.25-.23 0-.46.04-.67.12-.21.08-.4.18-.55.32l-.22-.37c.19-.16.41-.28.67-.37.26-.09.54-.13.83-.13.48-.01.85.11 1.11.35zm-.56 2.8c.2-.13.35-.31.45-.56v-.6h-1.16c-.63 0-.94.22-.94.66 0 .21.08.38.25.51.16.12.39.19.69.19.26 0 .51-.07.71-.2zm19.86-1.29l-.87.8v1.05h-.5v-5.2h.5v3.52l2.2-2.01h.62l-1.57 1.5 1.72 2.18h-.61l-1.49-1.84zm5.74-1.84l-1.64 3.68h-.51l-1.63-3.68h.52l1.38 3.14 1.39-3.14h.49zm.7-.91a.332.332 0 01-.1-.25c0-.09.04-.17.1-.25.07-.07.16-.11.26-.11s.19.03.26.1.1.15.1.24a.4.4 0 01-.1.26c-.07.07-.16.1-.26.1s-.19-.02-.26-.09zm0 .91h.5v3.68h-.5v-3.68zm4.87.38c.27.27.41.66.41 1.17v2.13h-.5V27.5c0-.38-.1-.67-.29-.88s-.46-.3-.82-.3c-.4 0-.71.12-.94.35-.23.24-.35.56-.35.98v1.93h-.5V25.9h.48v.68c.13-.22.32-.4.56-.52s.52-.19.84-.19c.46.01.83.15 1.11.42zm3.7 3.08c-.09.08-.21.15-.35.19-.14.04-.28.07-.43.07-.34 0-.61-.09-.8-.28s-.28-.45-.28-.79v-2.23h-.66v-.42h.66v-.81h.5v.81h1.12v.42h-1.12v2.2c0 .22.05.39.17.5.11.11.27.17.47.17.1 0 .2-.02.3-.05.1-.03.18-.08.25-.14l.17.36zm3.29-3.13c.26.24.38.6.38 1.07v2.28h-.48v-.57c-.11.19-.28.34-.49.45-.22.11-.47.16-.77.16-.41 0-.74-.1-.98-.29a.967.967 0 01-.36-.78c0-.31.11-.56.34-.76.23-.19.59-.29 1.08-.29h1.17v-.22c0-.32-.09-.56-.27-.72-.18-.17-.44-.25-.78-.25-.23 0-.46.04-.67.12-.21.08-.4.18-.55.32l-.22-.37c.19-.16.41-.28.67-.37.26-.09.54-.13.83-.13.48-.01.85.11 1.1.35zm-.56 2.8c.2-.13.35-.31.45-.56v-.6h-1.16c-.63 0-.94.22-.94.66 0 .21.08.38.25.51.16.12.39.19.69.19.27 0 .51-.07.71-.2zm20.45.46c-.27-.09-.49-.19-.64-.33l.22-.39c.15.12.35.22.58.3s.48.12.73.12c.34 0 .58-.05.75-.16.16-.1.24-.25.24-.44 0-.14-.04-.24-.13-.32a.73.73 0 00-.34-.17c-.13-.04-.31-.08-.54-.12-.3-.06-.54-.11-.72-.17s-.34-.16-.47-.3c-.13-.14-.19-.33-.19-.58 0-.31.13-.56.39-.76.26-.2.61-.29 1.07-.29.24 0 .48.03.71.09.24.06.43.15.59.25l-.22.4c-.3-.21-.67-.32-1.08-.32-.32 0-.56.06-.72.17-.16.11-.24.26-.24.44 0 .14.05.25.14.34s.2.15.34.19c.13.04.32.08.56.12.29.06.53.11.71.17.18.06.33.15.46.29.13.14.19.32.19.56 0 .32-.13.58-.4.77-.27.19-.64.28-1.12.28-.31-.01-.6-.05-.87-.14zm6.5-1.59h-3.08c.03.38.18.69.44.93.27.24.6.35 1.01.35.23 0 .44-.04.63-.12.19-.08.36-.2.5-.36l.28.32c-.16.2-.37.35-.61.45s-.51.15-.81.15c-.38 0-.71-.08-1-.24-.29-.16-.52-.38-.68-.67-.16-.28-.25-.61-.25-.97s.08-.68.24-.97c.16-.29.37-.51.64-.67.27-.16.58-.24.92-.24.34 0 .65.08.92.24.27.16.48.38.64.66s.23.61.23.97l-.02.17zm-2.67-1.26c-.24.23-.38.52-.41.89h2.61c-.03-.36-.17-.66-.41-.89s-.54-.34-.9-.34c-.35 0-.65.11-.89.34zm5.93 2.94l-1.17-1.54-1.18 1.54h-.56l1.46-1.89-1.39-1.79h.56l1.11 1.44 1.11-1.44h.55l-1.39 1.79 1.47 1.89h-.57zm3.33-.22c-.09.08-.21.15-.35.19-.14.04-.28.07-.43.07-.35 0-.61-.09-.8-.28-.19-.19-.28-.45-.28-.79v-2.23h-.66v-.42h.66v-.81h.5v.81h1.12v.42h-1.12v2.2c0 .22.05.39.16.5s.27.17.47.17c.1 0 .2-.02.3-.05.1-.03.18-.08.25-.14l.18.36zm3.3-3.13c.26.24.38.6.38 1.07v2.28h-.48v-.57c-.11.19-.28.34-.49.45-.22.11-.47.16-.77.16-.41 0-.74-.1-.98-.29a.967.967 0 01-.36-.78c0-.31.11-.56.34-.76.23-.19.59-.29 1.08-.29h1.17v-.22c0-.32-.09-.56-.27-.72-.18-.17-.44-.25-.78-.25-.23 0-.46.04-.67.12-.21.08-.4.18-.55.32l-.22-.37c.19-.16.41-.28.67-.37.26-.09.54-.13.83-.13.47-.01.84.11 1.1.35zm-.56 2.8c.2-.13.35-.31.45-.56v-.6h-1.16c-.63 0-.94.22-.94.66 0 .21.08.38.25.51.16.12.39.19.69.19.27 0 .51-.07.71-.2zm17.07.46c-.27-.09-.49-.19-.64-.33l.22-.39c.15.12.35.22.58.3s.48.12.73.12c.34 0 .58-.05.75-.16.16-.1.24-.25.24-.44 0-.14-.04-.24-.13-.32s-.2-.14-.34-.17c-.14-.04-.32-.08-.54-.12-.3-.06-.54-.11-.72-.17-.18-.06-.34-.16-.47-.3-.13-.14-.19-.33-.19-.58 0-.31.13-.56.38-.76s.61-.29 1.07-.29c.24 0 .48.03.71.09.24.06.43.15.59.25l-.22.4c-.3-.21-.67-.32-1.08-.32-.32 0-.56.06-.72.17-.16.11-.24.26-.24.44 0 .14.04.25.14.34.09.08.2.15.34.19.14.04.32.08.56.12.29.06.53.11.71.17.18.06.33.15.45.29.13.14.19.32.19.56 0 .32-.13.58-.4.77-.27.19-.64.28-1.12.28-.29-.01-.58-.05-.85-.14zm6.5-1.59h-3.08c.03.38.17.69.44.93.27.24.6.35 1.01.35.23 0 .44-.04.63-.12.19-.08.36-.2.5-.36l.28.32c-.16.2-.37.35-.61.45s-.51.15-.81.15c-.38 0-.71-.08-1-.24-.29-.16-.52-.38-.68-.67-.16-.28-.25-.61-.25-.97s.08-.68.23-.97c.16-.29.37-.51.64-.67.27-.16.58-.24.92-.24s.65.08.92.24c.27.16.48.38.64.66.15.28.23.61.23.97l-.01.17zm-2.67-1.26c-.24.23-.38.52-.41.89h2.61c-.03-.36-.17-.66-.41-.89s-.54-.34-.9-.34c-.35 0-.65.11-.89.34zm6.53-.53c.28.16.5.38.66.66.16.29.24.61.24.97 0 .37-.08.7-.24.98-.16.29-.38.51-.65.66s-.59.23-.94.23c-.3 0-.57-.06-.81-.19s-.44-.3-.59-.54v2.05h-.5V25.9h.48v.73c.15-.24.35-.43.59-.56.24-.13.52-.2.83-.2.33.01.65.09.93.25zm-.28 2.89c.21-.12.37-.29.49-.51.12-.22.18-.47.18-.75s-.06-.53-.18-.75c-.12-.22-.28-.39-.49-.51s-.44-.18-.7-.18c-.26 0-.5.06-.7.18-.21.12-.37.29-.49.51-.12.22-.18.47-.18.75s.06.53.18.75c.12.22.28.39.49.51.21.12.44.18.7.18.26 0 .49-.06.7-.18zm4.13.36c-.09.08-.21.15-.35.19-.14.04-.28.07-.43.07-.34 0-.61-.09-.8-.28s-.28-.45-.28-.79v-2.23h-.66v-.42h.66v-.81h.5v.81h1.12v.42h-1.12v2.2c0 .22.05.39.17.5.11.11.27.17.47.17.1 0 .2-.02.3-.05.1-.03.18-.08.25-.14l.17.36zm.89-4.37a.332.332 0 01-.1-.25c0-.09.04-.17.1-.25.07-.07.16-.11.26-.11s.19.03.26.1.1.15.1.24a.4.4 0 01-.1.26c-.07.07-.16.1-.26.1s-.19-.02-.26-.09zm.01.91h.5v3.68h-.5v-3.68zm7.56.37c.26.27.4.66.4 1.18v2.13h-.5V27.5c0-.38-.09-.67-.28-.88s-.44-.3-.78-.3c-.38 0-.68.12-.9.35-.22.24-.33.56-.33.98v1.93h-.5v-2.09c0-.38-.09-.67-.28-.88s-.45-.3-.79-.3c-.38 0-.68.12-.9.35-.22.24-.33.56-.33.98v1.93h-.5v-3.68h.48v.67c.13-.22.31-.4.55-.52.23-.12.5-.18.8-.18.31 0 .58.07.8.2s.4.32.51.58c.13-.24.33-.43.58-.57.25-.14.54-.21.87-.21.48.02.84.16 1.1.42zm4.14-.04c.26.24.39.6.39 1.07v2.28h-.48v-.57c-.11.19-.28.34-.49.45s-.47.16-.77.16c-.41 0-.74-.1-.98-.29a.967.967 0 01-.36-.78c0-.31.11-.56.34-.76s.59-.29 1.08-.29h1.17v-.22c0-.32-.09-.56-.27-.72-.18-.17-.44-.25-.78-.25-.23 0-.46.04-.67.12-.21.08-.4.18-.55.32l-.22-.37c.19-.16.41-.28.67-.37.26-.09.54-.13.83-.13.47-.01.84.11 1.09.35zm-.56 2.8c.2-.13.35-.31.45-.56v-.6h-1.16c-.63 0-.95.22-.95.66 0 .21.08.38.25.51.16.12.39.19.69.19.28 0 .52-.07.72-.2zm13.21.35c-.29-.16-.51-.38-.67-.67-.16-.28-.25-.61-.25-.97s.08-.68.25-.97c.16-.29.39-.51.67-.67.28-.16.6-.24.96-.24s.67.08.96.24c.28.16.51.38.67.67.16.28.24.61.24.97s-.08.68-.24.97c-.16.29-.38.51-.67.67-.29.16-.6.24-.96.24s-.68-.08-.96-.24zm1.66-.38c.21-.12.37-.29.49-.51.12-.22.17-.47.17-.75s-.06-.53-.17-.75c-.12-.22-.28-.39-.49-.51-.21-.12-.44-.18-.7-.18s-.5.06-.7.18c-.21.12-.37.29-.49.51s-.18.47-.18.75.06.53.18.75c.12.22.28.39.49.51.21.12.44.18.7.18s.5-.06.7-.18zm3.55-1.26l-.87.8v1.05h-.5v-5.2h.5v3.52l2.2-2.01h.62l-1.58 1.5 1.72 2.18h-.61l-1.48-1.84zm4.78 1.62c-.09.08-.21.15-.35.19-.14.04-.28.07-.43.07-.34 0-.61-.09-.8-.28s-.28-.45-.28-.79v-2.23h-.66v-.42h.66v-.81h.5v.81h1.12v.42h-1.12v2.2c0 .22.05.39.17.5.11.11.27.17.47.17.1 0 .2-.02.3-.05.1-.03.18-.08.25-.14l.17.36zm3.3-3.13c.26.24.38.6.38 1.07v2.28h-.48v-.57c-.11.19-.28.34-.49.45-.22.11-.47.16-.77.16-.41 0-.74-.1-.98-.29a.967.967 0 01-.36-.78c0-.31.11-.56.34-.76.23-.19.59-.29 1.08-.29h1.17v-.22c0-.32-.09-.56-.27-.72-.18-.17-.44-.25-.78-.25-.23 0-.46.04-.67.12-.21.08-.4.18-.55.32l-.22-.37c.19-.16.41-.28.67-.37.26-.09.54-.13.83-.13.47-.01.84.11 1.1.35zm-.56 2.8c.2-.13.35-.31.45-.56v-.6h-1.16c-.63 0-.94.22-.94.66 0 .21.08.38.25.51.16.12.39.19.69.19.27 0 .51-.07.71-.2zm-.03-4.57h.67l-1.13.87h-.49l.95-.87zm5.35 1.44l-1.64 3.68h-.51l-1.63-3.68h.52l1.38 3.14 1.39-3.14h.49zm2.98.33c.26.24.39.6.39 1.07v2.28h-.48v-.57c-.11.19-.28.34-.49.45s-.47.16-.77.16c-.41 0-.74-.1-.98-.29a.967.967 0 01-.36-.78c0-.31.11-.56.34-.76s.59-.29 1.08-.29h1.17v-.22c0-.32-.09-.56-.27-.72-.18-.17-.44-.25-.78-.25-.23 0-.46.04-.67.12-.21.08-.4.18-.55.32l-.22-.37c.19-.16.41-.28.67-.37.26-.09.54-.13.83-.13.46-.01.83.11 1.09.35zm-.56 2.8c.2-.13.35-.31.45-.56v-.6h-1.16c-.63 0-.95.22-.95.66 0 .21.08.38.25.51.16.12.39.19.69.19.28 0 .52-.07.72-.2zm-122.77 66.5v4.9h-.5v-4.45h-1.15v-.45h1.65zm39.81 4.45v.45h-3.44v-.36l2.04-1.99c.26-.25.43-.47.52-.66.09-.18.14-.37.14-.56 0-.29-.1-.51-.3-.67s-.48-.24-.85-.24c-.57 0-1.02.18-1.34.55l-.36-.31c.19-.22.44-.4.73-.52.3-.12.63-.18 1-.18.5 0 .89.12 1.19.35.29.24.44.56.44.97 0 .25-.05.5-.17.73s-.32.5-.64.8l-1.67 1.64h2.71zm36.83-1.93c.27.25.4.58.4.98 0 .28-.07.53-.2.75-.13.22-.34.39-.6.51s-.59.19-.97.19c-.36 0-.69-.06-1-.17-.32-.11-.57-.27-.76-.46l.25-.4c.16.17.38.3.65.41.27.1.56.16.87.16.4 0 .71-.09.93-.26s.33-.42.33-.72-.11-.54-.33-.71-.55-.26-.99-.26h-.35v-.37l1.36-1.7h-2.51v-.45h3.15v.36l-1.39 1.74c.5.01.89.15 1.16.4zm39.4 1.09h-.98v1.29h-.5v-1.29h-2.76v-.36l2.6-3.25h.56l-2.5 3.16h2.13v-1.13h.49v1.13h.98v.45z"/><path d="M182.5 59.72v4.9h-.5v-4.45h-1.15v-.45h1.65zm39.81 4.45v.45h-3.44v-.36l2.04-1.99c.26-.25.43-.47.52-.66.09-.18.14-.37.14-.56 0-.29-.1-.51-.3-.67s-.48-.24-.85-.24c-.57 0-1.02.18-1.34.55l-.36-.31c.19-.22.43-.4.73-.52s.63-.18 1-.18c.5 0 .9.12 1.19.35.29.24.44.56.44.97 0 .25-.05.5-.17.73-.11.23-.32.5-.64.8l-1.67 1.64h2.71zm36.84-1.94c.27.25.4.58.4.98 0 .28-.07.53-.2.75-.14.22-.34.39-.6.51-.27.13-.59.19-.97.19a3 3 0 01-1-.17c-.31-.11-.57-.27-.76-.46l.25-.4c.16.17.38.3.65.41.27.1.56.16.87.16.4 0 .71-.09.93-.26.22-.17.33-.42.33-.72s-.11-.54-.33-.71c-.22-.17-.55-.26-.99-.26h-.35v-.37l1.36-1.7h-2.51v-.45h3.15v.36l-1.39 1.74c.5.01.89.15 1.16.4zm39.39 1.1h-.98v1.29h-.5v-1.29h-2.77v-.36l2.6-3.25h.56l-2.51 3.16h2.13v-1.13h.49v1.13h.98v.45zm35.21-1.22c.32.25.49.61.49 1.07 0 .29-.07.54-.2.76-.13.22-.33.4-.6.53-.27.13-.59.19-.98.19-.35 0-.68-.06-1-.17-.31-.11-.57-.27-.76-.46l.25-.4c.16.17.38.3.64.41.27.1.55.16.86.16.41 0 .72-.09.94-.27.22-.18.33-.42.33-.73 0-.34-.12-.59-.37-.76-.25-.17-.67-.26-1.26-.26h-1.04l.25-2.46h2.68v.45h-2.24l-.17 1.56h.63c.71 0 1.22.12 1.55.38zm38.68-.24c.25.12.44.29.58.51s.21.48.21.77c0 .3-.07.56-.22.79s-.34.4-.6.53c-.25.12-.54.19-.86.19-.65 0-1.15-.21-1.49-.64-.34-.43-.52-1.03-.52-1.81 0-.55.09-1.01.28-1.39s.45-.66.78-.86c.34-.19.73-.29 1.18-.29.49 0 .87.09 1.16.27l-.2.41c-.23-.15-.55-.23-.95-.23-.54 0-.97.17-1.27.51-.31.34-.46.84-.46 1.49 0 .12.01.25.02.4.12-.27.31-.47.58-.62.27-.15.57-.22.92-.22.33 0 .61.06.86.19zm-.03 2.07c.22-.19.33-.45.33-.77s-.11-.58-.33-.77-.52-.29-.9-.29c-.25 0-.47.05-.65.14-.19.09-.34.22-.45.38-.11.16-.16.35-.16.55 0 .19.05.36.15.52.1.16.25.29.44.38.2.1.43.15.7.15.36 0 .64-.1.87-.29z" fill="#afafaf"/></g></svg>