<svg version="1.1" id="Layer_1" xmlns="http://www.w3.org/2000/svg" x="0" y="0" viewBox="0 0 130.72 109.21" xml:space="preserve"><style>.st1{enable-background:new}.st2{fill:#fff}</style><g id="Layer_2_1_"><path d="M109.46 76.17c6.39-16.17-15.08-41.24-41-51.51s-46.6-1.85-53 14.34 2.87 36.4 28.82 46.67 58.78 6.68 65.18-9.5" fill="#158e9b"/><g class="st1"><path class="st2" d="M26.34 49.99h1.33v2.56c-.34.26-.74.46-1.19.59-.45.14-.9.21-1.36.21-.65 0-1.24-.14-1.76-.42s-.93-.67-1.23-1.16-.45-1.05-.45-1.68.15-1.18.45-1.68c.3-.5.71-.88 1.24-1.16s1.12-.42 1.78-.42c.55 0 1.05.09 1.5.28s.83.46 1.13.81l-.94.86c-.45-.47-.99-.71-1.63-.71-.4 0-.76.08-1.07.25s-.56.41-.73.71-.26.66-.26 1.05.09.74.26 1.04c.17.31.42.54.72.72s.66.26 1.06.26c.42 0 .8-.09 1.13-.27v-1.84h.02z"/></g><g class="st1"><path class="st2" d="M33.9 52.07v1.17h-4.88v-6.3h4.76v1.17h-3.31v1.37h2.93v1.13h-2.93v1.46h3.43z"/></g><g class="st1"><path class="st2" d="M41.03 46.94l-2.73 6.3h-1.44l-2.72-6.3h1.58l1.92 4.5 1.94-4.5h1.45z"/></g><g class="st1"><path class="st2" d="M42.76 52.92c-.52-.28-.94-.67-1.23-1.17s-.45-1.05-.45-1.67.15-1.17.45-1.67.71-.88 1.23-1.17c.53-.28 1.11-.42 1.77-.42.65 0 1.24.14 1.76.42a3.167 3.167 0 011.68 2.84c0 .62-.15 1.17-.45 1.67s-.71.88-1.23 1.17c-.52.28-1.11.42-1.76.42-.66.01-1.25-.13-1.77-.42zm2.78-1.07c.3-.17.54-.41.71-.72s.26-.65.26-1.04-.09-.74-.26-1.04c-.17-.31-.41-.54-.71-.71s-.64-.26-1.01-.26-.71.09-1.01.26-.54.41-.71.71c-.17.31-.26.65-.26 1.04s.09.74.26 1.04c.17.31.41.54.71.72.3.17.64.26 1.01.26s.71-.09 1.01-.26zm6.71 1.3c-.47-.13-.84-.31-1.12-.53l.5-1.1c.27.2.59.36.96.48s.74.18 1.12.18c.41 0 .72-.06.92-.18.2-.12.3-.29.3-.49 0-.15-.06-.27-.18-.37s-.27-.18-.45-.24-.43-.13-.74-.2c-.48-.11-.87-.23-1.18-.34s-.57-.3-.79-.55-.33-.59-.33-1.01c0-.37.1-.7.3-.99.2-.3.5-.53.9-.71.4-.17.89-.26 1.46-.26.4 0 .79.05 1.18.14.38.1.72.23 1.01.41l-.45 1.11c-.58-.33-1.16-.5-1.75-.5-.41 0-.71.07-.9.2-.2.13-.29.31-.29.52 0 .22.11.38.34.48s.57.21 1.03.31c.48.11.87.23 1.18.34s.57.29.79.54.33.58.33 1c0 .36-.1.69-.3.99s-.5.53-.9.71c-.4.17-.89.26-1.47.26-.53 0-1.01-.07-1.47-.2zm8.69-4.29c.4.36.6.9.6 1.62v2.76h-1.31v-.6c-.26.45-.76.67-1.48.67-.37 0-.69-.06-.97-.19s-.48-.3-.63-.52c-.14-.22-.22-.47-.22-.76 0-.45.17-.8.51-1.06s.86-.39 1.57-.39h1.12c0-.31-.09-.54-.28-.71s-.46-.25-.84-.25c-.26 0-.51.04-.76.12s-.46.19-.63.33l-.5-.98c.26-.19.58-.33.95-.43s.75-.15 1.14-.15c.76.01 1.33.18 1.73.54zm-1.19 3.34c.19-.11.32-.28.4-.49v-.5h-.96c-.58 0-.86.19-.86.57 0 .18.07.32.21.43.14.1.33.16.58.16.23 0 .44-.06.63-.17zm.01-5.72h1.51l-1.63 1.3h-1.1l1.22-1.3zm7.04 5.68v1.08h-4.32v-.85l2.47-2.92h-2.4V48.4h4.18v.85l-2.47 2.92 2.54-.01z"/></g><g class="st1"><path class="st2" d="M71.39 48.86c.4.36.6.9.6 1.62v2.76h-1.31v-.6c-.26.45-.76.67-1.48.67-.37 0-.7-.06-.97-.19s-.48-.3-.63-.52c-.14-.22-.22-.47-.22-.76 0-.45.17-.8.51-1.06s.86-.39 1.57-.39h1.12c0-.31-.09-.54-.28-.71s-.46-.25-.84-.25c-.26 0-.51.04-.76.12s-.46.19-.63.33l-.5-.98c.26-.19.58-.33.95-.43.37-.1.75-.15 1.14-.15.75.01 1.33.18 1.73.54zm-1.2 3.34c.19-.11.32-.28.4-.49v-.5h-.96c-.58 0-.86.19-.86.57 0 .18.07.32.21.43.14.1.33.16.58.16.23 0 .45-.06.63-.17z"/></g><g class="st1"><path class="st2" d="M77.97 48.4l-2.04 4.84h-1.45l-2.03-4.84h1.45l1.34 3.29 1.39-3.29h1.34z"/></g><g class="st1"><path class="st2" d="M78.93 53.16c-.38-.1-.69-.22-.92-.37l.47-1.01c.22.14.48.25.78.34s.61.13.9.13c.59 0 .89-.15.89-.44 0-.14-.08-.24-.24-.3-.16-.06-.41-.11-.75-.15-.4-.06-.72-.13-.98-.21s-.48-.22-.67-.41c-.19-.2-.28-.48-.28-.85 0-.31.09-.58.27-.81.18-.24.43-.42.77-.55s.74-.2 1.2-.2c.34 0 .68.04 1.02.11.34.08.62.18.84.31l-.47 1c-.43-.24-.89-.36-1.39-.36-.3 0-.53.04-.68.13-.15.08-.22.19-.22.32 0 .15.08.26.24.32s.42.12.77.17c.4.07.72.14.97.21s.47.21.66.41.28.47.28.83c0 .3-.09.57-.27.8s-.44.42-.79.54c-.34.13-.75.19-1.23.19-.39 0-.79-.05-1.17-.15z"/></g><g class="st1"><path class="st2" d="M85.34 51.34l-.67.67v1.23h-1.4v-6.68h1.4v3.78l2.05-1.94h1.67l-2.02 2.05 2.2 2.79h-1.7l-1.53-1.9z"/></g><g class="st1"><path class="st2" d="M92.79 48.86c.4.36.6.9.6 1.62v2.76h-1.31v-.6c-.26.45-.76.67-1.48.67-.37 0-.7-.06-.97-.19s-.48-.3-.63-.52c-.14-.22-.22-.47-.22-.76 0-.45.17-.8.51-1.06s.86-.39 1.57-.39h1.12c0-.31-.09-.54-.28-.71s-.46-.25-.84-.25c-.26 0-.51.04-.76.12s-.46.19-.63.33l-.5-.98c.26-.19.58-.33.95-.43.37-.1.75-.15 1.14-.15.75.01 1.33.18 1.73.54zm-1.2 3.34c.19-.11.32-.28.4-.49v-.5h-.96c-.58 0-.86.19-.86.57 0 .18.07.32.21.43.14.1.33.16.58.16.23 0 .45-.06.63-.17zm.01-5.72h1.51l-1.63 1.3h-1.1l1.22-1.3z"/></g></g><path class="st2" d="M29.27 61.06c.24.29.35.65.35 1.06 0 .41-.11.76-.33 1.07-.22.3-.53.54-.94.7-.41.16-.89.24-1.44.24-.84 0-1.5-.18-1.98-.54-.48-.36-.72-.85-.72-1.47 0-.42.12-.77.35-1.06s.56-.51 1-.66c-.36-.14-.63-.34-.82-.61-.19-.26-.28-.57-.28-.93 0-.57.22-1.02.67-1.35.44-.33 1.04-.5 1.79-.5.49 0 .92.07 1.29.22s.66.37.86.64c.21.28.31.61.31.98 0 .36-.1.67-.29.93-.19.26-.47.47-.83.61.44.16.78.38 1.01.67zm-.91 2.08c.35-.25.53-.6.53-1.03s-.18-.78-.53-1.03c-.35-.25-.83-.38-1.45-.38-.61 0-1.1.12-1.45.38s-.52.59-.52 1.03c0 .44.17.79.52 1.04s.83.38 1.45.38c.62-.01 1.11-.13 1.45-.39zm-2.72-3.34c.31.23.73.34 1.27.34s.96-.11 1.27-.34.46-.53.46-.91c0-.39-.16-.7-.48-.93-.32-.23-.74-.34-1.26-.34-.53 0-.96.11-1.27.34-.31.23-.46.53-.46.92.01.39.16.7.47.92zm5.07 1.25h2.62v.62h-2.62v-.62zm8.51-2.24l-2.63 5.89c-.21.49-.46.84-.74 1.05-.28.21-.62.31-1.01.31-.25 0-.49-.04-.71-.12-.22-.08-.41-.2-.57-.36l.33-.53c.27.27.59.4.96.4.24 0 .44-.07.61-.2.17-.13.33-.36.48-.68l.23-.51-2.35-5.25h.74l1.98 4.47 1.98-4.47h.7zm5.43 2.85h-4.4c.04.55.25.99.63 1.33.38.34.86.5 1.44.5.33 0 .63-.06.9-.17.27-.12.51-.29.71-.51l.4.46c-.23.28-.52.49-.88.64-.35.15-.73.22-1.15.22-.54 0-1.02-.12-1.44-.34-.42-.23-.74-.55-.98-.96s-.35-.87-.35-1.38.11-.97.33-1.38c.22-.41.53-.72.92-.95.39-.23.83-.34 1.31-.34.49 0 .92.11 1.31.34s.69.54.91.95.33.86.33 1.38l.01.21zm-3.82-1.79c-.34.32-.54.75-.58 1.26h3.73c-.05-.52-.24-.94-.58-1.26s-.77-.49-1.29-.49c-.51 0-.93.16-1.28.49zm8.55-.58c.37.34.55.85.55 1.53v3.26h-.68v-.82c-.16.27-.4.49-.7.64-.31.15-.68.23-1.1.23-.59 0-1.05-.14-1.4-.42s-.52-.65-.52-1.11c0-.45.16-.81.49-1.08.32-.27.84-.41 1.54-.41h1.67v-.32c0-.45-.13-.8-.38-1.04s-.62-.35-1.11-.35c-.33 0-.65.05-.96.17-.31.11-.57.26-.79.46l-.32-.53c.27-.23.59-.4.96-.53.37-.12.77-.18 1.18-.18.68-.02 1.2.15 1.57.5zm-.8 4c.29-.18.5-.45.64-.79v-.86h-1.65c-.9 0-1.35.31-1.35.94 0 .31.12.55.35.72.23.18.56.27.98.27.4-.01.74-.1 1.03-.28zm4.7-4.25c.33-.18.74-.27 1.23-.27v.69l-.17-.01c-.55 0-.99.17-1.3.51-.31.34-.47.82-.47 1.43v2.68h-.71v-5.26h.68v1.03c.17-.35.41-.62.74-.8zm5.39 4.9c-.39-.12-.7-.28-.92-.46l.32-.56c.22.17.5.32.83.42.33.11.68.17 1.04.17.48 0 .83-.07 1.06-.22s.35-.36.35-.63c0-.19-.06-.35-.19-.46-.13-.11-.29-.19-.48-.25-.2-.06-.45-.11-.77-.17-.43-.08-.77-.16-1.03-.25s-.48-.22-.67-.42c-.18-.2-.27-.48-.27-.83 0-.44.18-.8.55-1.08.37-.28.88-.42 1.53-.42.34 0 .68.04 1.02.13s.62.21.84.36l-.31.57c-.43-.3-.95-.45-1.55-.45-.46 0-.79.08-1.03.24s-.35.37-.35.63c0 .2.06.36.2.48s.29.21.48.26.46.12.8.17c.42.08.76.16 1.01.24s.47.22.65.41.27.46.27.8c0 .46-.19.83-.57 1.09-.38.27-.92.41-1.6.41-.41 0-.81-.06-1.21-.18zm7.48-.19c-.13.12-.3.21-.5.28-.2.06-.4.09-.61.09-.49 0-.87-.13-1.14-.4s-.4-.64-.4-1.13v-3.18h-.94v-.6h.94v-1.15h.71v1.15h1.6v.6h-1.6v3.14c0 .31.08.55.23.71.16.16.38.25.68.25.15 0 .29-.02.42-.07s.25-.11.35-.2l.26.51zm6.03-4.94v5.26h-.68v-.96c-.19.32-.44.57-.77.75-.33.18-.7.26-1.12.26-.69 0-1.23-.19-1.62-.58-.4-.38-.59-.94-.59-1.68v-3.05h.71v2.98c0 .55.14.97.41 1.26.27.29.66.43 1.17.43.55 0 .99-.17 1.31-.5s.48-.81.48-1.41v-2.76h.7zm6.79-2.16v7.42h-.68v-1.04c-.21.35-.5.62-.85.81-.35.19-.75.28-1.18.28-.49 0-.94-.11-1.34-.34-.4-.23-.71-.54-.94-.95-.23-.41-.34-.87-.34-1.39 0-.52.11-.98.34-1.39.23-.41.54-.72.94-.95.4-.22.85-.33 1.34-.33.43 0 .81.09 1.16.26.34.18.62.44.84.78v-3.16h.71zm-1.66 6.59c.3-.17.53-.41.7-.72s.25-.67.25-1.07-.08-.76-.25-1.07-.4-.55-.7-.72-.63-.25-1-.25-.71.08-1 .25-.53.41-.7.72c-.17.31-.25.67-.25 1.07s.08.76.25 1.07c.17.31.4.55.7.72s.63.25 1 .25c.38 0 .71-.08 1-.25zm3.63-5.73a.491.491 0 010-.71c.1-.1.22-.15.37-.15s.27.05.37.15a.497.497 0 010 .71c-.1.1-.22.15-.37.15s-.27-.05-.37-.15zm.01 1.3h.71v5.26h-.71v-5.26zm7.27 2.85h-4.4c.04.55.25.99.63 1.33s.86.5 1.44.5c.33 0 .63-.06.9-.17s.51-.29.71-.51l.4.46c-.23.28-.53.49-.88.64-.35.15-.74.22-1.16.22-.54 0-1.02-.12-1.43-.34-.42-.23-.74-.55-.98-.96s-.35-.87-.35-1.38.11-.97.33-1.38c.22-.41.53-.72.92-.95.39-.23.83-.34 1.32-.34.49 0 .92.11 1.31.34s.69.54.91.95.33.86.33 1.38v.21zm-3.82-1.79c-.34.32-.54.75-.58 1.26h3.73c-.05-.52-.24-.94-.58-1.26-.34-.32-.77-.49-1.29-.49-.51 0-.93.16-1.28.49zm5.46 4.07a2.82 2.82 0 01-.92-.46l.32-.56c.22.17.5.32.83.42.33.11.68.17 1.04.17.48 0 .83-.07 1.06-.22.23-.15.35-.36.35-.63 0-.19-.06-.35-.19-.46-.13-.11-.29-.19-.48-.25s-.45-.11-.77-.17c-.43-.08-.77-.16-1.03-.25-.26-.08-.48-.22-.67-.42-.18-.2-.27-.48-.27-.83 0-.44.18-.8.55-1.08.37-.28.88-.42 1.53-.42.34 0 .68.04 1.02.13s.62.21.84.36l-.31.57c-.43-.3-.95-.45-1.55-.45-.45 0-.79.08-1.03.24a.73.73 0 00-.34.63c0 .2.06.36.2.48.13.12.29.21.48.26s.46.12.8.17c.42.08.76.16 1.01.24.25.08.47.22.65.41.18.19.27.46.27.8 0 .46-.19.83-.58 1.09-.38.27-.92.41-1.59.41-.42 0-.83-.06-1.22-.18z"/></svg>