<svg xmlns="http://www.w3.org/2000/svg" viewBox="0 0 139.92 44.88"><path d="M136.55 44.88H3.37C1.51 44.88 0 43.37 0 41.51V3.37C0 1.51 1.51 0 3.37 0h133.18c1.86 0 3.37 1.51 3.37 3.37v38.14c0 1.86-1.51 3.37-3.37 3.37z" fill="#d5fd18"/><path d="M25.86 21.09l1.35-1.62c.57.76 1.2 1.15 1.95 1.15.97 0 1.48-.58 1.48-1.74v-5h-3.69v-1.95h6.1v6.81c0 2.6-1.3 3.87-3.78 3.87-1.4.01-2.65-.53-3.41-1.52zm9.15-9.15c0-.73.58-1.31 1.46-1.31s1.46.54 1.46 1.26c0 .78-.58 1.35-1.46 1.35s-1.46-.56-1.46-1.3zm.28 2.43h2.34v8.07h-2.34v-8.07zm11.16 6.27v1.8h-7.2v-1.41l4.11-4.86h-4v-1.8h6.96v1.41l-4.11 4.86h4.24zm-4.63-7.3l-1.98-2.16h1.71l1.3 1.12 1.3-1.12h1.71l-1.98 2.16h-2.06zm14.38 4.48v4.62h-2.34v-4.26c0-1.31-.6-1.9-1.63-1.9-1.12 0-1.93.69-1.93 2.17v3.99h-2.34v-8.07h2.23v.95c.63-.69 1.58-1.06 2.67-1.06 1.9-.01 3.34 1.1 3.34 3.56zm3.95-6.64h2.52l-2.71 2.16h-1.83l2.02-2.16zm-1.83 3.19h2.34v8.07h-2.34v-8.07zm18.47 8.07l-.01-6.3-3.09 5.19h-1.1l-3.07-5.05v6.16h-2.28v-10.5h2.01l3.93 6.52 3.87-6.52h2l.03 10.5h-2.29zm12.47-3.37h-6.1c.22 1 1.08 1.62 2.31 1.62.86 0 1.47-.25 2.03-.78l1.25 1.35c-.75.85-1.88 1.31-3.33 1.31-2.79 0-4.61-1.75-4.61-4.15 0-2.42 1.85-4.15 4.31-4.15 2.37 0 4.2 1.59 4.2 4.18-.02.17-.04.42-.06.62zm-5.23-5.73l-1.98-2.16h1.71l1.31 1.12 1.3-1.12h1.71l-1.98 2.16h-2.07zm-.91 4.36h3.97c-.17-1.02-.93-1.68-1.98-1.68-1.06 0-1.82.65-1.99 1.68zm6.96 3.99l.78-1.68c.72.46 1.81.78 2.8.78 1.08 0 1.49-.29 1.49-.73 0-1.32-4.88.03-4.88-3.19 0-1.53 1.38-2.61 3.73-2.61 1.11 0 2.34.25 3.11.7l-.78 1.67c-.79-.45-1.59-.6-2.33-.6-1.05 0-1.5.33-1.5.75 0 1.38 4.88.04 4.88 3.23 0 1.5-1.39 2.56-3.81 2.56-1.36-.01-2.74-.38-3.49-.88zm13.96.36c-.48.35-1.19.51-1.91.51-1.91 0-3.01-.98-3.01-2.9v-3.31h-1.25v-1.8h1.25v-1.96h2.34v1.96h2.01v1.8h-2.01v3.29c0 .69.38 1.06 1 1.06.34 0 .69-.1.94-.3l.64 1.65zm.46-3.64c0-2.43 1.87-4.15 4.44-4.15 2.56 0 4.42 1.72 4.42 4.15 0 2.43-1.86 4.15-4.42 4.15-2.57 0-4.44-1.72-4.44-4.15zm6.49 0c0-1.4-.88-2.23-2.05-2.23s-2.07.84-2.07 2.23.9 2.23 2.07 2.23 2.05-.84 2.05-2.23zM37.1 29.27h-2.27v-.41h5v.41h-2.27v5.89h-.46v-5.89zm7.19 3.65h-4.04c.04 1.12.86 1.87 1.99 1.87.59 0 1.14-.22 1.5-.66l.26.3c-.41.5-1.06.77-1.77.77-1.42 0-2.42-.99-2.42-2.39s.96-2.39 2.25-2.39 2.24.97 2.24 2.37c0 .04-.01.09-.01.13zm-4.03-.35h3.6c-.06-1.02-.8-1.75-1.8-1.75s-1.73.72-1.8 1.75zm7.66-2.14v.44c-.04 0-.07-.01-.11-.01-1.04 0-1.67.69-1.67 1.85v2.45h-.44v-4.7h.43v1.03c.28-.69.91-1.06 1.79-1.06zm5.16 2.49h-4.04c.04 1.12.86 1.87 1.99 1.87.59 0 1.14-.22 1.5-.66l.26.3c-.41.5-1.06.77-1.77.77-1.42 0-2.42-.99-2.42-2.39s.96-2.39 2.25-2.39 2.24.97 2.24 2.37c0 .04-.01.09-.01.13zm-4.03-.35h3.6c-.06-1.02-.8-1.75-1.8-1.75s-1.73.72-1.8 1.75zm7.66-2.14v.44c-.04 0-.07-.01-.11-.01-1.04 0-1.67.69-1.67 1.85v2.45h-.45v-4.7h.43v1.03c.3-.69.92-1.06 1.8-1.06zm.68 2.38c0-1.4 1-2.39 2.35-2.39s2.35.99 2.35 2.39-1 2.39-2.35 2.39-2.35-.99-2.35-2.39zm4.25 0c0-1.18-.81-1.98-1.89-1.98-1.08 0-1.89.8-1.89 1.98s.81 1.98 1.89 1.98c1.08 0 1.89-.8 1.89-1.98zm5.48-2.35L65 35.16h-.46l-2.12-4.7h.48l1.87 4.2 1.89-4.2h.46zm4.24 1.72v2.98h-.43v-.84c-.3.54-.87.87-1.69.87-1.05 0-1.69-.54-1.69-1.34 0-.71.45-1.31 1.76-1.31h1.61v-.38c0-.87-.48-1.34-1.4-1.34-.65 0-1.23.24-1.62.59l-.23-.32c.47-.41 1.15-.67 1.88-.67 1.16.01 1.81.6 1.81 1.76zm-.45 1.6v-.88h-1.6c-.97 0-1.31.4-1.31.95 0 .61.48.99 1.31.99.78-.01 1.33-.39 1.6-1.06zm8.36.97v.41h-4.33v-.32l2.67-2.65c.75-.75.89-1.19.89-1.67 0-.79-.55-1.29-1.59-1.29-.79 0-1.38.23-1.81.73l-.32-.29c.48-.55 1.22-.86 2.17-.86 1.23 0 2.03.64 2.03 1.67 0 .6-.2 1.13-1.03 1.95l-2.32 2.31h3.64zm2.44-5.89v6.3h-.46v-5.89h-1.54v-.41h2zm5.65 4.53c0 1.04-.76 1.82-2.21 1.82-.93 0-1.78-.34-2.22-.85l.23-.35c.39.44 1.12.77 1.99.77 1.13 0 1.74-.54 1.74-1.4 0-.85-.58-1.4-1.84-1.4h-.4v-.33l1.86-2.39h-3.36v-.41h3.95v.32l-1.89 2.42c1.44.05 2.15.77 2.15 1.8zm5.04-.05c0 1.05-.73 1.86-2.21 1.86-.92 0-1.77-.34-2.21-.85l.23-.35c.38.44 1.13.77 1.97.77 1.16 0 1.76-.59 1.76-1.42 0-.9-.55-1.45-2.26-1.45H88.4l.33-3.05h3.34v.41h-2.95l-.24 2.22h.9c1.92.02 2.62.75 2.62 1.86zm3.13-5.76h.41l-2.97 8.48h-.41l2.97-8.48zm2.46 1.28v6.3h-.46v-5.89H96v-.41h1.99zm5.93 0v.32l-2.71 5.98h-.5l2.68-5.89h-3.54v1.21h-.45v-1.62h4.52z" fill="#231f20"/></svg>