<svg xmlns="http://www.w3.org/2000/svg" viewBox="0 0 139.92 44.88"><path d="M136.55 44.88H3.37C1.51 44.88 0 43.37 0 41.51V3.37C0 1.51 1.51 0 3.37 0h133.18c1.86 0 3.37 1.51 3.37 3.37v38.14c0 1.86-1.51 3.37-3.37 3.37z" fill="#1c6d79"/><path d="M34.48 21.58l.83-1.83c.88.65 2.2 1.09 3.46 1.09 1.44 0 2.02-.48 2.02-1.12 0-1.96-6.1-.61-6.1-4.51 0-1.79 1.44-3.27 4.42-3.27 1.32 0 2.67.31 3.65.93l-.75 1.84c-.98-.55-1.98-.82-2.91-.82-1.44 0-1.99.54-1.99 1.2 0 1.94 6.1.6 6.1 4.46 0 1.75-1.45 3.25-4.45 3.25-1.67 0-3.35-.5-4.28-1.22zm17.37-3.57v4.6h-2.19v-1c-.44.73-1.27 1.12-2.46 1.12-1.89 0-3.01-1.05-3.01-2.44 0-1.43 1-2.42 3.46-2.42h1.86c0-1-.6-1.59-1.86-1.59-.85 0-1.74.28-2.33.75l-.84-1.64c.88-.63 2.19-.97 3.48-.97 2.47.01 3.89 1.15 3.89 3.59zm-2.34 2.06v-.83h-1.6c-1.1 0-1.44.41-1.44.95 0 .58.5.97 1.32.97.77 0 1.45-.36 1.72-1.09zm-.84-6.55h-1.83l2.02-2.16h2.52l-2.71 2.16zm11.94 7.3v1.8h-7.2v-1.41l4.11-4.86h-4v-1.8h6.96v1.41l-4.11 4.86h4.24zm8.64-2.81v4.6h-2.19v-1c-.44.73-1.27 1.12-2.46 1.12-1.89 0-3.01-1.05-3.01-2.44 0-1.43 1-2.42 3.46-2.42h1.86c0-1-.6-1.59-1.86-1.59-.85 0-1.74.28-2.33.75l-.84-1.64c.88-.63 2.19-.97 3.48-.97 2.47.01 3.89 1.15 3.89 3.59zm-2.34 2.06v-.83h-1.6c-1.1 0-1.44.41-1.44.95 0 .58.5.97 1.32.97.77 0 1.45-.36 1.72-1.09zm12.32-5.52l-3.41 8.07H73.4l-3.39-8.07h2.42l2.23 5.49 2.31-5.49h2.26zm.06 7.32l.78-1.68c.72.46 1.81.78 2.8.78 1.08 0 1.48-.29 1.48-.73 0-1.32-4.87.03-4.87-3.19 0-1.53 1.38-2.61 3.73-2.61 1.11 0 2.34.25 3.11.7l-.78 1.67c-.79-.45-1.59-.6-2.33-.6-1.05 0-1.5.33-1.5.75 0 1.38 4.88.04 4.88 3.23 0 1.5-1.39 2.56-3.81 2.56-1.36-.01-2.74-.39-3.49-.88zm12.21-2.42l-1.12 1.11v2.05h-2.34V11.49h2.34v6.3l3.42-3.24h2.79l-3.36 3.42 3.66 4.65h-2.83l-2.56-3.17zm13.42-1.44v4.6h-2.19v-1c-.43.73-1.27 1.12-2.46 1.12-1.89 0-3.02-1.05-3.02-2.44 0-1.43 1-2.42 3.46-2.42h1.86c0-1-.6-1.59-1.86-1.59-.85 0-1.74.28-2.32.75l-.84-1.64c.89-.63 2.19-.97 3.48-.97 2.47.01 3.89 1.15 3.89 3.59zm-2.34 2.06v-.83h-1.61c-1.09 0-1.44.41-1.44.95 0 .58.5.97 1.32.97.78 0 1.46-.36 1.73-1.09zm-.84-6.55h-1.83l2.02-2.16h2.52l-2.71 2.16zM37.26 34.35l.21-.34c.43.45 1.23.79 2.08.79 1.26 0 1.82-.55 1.82-1.23 0-1.89-3.93-.76-3.93-3.08 0-.89.68-1.67 2.23-1.67.69 0 1.41.22 1.9.57l-.17.37c-.52-.36-1.16-.53-1.73-.53-1.22 0-1.77.57-1.77 1.26 0 1.89 3.93.77 3.93 3.06 0 .89-.71 1.67-2.27 1.67-.95-.01-1.85-.36-2.3-.87zm9.37-2.17v2.98h-.43v-.84c-.3.54-.87.87-1.69.87-1.05 0-1.69-.54-1.69-1.34 0-.71.45-1.31 1.76-1.31h1.61v-.38c0-.87-.48-1.34-1.4-1.34-.65 0-1.23.24-1.62.59l-.23-.32c.47-.41 1.15-.67 1.88-.67 1.16.01 1.81.6 1.81 1.76zm-.45 1.6v-.88h-1.6c-.97 0-1.31.4-1.31.95 0 .61.48.99 1.31.99.78-.01 1.33-.39 1.6-1.06zm-1.41-4.08h-.49l1.25-1.06h.65l-1.41 1.06zm6.89 5.07v.39h-3.74v-.31l3.1-4.01h-3.05v-.39h3.64v.31l-3.11 4.01h3.16zm4.74-2.59v2.98h-.43v-.84c-.3.54-.87.87-1.69.87-1.05 0-1.69-.54-1.69-1.34 0-.71.45-1.31 1.76-1.31h1.61v-.38c0-.87-.48-1.34-1.4-1.34-.65 0-1.23.24-1.62.59l-.23-.32c.47-.41 1.15-.67 1.88-.67 1.16.01 1.81.6 1.81 1.76zm-.45 1.6v-.88h-1.6c-.97 0-1.31.4-1.31.95 0 .61.48.99 1.31.99.78-.01 1.33-.39 1.6-1.06zm5.98-3.32l-2.12 4.7h-.46l-2.12-4.7h.48l1.87 4.2 1.89-4.2h.46zm.24 4.13l.21-.36c.36.31 1 .57 1.69.57.99 0 1.39-.35 1.39-.88 0-1.37-3.11-.36-3.11-2.21 0-.71.59-1.29 1.78-1.29.59 0 1.24.18 1.61.46l-.21.36c-.4-.29-.91-.42-1.41-.42-.92 0-1.32.38-1.32.88 0 1.41 3.11.41 3.11 2.21 0 .77-.66 1.29-1.85 1.29-.79 0-1.52-.26-1.89-.61zm6.67-1.94l-1.22 1.12v1.4h-.45v-6.68h.45v4.73l3.01-2.75h.58l-2.03 1.9 2.22 2.8h-.56l-2-2.52zm6.92-.47v2.98h-.43v-.84c-.3.54-.87.87-1.69.87-1.05 0-1.69-.54-1.69-1.34 0-.71.45-1.31 1.76-1.31h1.61v-.38c0-.87-.48-1.34-1.4-1.34-.65 0-1.23.24-1.62.59l-.22-.32c.47-.41 1.15-.67 1.88-.67 1.15.01 1.8.6 1.8 1.76zm-.45 1.6v-.88h-1.6c-.97 0-1.31.4-1.31.95 0 .61.48.99 1.31.99.78-.01 1.33-.39 1.6-1.06zM73.9 29.7h-.49l1.25-1.06h.65L73.9 29.7zm10.3 3.73c0 1.1-.91 1.77-2.39 1.77s-2.38-.68-2.38-1.77c0-.79.49-1.34 1.34-1.57-.72-.23-1.12-.73-1.12-1.42 0-1.01.85-1.63 2.15-1.63s2.17.62 2.17 1.63c0 .69-.41 1.19-1.13 1.42.87.23 1.36.79 1.36 1.57zm-.46 0c0-.84-.72-1.37-1.94-1.37s-1.92.53-1.92 1.37c0 .85.7 1.38 1.92 1.38s1.94-.53 1.94-1.38zm-1.93-1.74c1.07 0 1.71-.48 1.71-1.22 0-.77-.67-1.25-1.71-1.25s-1.69.48-1.69 1.24c-.01.75.61 1.23 1.69 1.23zm7.39 1.7c0 1.04-.76 1.82-2.21 1.82-.93 0-1.78-.34-2.22-.85l.23-.35c.39.44 1.12.77 1.99.77 1.13 0 1.74-.54 1.74-1.4 0-.85-.58-1.4-1.84-1.4h-.4v-.33l1.86-2.39h-3.36v-.41h3.95v.32l-1.89 2.42c1.45.05 2.15.77 2.15 1.8zm.97-1.38c0-1.97 1.02-3.2 2.47-3.2s2.47 1.22 2.47 3.2-1.02 3.2-2.47 3.2-2.47-1.23-2.47-3.2zm4.48 0c0-1.76-.82-2.77-2.01-2.77s-2.01 1.02-2.01 2.77.82 2.77 2.01 2.77 2.01-1.01 2.01-2.77zm3.54-4.43h.41l-2.97 8.48h-.41l2.97-8.48zm4.77 5.76c0 1.05-.73 1.86-2.21 1.86-.92 0-1.77-.34-2.21-.85l.23-.35c.38.44 1.13.77 1.97.77 1.16 0 1.76-.59 1.76-1.42 0-.9-.55-1.45-2.26-1.45h-1.28l.33-3.05h3.34v.41h-2.95l-.24 2.22h.9c1.91.02 2.62.75 2.62 1.86z" fill="#fff"/></svg>