<svg id="Layer_1" data-name="Layer 1" xmlns="http://www.w3.org/2000/svg" viewBox="0 0 422.29 142.27"><defs><style>.cls-2{fill:#ddd}.cls-6{fill:#e66da3}.cls-7{fill:#fff}</style></defs><rect x="88.52" y="20.65" width="301.96" height="26.16" rx="6.52" fill="#158e9b"/><rect class="cls-2" x="88.66" y="55.87" width="301.96" height="26.16" rx="6.52"/><rect class="cls-2" x="88.52" y="91.1" width="301.96" height="26.16" rx="6.52"/><path d="M165.58 55.87h218.58a6.52 6.52 0 016.52 6.52v13.12a6.52 6.52 0 01-6.52 6.49H166.47a2.31 2.31 0 01-2.31-2.31V57.3a1.43 1.43 0 011.42-1.43z" fill="#e9f403"/><path d="M241.53 91.1h142.63a6.52 6.52 0 016.52 6.52v13.12a6.52 6.52 0 01-6.52 6.52H241.84a2.33 2.33 0 01-2.33-2.33V93.12a2 2 0 012.02-2.02z" fill="#d5ed26"/><path d="M126.17 16.73v114.69M163.83 18.6v114.69m37.74-117.5v114.7m37.65-112.83v114.7m38.32-112.83v114.7m37.65-112.82V136.1m37.74-117.5v114.69" fill="none" stroke="#fff" stroke-miterlimit="10" stroke-width=".25"/><path class="cls-6" d="M318.2 69h69.28a3.2 3.2 0 013.2 3.2v3a6.84 6.84 0 01-6.85 6.8H315v-9.85a3.2 3.2 0 013.2-3.15z"/><path class="cls-7" d="M332 72.69v6.06h-.78v-6.06zm1.38.08a7.68 7.68 0 011.43-.13 2.55 2.55 0 011.67.44 1.3 1.3 0 01.5 1.07 1.44 1.44 0 01-1 1.34 1.58 1.58 0 011.23 1.51 1.62 1.62 0 01-.52 1.21 3 3 0 01-2.09.57 10.52 10.52 0 01-1.22-.07zm.78 2.48h.72c.82 0 1.31-.43 1.31-1s-.54-1-1.33-1a3.14 3.14 0 00-.7.06zm0 2.91a3.85 3.85 0 00.66 0c.81 0 1.56-.3 1.56-1.18s-.71-1.17-1.57-1.17h-.65zm35.24-5.47v6.06h-.79v-6.06zm1.37.08a7.68 7.68 0 011.43-.13 2.54 2.54 0 011.66.44 1.28 1.28 0 01.51 1.07 1.45 1.45 0 01-1 1.34 1.57 1.57 0 011.22 1.51 1.65 1.65 0 01-.51 1.21 3.05 3.05 0 01-2.1.57 10.31 10.31 0 01-1.21-.07zm.78 2.48h.71c.83 0 1.31-.43 1.31-1s-.54-1-1.33-1a3 3 0 00-.69.06zm0 2.91a3.78 3.78 0 00.66 0c.81 0 1.55-.3 1.55-1.18s-.71-1.17-1.56-1.17h-.65z"/><path class="cls-6" d="M318.2 33.73h69.28a3.2 3.2 0 013.2 3.2v3a6.84 6.84 0 01-6.84 6.84H315v-9.84a3.2 3.2 0 013.2-3.2zm0 70.45h69.28a3.2 3.2 0 013.2 3.2v3a6.84 6.84 0 01-6.84 6.84H315v-9.88a3.2 3.2 0 013.2-3.2z"/><path class="cls-7" d="M332 37.46v6.07h-.78v-6.07zm1.38.08a7.68 7.68 0 011.43-.13 2.49 2.49 0 011.67.45 1.27 1.27 0 01.5 1.07 1.43 1.43 0 01-1 1.33 1.56 1.56 0 011.25 1.52 1.64 1.64 0 01-.52 1.22 3.06 3.06 0 01-2.09.56 8.65 8.65 0 01-1.22-.07zm.78 2.49h.72c.82 0 1.31-.44 1.31-1s-.54-1-1.33-1a4.26 4.26 0 00-.7 0zm0 2.9a3.85 3.85 0 00.66 0c.81 0 1.56-.3 1.56-1.18s-.71-1.17-1.57-1.17h-.65zm35.24-5.47v6.07h-.79v-6.07zm1.37.08a7.68 7.68 0 011.43-.13 2.48 2.48 0 011.66.45 1.25 1.25 0 01.51 1.07 1.44 1.44 0 01-1 1.33 1.55 1.55 0 011.25 1.52 1.68 1.68 0 01-.51 1.22 3.11 3.11 0 01-2.1.56 8.48 8.48 0 01-1.21-.07zm.78 2.49h.71c.83 0 1.31-.44 1.31-1s-.54-1-1.33-1a4 4 0 00-.69 0zm0 2.9a3.78 3.78 0 00.66 0c.81 0 1.55-.3 1.55-1.18s-.71-1.17-1.56-1.17h-.65zM332 108.25v6.06h-.78v-6.06zm1.38.08a6.91 6.91 0 011.43-.13 2.55 2.55 0 011.67.44 1.3 1.3 0 01.5 1.07 1.44 1.44 0 01-1 1.34 1.57 1.57 0 011.25 1.52 1.63 1.63 0 01-.52 1.22 3 3 0 01-2.09.57 10.52 10.52 0 01-1.22-.07zm.78 2.48h.72c.82 0 1.31-.43 1.31-1s-.54-1-1.33-1a3.14 3.14 0 00-.7.06zm0 2.91a4 4 0 00.66 0c.81 0 1.56-.29 1.56-1.17s-.71-1.17-1.57-1.17h-.65zm35.24-5.47v6.06h-.79v-6.06zm1.37.08a6.91 6.91 0 011.43-.13 2.54 2.54 0 011.66.44 1.28 1.28 0 01.51 1.07 1.45 1.45 0 01-1 1.34 1.56 1.56 0 011.25 1.52 1.66 1.66 0 01-.51 1.22 3.05 3.05 0 01-2.1.57 10.31 10.31 0 01-1.21-.07zm.78 2.48h.71c.83 0 1.31-.43 1.31-1s-.54-1-1.33-1a3 3 0 00-.69.06zm0 2.91a4 4 0 00.66 0c.81 0 1.55-.29 1.55-1.17s-.71-1.17-1.56-1.17h-.65zM99.28 27.11v2.31h-.56v-2.31l-1.85-3.37h.61L99 26.57l1.51-2.83h.62zm2.72 2.15a1.38 1.38 0 01-.6-.62 2.12 2.12 0 01-.21-1v-.44a2.34 2.34 0 01.2-1 1.39 1.39 0 01.58-.64 1.79 1.79 0 01.92-.23 1.7 1.7 0 01.87.22 1.44 1.44 0 01.55.64 2.4 2.4 0 01.19 1v.46h-2.93v-.5H104a1.38 1.38 0 00-.29-.93 1 1 0 00-.8-.33 1.1 1.1 0 00-.87.34 1.43 1.43 0 00-.31 1v.51a1.31 1.31 0 00.33.95 1.25 1.25 0 00.92.33 1.38 1.38 0 00.56-.12 1.33 1.33 0 00.49-.33l.38.37a2.19 2.19 0 01-.67.45 2 2 0 01-.76.15 2.06 2.06 0 01-.98-.28zm3.77-.11a1.15 1.15 0 01-.39-.93 1.12 1.12 0 01.36-.89 1.44 1.44 0 011-.31h1.35l.06.52h-1.4a.9.9 0 00-.6.18.59.59 0 00-.22.5.6.6 0 00.27.53 1.28 1.28 0 00.76.19 2.5 2.5 0 00.81-.1c.19-.07.29-.17.29-.3l.08.53a.91.91 0 01-.31.22 1.81 1.81 0 01-.43.14 3 3 0 01-.53 0 1.66 1.66 0 01-1.1-.28zm2.29-2.3a1 1 0 00-.27-.77 1 1 0 00-.74-.27 1.79 1.79 0 00-.57.09 1.77 1.77 0 00-.49.27l-.41-.28a1.41 1.41 0 01.6-.43 2.13 2.13 0 01.84-.16 1.93 1.93 0 01.87.18 1.18 1.18 0 01.54.52 1.57 1.57 0 01.19.81v2.61h-.56zm1.77-1.49h.56v4.06h-.56zm2.07.53a1.42 1.42 0 00-.44-.06 1.11 1.11 0 00-.79.27 1 1 0 00-.28.75l-.08-.78a1.59 1.59 0 011.38-.77 1.59 1.59 0 01.5.08 1.11 1.11 0 01.39.24l-.36.47a.87.87 0 00-.32-.2zm4.83 3.53h-.57v-5.21l-1 .66v-.59l.81-.54h.8zm18.7-2.31v2.31h-.57v-2.31L133 23.74h.61l1.52 2.83 1.51-2.83h.61zm2.7 2.15a1.41 1.41 0 01-.61-.62 2.12 2.12 0 01-.21-1v-.44a2.49 2.49 0 01.2-1 1.41 1.41 0 01.59-.64 1.77 1.77 0 01.92-.23 1.7 1.7 0 01.87.22 1.44 1.44 0 01.55.64 2.56 2.56 0 01.19 1v.46h-2.93v-.5h2.4a1.38 1.38 0 00-.28-.93 1 1 0 00-.8-.33 1.09 1.09 0 00-.87.34 1.43 1.43 0 00-.31 1v.51a1.31 1.31 0 00.33.95 1.22 1.22 0 00.92.33 1.53 1.53 0 001-.45l.38.37a2.32 2.32 0 01-.67.45 2 2 0 01-.76.15 2.06 2.06 0 01-.91-.28zm3.79-.11a1.28 1.28 0 010-1.82 1.49 1.49 0 011-.31h1.35v.52h-1.37a.92.92 0 00-.61.18.61.61 0 00-.21.5.6.6 0 00.27.53 1.26 1.26 0 00.75.19 2.57 2.57 0 00.82-.1c.19-.07.28-.17.28-.3l.09.53a1 1 0 01-.31.22 1.89 1.89 0 01-.44.14 2.89 2.89 0 01-.52 0 1.64 1.64 0 01-1.1-.28zm2.28-2.3a1 1 0 00-.26-.77 1 1 0 00-.75-.27 1.77 1.77 0 00-.56.09 2 2 0 00-.5.27l-.41-.28a1.5 1.5 0 01.61-.43 2.06 2.06 0 01.84-.16 1.88 1.88 0 01.86.18 1.26 1.26 0 01.55.52 1.67 1.67 0 01.19.81v2.61h-.57zm1.8-1.49h.56v4.06H146zm2.07.53a1.46 1.46 0 00-.44-.06 1.1 1.1 0 00-.79.27 1 1 0 00-.28.75l-.08-.78a1.56 1.56 0 011.37-.77 1.6 1.6 0 01.51.08 1.11 1.11 0 01.39.24l-.37.47a.76.76 0 00-.33-.2zm3.35 3.11l2.13-2.8a2.61 2.61 0 00.33-.54 1.27 1.27 0 00.11-.46.89.89 0 00-.26-.7 1.15 1.15 0 00-1.46 0 1.28 1.28 0 00-.34.75h-.59a2.26 2.26 0 01.29-.83 1.49 1.49 0 01.56-.53 1.71 1.71 0 01.8-.18 2.06 2.06 0 01.86.17 1.29 1.29 0 01.55.51 1.66 1.66 0 01.19.8 1.42 1.42 0 01-.16.61 2.94 2.94 0 01-.43.7l-1.88 2.42h2.5v.53h-3.2zm23.32-1.89v2.31h-.56v-2.31l-1.85-3.37h.67l1.51 2.83 1.49-2.83h.61zm2.71 2.15a1.41 1.41 0 01-.61-.62 2.12 2.12 0 01-.21-1v-.44a2.49 2.49 0 01.2-1 1.41 1.41 0 01.59-.64 1.77 1.77 0 01.92-.23 1.66 1.66 0 01.86.22 1.38 1.38 0 01.55.64 2.4 2.4 0 01.19 1v.46H177v-.5h2.41a1.43 1.43 0 00-.28-.93 1 1 0 00-.8-.33 1.12 1.12 0 00-.88.34 1.48 1.48 0 00-.31 1v.51a1.31 1.31 0 00.33.95 1.26 1.26 0 00.93.33 1.37 1.37 0 00.55-.12 1.25 1.25 0 00.49-.33l.39.37a2.32 2.32 0 01-.67.45 2.06 2.06 0 01-.76.15 2 2 0 01-.95-.28zm3.78-.11a1.15 1.15 0 01-.39-.93 1.12 1.12 0 01.36-.89 1.47 1.47 0 011-.31h1.35l.05.52h-1.4a.9.9 0 00-.6.18.68.68 0 000 1 1.28 1.28 0 00.76.19 2.46 2.46 0 00.81-.1c.19-.07.29-.17.29-.3l.08.53a.91.91 0 01-.31.22 1.67 1.67 0 01-.43.14 2.93 2.93 0 01-.53 0 1.66 1.66 0 01-1.04-.25zm2.29-2.3a1.09 1.09 0 00-.26-.77 1 1 0 00-.75-.27 1.88 1.88 0 00-.57.09 1.93 1.93 0 00-.49.27l-.41-.28a1.44 1.44 0 01.61-.43 2.06 2.06 0 01.84-.16 1.91 1.91 0 01.86.18 1.26 1.26 0 01.55.52 1.67 1.67 0 01.18.81v2.61h-.56zm1.77-1.49h.57v4.06h-.57zm2.08.53a1.51 1.51 0 00-.44-.06 1.1 1.1 0 00-.79.27 1 1 0 00-.28.75l-.08-.78a1.59 1.59 0 01.58-.57 1.63 1.63 0 01.79-.2 1.59 1.59 0 01.5.08 1.11 1.11 0 01.39.24l-.36.47a.83.83 0 00-.31-.2zm4.08 3.42a1.5 1.5 0 01-.59-.49 1.91 1.91 0 01-.28-.78h.57a1.13 1.13 0 00.2.49.9.9 0 00.38.31 1.4 1.4 0 00.56.1 1.07 1.07 0 00.78-.27 1 1 0 00.28-.77v-.17a1 1 0 00-.27-.74 1 1 0 00-.75-.27h-.41v-.52h.41a1 1 0 00.67-.2.85.85 0 00.24-.65v-.17a.94.94 0 00-.26-.7 1 1 0 00-.72-.24 1 1 0 00-.47.1 1.12 1.12 0 00-.36.29 1.35 1.35 0 00-.21.47h-.56a1.93 1.93 0 01.29-.75 1.49 1.49 0 01.55-.48 1.73 1.73 0 01.76-.16 1.62 1.62 0 011.14.38 1.45 1.45 0 01.4 1.09v.18a1.23 1.23 0 01-.19.69 1 1 0 01-.53.43 1 1 0 01.6.43 1.59 1.59 0 01.22.86v.17a1.75 1.75 0 01-.2.85 1.23 1.23 0 01-.55.53 2.26 2.26 0 01-1.72 0zm19.44-2.2v2.31h-.56v-2.31l-1.85-3.37h.61l1.52 2.83 1.51-2.83h.62zm2.7 2.15a1.44 1.44 0 01-.6-.62 2.12 2.12 0 01-.21-1v-.44a2.34 2.34 0 01.2-1 1.39 1.39 0 01.58-.64 1.79 1.79 0 01.92-.23 1.7 1.7 0 01.87.22 1.44 1.44 0 01.55.64 2.4 2.4 0 01.19 1v.46h-2.93v-.5h2.41a1.38 1.38 0 00-.29-.93 1 1 0 00-.8-.33 1.12 1.12 0 00-.87.34 1.43 1.43 0 00-.31 1v.51a1.31 1.31 0 00.33.95 1.25 1.25 0 00.92.33 1.38 1.38 0 00.56-.12 1.33 1.33 0 00.49-.33l.38.37a2.19 2.19 0 01-.67.45 2 2 0 01-.76.15 2.06 2.06 0 01-.96-.28zm3.79-.11a1.15 1.15 0 01-.39-.93 1.12 1.12 0 01.36-.89 1.45 1.45 0 011-.31h1.34l.06.52h-1.4a.9.9 0 00-.6.18.59.59 0 00-.22.5.6.6 0 00.27.53 1.28 1.28 0 00.76.19 2.5 2.5 0 00.81-.1c.19-.07.29-.17.29-.3l.08.53a.91.91 0 01-.31.22 1.81 1.81 0 01-.43.14 3 3 0 01-.53 0 1.66 1.66 0 01-1.09-.28zm2.29-2.3a1 1 0 00-.27-.77 1 1 0 00-.74-.27 1.79 1.79 0 00-.57.09 1.77 1.77 0 00-.49.27l-.41-.28a1.41 1.41 0 01.6-.43 2.1 2.1 0 01.84-.16 1.93 1.93 0 01.87.18 1.18 1.18 0 01.5.52 1.57 1.57 0 01.19.81v2.61h-.56zm1.77-1.49h.56v4.06h-.56zm2.07.53a1.42 1.42 0 00-.44-.06 1.11 1.11 0 00-.79.27 1 1 0 00-.28.75l-.08-.78a1.59 1.59 0 011.38-.77 1.59 1.59 0 01.5.08 1.11 1.11 0 01.39.24l-.36.47a.87.87 0 00-.32-.2zm3.38 2.2l1.9-4.35h.59L227.52 28h3v.5h-3.65zm2.56-2h.55v3.34h-.55zm21.17 1.02v2.31h-.56v-2.31l-1.85-3.37h.61l1.52 2.83 1.51-2.83h.62zm2.7 2.15a1.38 1.38 0 01-.6-.62 2.12 2.12 0 01-.21-1v-.44a2.34 2.34 0 01.2-1 1.39 1.39 0 01.58-.64 1.79 1.79 0 01.92-.23 1.7 1.7 0 01.87.22 1.44 1.44 0 01.55.64 2.4 2.4 0 01.19 1v.46h-2.93v-.5h2.41a1.38 1.38 0 00-.29-.93 1 1 0 00-.8-.33 1.1 1.1 0 00-.87.34 1.43 1.43 0 00-.31 1v.51a1.31 1.31 0 00.33.95 1.25 1.25 0 00.92.33 1.38 1.38 0 00.56-.12 1.33 1.33 0 00.49-.33l.38.37a2.19 2.19 0 01-.67.45 2 2 0 01-.76.15 2.06 2.06 0 01-.96-.28zm3.79-.11a1.31 1.31 0 010-1.82 1.49 1.49 0 011-.31h1.35l.06.52h-1.4a.9.9 0 00-.6.18.59.59 0 00-.22.5.6.6 0 00.27.53 1.28 1.28 0 00.76.19 2.54 2.54 0 00.81-.1c.19-.07.29-.17.29-.3l.08.53a1 1 0 01-.31.22 1.81 1.81 0 01-.43.14 3 3 0 01-.53 0 1.66 1.66 0 01-1.13-.28zm2.29-2.3a1 1 0 00-.27-.77 1 1 0 00-.74-.27 1.79 1.79 0 00-.57.09 1.77 1.77 0 00-.49.27l-.41-.28a1.41 1.41 0 01.6-.43 2.1 2.1 0 01.84-.16 1.93 1.93 0 01.87.18 1.23 1.23 0 01.54.52 1.57 1.57 0 01.19.81v2.61h-.56zm1.77-1.49h.56v4.06h-.56zm2.07.53a1.42 1.42 0 00-.44-.06 1.1 1.1 0 00-.79.27 1 1 0 00-.28.75l-.08-.78a1.59 1.59 0 011.35-.77 1.59 1.59 0 01.5.08 1.11 1.11 0 01.39.24l-.36.47a.87.87 0 00-.29-.2zm4.28 3.42a1.45 1.45 0 01-.55-.49 2 2 0 01-.28-.77h.57a1 1 0 00.32.66 1 1 0 00.7.23 1 1 0 00.76-.27 1.09 1.09 0 00.28-.78v-.83a1.09 1.09 0 00-.24-.75.82.82 0 00-.64-.26 1.2 1.2 0 00-.62.17 1.77 1.77 0 00-.51.51h-.49v-3h2.89v.52h-2.33V26a1.6 1.6 0 01.49-.34 1.48 1.48 0 01.57-.11 1.61 1.61 0 01.78.18 1.2 1.2 0 01.49.53 1.92 1.92 0 01.17.83v.83a1.79 1.79 0 01-.19.86 1.3 1.3 0 01-.55.54 1.88 1.88 0 01-.86.18 1.67 1.67 0 01-.76-.19zm19.25-2.2v2.31h-.57v-2.31l-1.84-3.37h.64l1.52 2.83 1.48-2.83h.61zm2.7 2.15a1.41 1.41 0 01-.61-.62 2.12 2.12 0 01-.21-1v-.44a2.49 2.49 0 01.2-1 1.41 1.41 0 01.59-.64 1.77 1.77 0 01.92-.23 1.7 1.7 0 01.87.22 1.44 1.44 0 01.55.64 2.56 2.56 0 01.19 1v.46H289v-.5h2.4a1.38 1.38 0 00-.28-.93 1 1 0 00-.8-.33 1.09 1.09 0 00-.87.34 1.43 1.43 0 00-.31 1v.51a1.35 1.35 0 00.32.95 1.26 1.26 0 00.93.33 1.53 1.53 0 001.05-.45l.38.37a2.32 2.32 0 01-.67.45 2 2 0 01-.76.15 2.06 2.06 0 01-.92-.28zm3.78-.11a1.15 1.15 0 01-.39-.93 1.12 1.12 0 01.36-.89 1.49 1.49 0 011-.31h1.35l.05.52h-1.39a.91.91 0 00-.61.18.61.61 0 00-.21.5.6.6 0 00.27.53 1.24 1.24 0 00.75.19 2.46 2.46 0 00.81-.1c.2-.07.29-.17.29-.3l.09.53a1.16 1.16 0 01-.31.22 1.89 1.89 0 01-.44.14 2.89 2.89 0 01-.52 0 1.67 1.67 0 01-1.1-.28zm2.29-2.3a1 1 0 00-.26-.77 1 1 0 00-.75-.27 1.77 1.77 0 00-.56.09 2 2 0 00-.5.27l-.41-.28a1.5 1.5 0 01.61-.43 2.06 2.06 0 01.84-.16 1.91 1.91 0 01.86.18 1.26 1.26 0 01.55.52 1.67 1.67 0 01.19.81v2.61h-.57zm1.78-1.49h.56v4.06h-.56zm2.07.53a1.46 1.46 0 00-.44-.06 1.1 1.1 0 00-.79.27 1 1 0 00-.28.75l-.08-.78a1.56 1.56 0 011.37-.77 1.54 1.54 0 01.5.08 1.25 1.25 0 01.4.24l-.37.47a.76.76 0 00-.31-.2zm4.06 3.38a1.27 1.27 0 01-.54-.58 2.06 2.06 0 01-.19-.93 3.3 3.3 0 01.08-.67 4.11 4.11 0 01.21-.68l.05-.12.06-.11 1.23-2.44h.65l-1.45 2.83v-.14a.81.81 0 01.34-.29 1.27 1.27 0 01.5-.1 1.61 1.61 0 01.82.2 1.28 1.28 0 01.52.58 2.13 2.13 0 01.18.92 2.25 2.25 0 01-.18.94 1.31 1.31 0 01-.55.59 1.93 1.93 0 01-1.71 0zm1.61-.62a1.21 1.21 0 00.27-.84 1.34 1.34 0 00-.28-.91 1 1 0 00-.78-.32.88.88 0 00-.73.32 1.46 1.46 0 00-.25.92 1.21 1.21 0 00.26.84 1.13 1.13 0 001.51 0z"/><path d="M174.74 62.77v2.31h-.56v-2.31l-1.85-3.37h.67l1.51 2.84L176 59.4h.61zm2.71 2.16a1.41 1.41 0 01-.61-.62 2.12 2.12 0 01-.21-1v-.46a2.46 2.46 0 01.2-1 1.49 1.49 0 01.59-.65 1.77 1.77 0 01.92-.22 1.55 1.55 0 01.86.22 1.34 1.34 0 01.55.64 2.37 2.37 0 01.19 1v.46H177v-.51h2.41a1.38 1.38 0 00-.28-.93 1 1 0 00-.8-.33 1.13 1.13 0 00-.88.35 1.47 1.47 0 00-.31 1v.51a1.27 1.27 0 00.33.94 1.22 1.22 0 00.93.34 1.33 1.33 0 00.55-.12 1.51 1.51 0 00.49-.33l.39.37a2.11 2.11 0 01-.67.44 1.89 1.89 0 01-.76.16 2 2 0 01-.95-.26zm3.78-.12a1.13 1.13 0 01-.39-.92 1.11 1.11 0 01.36-.89 1.47 1.47 0 011-.32h1.35l.05.53h-1.4a.9.9 0 00-.6.18.6.6 0 00-.21.5.63.63 0 00.26.53 1.28 1.28 0 00.76.19 2.19 2.19 0 00.81-.11c.2-.07.29-.16.29-.29l.08.53a1.3 1.3 0 01-.31.22 1.67 1.67 0 01-.43.13 2.22 2.22 0 01-.53 0 1.66 1.66 0 01-1.09-.28zm2.29-2.3a1.06 1.06 0 00-.26-.76 1 1 0 00-.75-.27 1.88 1.88 0 00-.57.09 1.47 1.47 0 00-.49.27l-.41-.28a1.55 1.55 0 01.61-.44 2.24 2.24 0 01.84-.15 1.91 1.91 0 01.86.18 1.29 1.29 0 01.55.51 1.74 1.74 0 01.18.82v2.6h-.56zm1.77-1.51h.57v4h-.57zm2.08.53a1.5 1.5 0 00-.44-.07 1.1 1.1 0 00-.79.27 1 1 0 00-.28.76l-.08-.78a1.44 1.44 0 01.58-.57 1.63 1.63 0 01.79-.2 1.59 1.59 0 01.5.08 1 1 0 01.39.24l-.36.46a.81.81 0 00-.31-.16zm4.82 3.55h-.56v-5.2l-1 .65v-.59l.81-.54h.8zm18.7-2.31v2.31h-.56v-2.31l-1.85-3.37h.61l1.52 2.84 1.51-2.84h.62zm2.7 2.16a1.44 1.44 0 01-.6-.62 2.12 2.12 0 01-.21-1v-.46a2.31 2.31 0 01.2-1 1.47 1.47 0 01.58-.65 1.79 1.79 0 01.92-.22 1.61 1.61 0 01.87.22 1.39 1.39 0 01.55.64 2.37 2.37 0 01.19 1v.46h-2.93v-.51h2.41a1.38 1.38 0 00-.29-.93 1 1 0 00-.8-.33 1.12 1.12 0 00-.87.35 1.42 1.42 0 00-.31 1v.51a1.27 1.27 0 00.33.94 1.21 1.21 0 00.92.34 1.38 1.38 0 00.56-.12 1.63 1.63 0 00.49-.33l.38.37a2 2 0 01-.67.44 1.85 1.85 0 01-.76.16 2.06 2.06 0 01-.96-.26zm3.79-.12a1.13 1.13 0 01-.39-.92 1.11 1.11 0 01.36-.89 1.46 1.46 0 011-.32h1.34l.06.53h-1.4a.9.9 0 00-.6.18.58.58 0 00-.22.5.61.61 0 00.27.53 1.28 1.28 0 00.76.19 2.19 2.19 0 00.81-.11c.19-.07.29-.16.29-.29l.08.53a1.3 1.3 0 01-.31.22 1.8 1.8 0 01-.43.13 2.27 2.27 0 01-.53 0 1.66 1.66 0 01-1.09-.28zm2.29-2.3a1 1 0 00-.27-.76 1 1 0 00-.74-.27 1.84 1.84 0 00-.57.09 1.37 1.37 0 00-.49.27l-.41-.28a1.51 1.51 0 01.6-.44 2.32 2.32 0 01.84-.15 1.93 1.93 0 01.87.18 1.21 1.21 0 01.54.51 1.63 1.63 0 01.19.82v2.6h-.56zm1.77-1.51h.56v4h-.56zm2.07.53a1.4 1.4 0 00-.44-.07 1.11 1.11 0 00-.79.27 1.06 1.06 0 00-.28.76l-.08-.78a1.53 1.53 0 01.59-.57 1.63 1.63 0 01.79-.2 1.59 1.59 0 01.5.08 1 1 0 01.39.24l-.36.46a.85.85 0 00-.32-.16zm3.37 3.1l2.14-2.8a2.19 2.19 0 00.32-.54 1.12 1.12 0 00.12-.46.93.93 0 00-.26-.7 1 1 0 00-.74-.25 1 1 0 00-.72.26 1.2 1.2 0 00-.34.76h-.59a2.09 2.09 0 01.29-.84 1.4 1.4 0 01.56-.52 1.68 1.68 0 01.79-.19 1.93 1.93 0 01.87.18 1.14 1.14 0 01.54.5 1.59 1.59 0 01.19.81 1.55 1.55 0 01-.15.61 3.66 3.66 0 01-.44.7l-1.87 2.42h2.49v.52h-3.2zm23.33-1.86v2.31h-.57v-2.31l-1.84-3.37h.61l1.52 2.84 1.51-2.84h.61zm2.7 2.16a1.41 1.41 0 01-.61-.62 2.12 2.12 0 01-.21-1v-.46a2.46 2.46 0 01.2-1 1.49 1.49 0 01.59-.65 1.77 1.77 0 01.92-.22 1.61 1.61 0 01.87.22 1.39 1.39 0 01.55.64 2.53 2.53 0 01.19 1v.46h-2.93v-.51h2.4a1.38 1.38 0 00-.28-.93 1 1 0 00-.8-.33 1.09 1.09 0 00-.87.35 1.42 1.42 0 00-.31 1v.51a1.27 1.27 0 00.33.94 1.19 1.19 0 00.92.34 1.41 1.41 0 00.56-.12 1.63 1.63 0 00.49-.33l.38.37a2.11 2.11 0 01-.67.44 1.85 1.85 0 01-.76.16 2.06 2.06 0 01-.96-.26zm3.79-.12a1.14 1.14 0 01-.4-.92 1.11 1.11 0 01.36-.89 1.49 1.49 0 011-.32H259l.05.53h-1.39a.92.92 0 00-.61.18.6.6 0 00-.21.5.61.61 0 00.27.53 1.26 1.26 0 00.75.19 2.28 2.28 0 00.82-.11c.19-.07.28-.16.28-.29l.09.53a1.54 1.54 0 01-.31.22 1.75 1.75 0 01-.44.13 2.19 2.19 0 01-.52 0 1.64 1.64 0 01-1.08-.28zm2.28-2.3a1 1 0 00-.26-.76 1 1 0 00-.75-.27 1.77 1.77 0 00-.56.09 1.51 1.51 0 00-.5.27l-.41-.28a1.63 1.63 0 01.61-.44A2.24 2.24 0 01258 61a1.91 1.91 0 01.86.18 1.29 1.29 0 01.55.51 1.74 1.74 0 01.19.82v2.6h-.6zm1.78-1.51h.56v4h-.56zm2.07.53a1.45 1.45 0 00-.44-.07 1.1 1.1 0 00-.79.27 1 1 0 00-.28.76l-.08-.78a1.51 1.51 0 01.58-.57 1.66 1.66 0 01.79-.2 1.5 1.5 0 01.5.08 1 1 0 01.4.24l-.37.46a.74.74 0 00-.31-.16zm4.08 3.47a1.32 1.32 0 01-.58-.49 1.69 1.69 0 01-.28-.77h.56a1.13 1.13 0 00.2.49 1 1 0 00.39.3 1.2 1.2 0 00.55.11 1.1 1.1 0 00.79-.27 1.05 1.05 0 00.28-.77v-.2a1 1 0 00-.27-.74 1 1 0 00-.76-.27h-.4v-.52h.4a1 1 0 00.69-.23.87.87 0 00.24-.65v-.18a.9.9 0 00-.25-.69 1 1 0 00-.72-.24 1.06 1.06 0 00-.48.1.82.82 0 00-.35.29 1.28 1.28 0 00-.22.47h-.56a1.69 1.69 0 01.3-.75 1.35 1.35 0 01.55-.48 1.67 1.67 0 01.76-.17 1.55 1.55 0 011.13.39 1.43 1.43 0 01.4 1.09V61a1.33 1.33 0 01-.18.7 1.16 1.16 0 01-.54.43.91.91 0 01.6.43 1.49 1.49 0 01.22.85v.18a1.68 1.68 0 01-.19.84 1.27 1.27 0 01-.56.54 2 2 0 01-.88.18 1.86 1.86 0 01-.84-.15zm19.44-2.23v2.31h-.56v-2.31l-1.85-3.37h.62l1.51 2.84 1.52-2.84h.61zm2.71 2.16a1.41 1.41 0 01-.61-.62 2.12 2.12 0 01-.21-1v-.46a2.46 2.46 0 01.2-1 1.49 1.49 0 01.59-.65 1.77 1.77 0 01.97-.2 1.63 1.63 0 01.87.22 1.37 1.37 0 01.54.64 2.37 2.37 0 01.19 1v.46h-2.93v-.51H291a1.38 1.38 0 00-.28-.93 1 1 0 00-.8-.33 1.13 1.13 0 00-.88.35 1.47 1.47 0 00-.31 1v.51a1.27 1.27 0 00.33.94 1.22 1.22 0 00.93.34 1.33 1.33 0 00.55-.12 1.67 1.67 0 00.5-.33l.38.37a2.11 2.11 0 01-.67.44 1.89 1.89 0 01-.76.16 2 2 0 01-.93-.28zm3.78-.12a1.13 1.13 0 01-.39-.92 1.11 1.11 0 01.36-.89 1.47 1.47 0 011-.32h1.35l.05.53h-1.4a.9.9 0 00-.6.18.6.6 0 00-.21.5.63.63 0 00.26.53 1.28 1.28 0 00.76.19 2.19 2.19 0 00.81-.11c.19-.07.29-.16.29-.29l.08.53a1.3 1.3 0 01-.31.22 1.67 1.67 0 01-.43.13 2.22 2.22 0 01-.53 0 1.66 1.66 0 01-1.09-.28zm2.29-2.3a1.06 1.06 0 00-.26-.76 1 1 0 00-.75-.27 1.88 1.88 0 00-.57.09 1.47 1.47 0 00-.49.27l-.41-.28a1.55 1.55 0 01.61-.44 2.24 2.24 0 01.84-.15 1.91 1.91 0 01.86.18 1.29 1.29 0 01.55.51 1.74 1.74 0 01.18.82v2.6h-.56zM296.9 61h.57v4h-.57zm2.08.53a1.5 1.5 0 00-.44-.07 1.1 1.1 0 00-.79.27 1 1 0 00-.28.76l-.08-.78a1.44 1.44 0 01.58-.57 1.63 1.63 0 01.79-.2 1.54 1.54 0 01.5.08 1 1 0 01.39.24l-.36.46a.81.81 0 00-.29-.16zm3.37 2.22l1.91-4.34h.58l-1.84 4.3h3v.5h-3.65zm2.57-2h.54v3.35h-.54zm-54.3 36.43v2.31h-.56v-2.31l-1.85-3.37h.61l1.52 2.83 1.51-2.83h.62zm2.7 2.15a1.41 1.41 0 01-.61-.62 2.25 2.25 0 01-.2-1v-.46a2.26 2.26 0 01.2-1 1.42 1.42 0 01.58-.65 1.79 1.79 0 01.92-.23 1.7 1.7 0 01.87.22 1.44 1.44 0 01.55.64 2.4 2.4 0 01.19 1v.47h-2.93v-.5h2.4a1.38 1.38 0 00-.28-.93 1 1 0 00-.8-.33 1.08 1.08 0 00-.87.35 1.41 1.41 0 00-.31 1v.52a1.28 1.28 0 00.33.94 1.23 1.23 0 00.92.33 1.55 1.55 0 00.56-.11 1.49 1.49 0 00.49-.34l.38.37a2.19 2.19 0 01-.67.45 2 2 0 01-.76.16 2 2 0 01-.96-.28zm3.79-.11a1.31 1.31 0 010-1.82 1.49 1.49 0 011-.31h1.35l.06.52h-1.4a.94.94 0 00-.61.18.69.69 0 00.06 1 1.34 1.34 0 00.75.19 2.53 2.53 0 00.82-.11c.19-.07.29-.17.29-.3l.08.53a1 1 0 01-.31.22 1.75 1.75 0 01-.44.14 2.78 2.78 0 01-.52 0 1.66 1.66 0 01-1.13-.24zm2.29-2.3a1 1 0 00-.27-.77 1 1 0 00-.75-.27 1.81 1.81 0 00-1.05.36l-.41-.28a1.49 1.49 0 01.6-.43 2.28 2.28 0 01.84-.16 1.86 1.86 0 01.86.18 1.21 1.21 0 01.55.52 1.59 1.59 0 01.19.81v2.61h-.56zm1.77-1.49h.56v4.06h-.56zm2.07.53a1.42 1.42 0 00-.44-.06 1.1 1.1 0 00-.79.27 1 1 0 00-.28.75l-.08-.78a1.56 1.56 0 01.58-.56 1.62 1.62 0 011.3-.13 1.28 1.28 0 01.39.24l-.36.47a.87.87 0 00-.32-.16zm4.82 3.53h-.56v-5.2l-1 .65v-.59l.81-.54h.79zm18.71-2.31v2.31h-.57v-2.31l-1.84-3.37h.64l1.52 2.83 1.48-2.83h.61zm2.7 2.15a1.36 1.36 0 01-.61-.62 2.12 2.12 0 01-.21-1v-.46a2.41 2.41 0 01.2-1 1.44 1.44 0 01.59-.65 1.77 1.77 0 01.92-.23 1.7 1.7 0 01.87.22 1.44 1.44 0 01.55.64 2.56 2.56 0 01.19 1v.47H289v-.5h2.4a1.38 1.38 0 00-.28-.93 1 1 0 00-.8-.33 1.06 1.06 0 00-.87.35 1.41 1.41 0 00-.31 1v.52a1.32 1.32 0 00.32.94 1.26 1.26 0 00.93.33 1.42 1.42 0 001.05-.45l.38.37a2.32 2.32 0 01-.67.45 2 2 0 01-.76.16 2 2 0 01-.92-.28zm3.78-.11a1.15 1.15 0 01-.39-.93 1.12 1.12 0 01.36-.89 1.49 1.49 0 011-.31h1.35l.05.52h-1.39a.91.91 0 00-.61.18.69.69 0 00.06 1 1.32 1.32 0 00.75.19 2.42 2.42 0 00.81-.11c.2-.07.29-.17.29-.3l.09.53a1.16 1.16 0 01-.31.22 1.89 1.89 0 01-.44.14 2.87 2.87 0 01-.52 0 1.67 1.67 0 01-1.1-.24zm2.29-2.3a1 1 0 00-.26-.77 1 1 0 00-.75-.27 1.54 1.54 0 00-.56.1 1.7 1.7 0 00-.5.26l-.41-.28a1.6 1.6 0 01.61-.43 2.24 2.24 0 01.84-.16 1.91 1.91 0 01.86.18 1.26 1.26 0 01.55.52 1.7 1.7 0 01.19.81v2.61h-.57zm1.78-1.49h.56v4.06h-.56zm2.07.53a1.46 1.46 0 00-.44-.06 1.1 1.1 0 00-.79.27 1 1 0 00-.28.75l-.08-.78a1.6 1.6 0 011.87-.69 1.47 1.47 0 01.4.24l-.37.47a.76.76 0 00-.31-.16zm3.36 3.04l2.14-2.8a2.85 2.85 0 00.33-.53 1.32 1.32 0 00.11-.47.94.94 0 00-.26-.7 1 1 0 00-.74-.25 1 1 0 00-.72.27 1.31 1.31 0 00-.34.75h-.59a2.26 2.26 0 01.29-.83 1.49 1.49 0 01.56-.53 1.7 1.7 0 01.79-.18 2.08 2.08 0 01.87.17 1.29 1.29 0 01.55.51 1.66 1.66 0 01.19.8 1.58 1.58 0 01-.16.61 3.2 3.2 0 01-.43.71l-1.88 2.47H306v.53h-3.21zm23.33-1.82v2.31h-.56v-2.31l-1.85-3.37h.62l1.51 2.83 1.52-2.83h.61zm2.71 2.15a1.36 1.36 0 01-.61-.62 2.12 2.12 0 01-.21-1v-.46a2.41 2.41 0 01.2-1 1.42 1.42 0 01.58-.65 1.83 1.83 0 01.93-.23 1.69 1.69 0 01.86.22 1.38 1.38 0 01.55.64 2.4 2.4 0 01.19 1v.47h-2.93v-.5h2.41a1.43 1.43 0 00-.28-.93 1 1 0 00-.8-.33 1.1 1.1 0 00-.88.35 1.46 1.46 0 00-.31 1v.52a1.28 1.28 0 00.33.94 1.26 1.26 0 00.93.33 1.54 1.54 0 00.55-.11 1.39 1.39 0 00.49-.34l.39.37a2.37 2.37 0 01-.68.45 2 2 0 01-.75.16 1.89 1.89 0 01-.96-.28zm3.78-.11a1.15 1.15 0 01-.39-.93 1.12 1.12 0 01.36-.89 1.47 1.47 0 011-.31h1.35l.05.52h-1.4a.9.9 0 00-.6.18.63.63 0 00-.21.5.62.62 0 00.26.54 1.35 1.35 0 00.76.19 2.42 2.42 0 00.81-.11c.19-.07.29-.17.29-.3l.08.53a.91.91 0 01-.31.22 1.81 1.81 0 01-.43.14 3 3 0 01-.53 0 1.66 1.66 0 01-1.09-.28zm2.29-2.3a1.09 1.09 0 00-.26-.77 1 1 0 00-.75-.27 1.59 1.59 0 00-.57.1 1.64 1.64 0 00-.49.26l-.41-.28a1.53 1.53 0 01.61-.43 2.23 2.23 0 01.83-.16 1.93 1.93 0 01.87.18 1.26 1.26 0 01.55.52 1.7 1.7 0 01.18.81v2.61h-.56zm1.77-1.49h.57v4.06h-.57zm2.08.53a1.51 1.51 0 00-.44-.06 1.08 1.08 0 00-.79.27 1 1 0 00-.28.75l-.09-.78a1.58 1.58 0 01.59-.56 1.53 1.53 0 01.79-.21 1.59 1.59 0 01.5.08 1.28 1.28 0 01.39.24l-.36.47a.83.83 0 00-.31-.16zm4.08 3.42a1.42 1.42 0 01-.59-.49 1.78 1.78 0 01-.28-.78h.57a1.07 1.07 0 00.19.49.92.92 0 00.39.31 1.4 1.4 0 00.56.11 1.08 1.08 0 00.78-.28 1 1 0 00.28-.76v-.18a1 1 0 00-.27-.74 1 1 0 00-.76-.26h-.4v-.53h.4a.93.93 0 00.69-.23.82.82 0 00.25-.65v-.17a.9.9 0 00-.26-.69 1 1 0 00-.72-.25 1.2 1.2 0 00-.47.1 1 1 0 00-.36.3 1.09 1.09 0 00-.21.46H342a1.93 1.93 0 01.29-.75 1.49 1.49 0 01.55-.48 1.7 1.7 0 01.76-.16 1.58 1.58 0 011.14.39 1.42 1.42 0 01.4 1.09v.17a1.21 1.21 0 01-.19.69 1.06 1.06 0 01-.54.43 1 1 0 01.59.48 1.61 1.61 0 01.21.86V99a1.75 1.75 0 01-.19.85 1.23 1.23 0 01-.55.53 1.87 1.87 0 01-.88.19 2 2 0 01-.8-.19zm19.44-2.2v2.31h-.56v-2.31l-1.85-3.37h.61l1.57 2.83 1.51-2.83h.62zm2.7 2.15a1.41 1.41 0 01-.61-.62 2.25 2.25 0 01-.2-1v-.46a2.26 2.26 0 01.2-1 1.42 1.42 0 01.58-.65 1.79 1.79 0 01.92-.23 1.7 1.7 0 01.87.22 1.44 1.44 0 01.55.64 2.4 2.4 0 01.19 1v.47h-2.93v-.5h2.4a1.38 1.38 0 00-.28-.93 1 1 0 00-.8-.33 1.08 1.08 0 00-.87.35 1.41 1.41 0 00-.31 1v.52a1.28 1.28 0 00.33.94 1.23 1.23 0 00.92.33 1.55 1.55 0 00.56-.11 1.49 1.49 0 00.49-.34l.38.37a2.19 2.19 0 01-.67.45 2 2 0 01-.76.16 2 2 0 01-.96-.28zm3.79-.11a1.31 1.31 0 010-1.82 1.49 1.49 0 011-.31H371l.06.52h-1.4a.94.94 0 00-.61.18.69.69 0 00.06 1 1.34 1.34 0 00.75.19 2.49 2.49 0 00.82-.11c.19-.07.29-.17.29-.3l.08.53a1 1 0 01-.31.22 1.75 1.75 0 01-.44.14 2.78 2.78 0 01-.52 0 1.66 1.66 0 01-1.06-.24zm2.29-2.3a1 1 0 00-.27-.77 1 1 0 00-.75-.27 1.81 1.81 0 00-1.05.36l-.41-.28a1.49 1.49 0 01.6-.43 2.28 2.28 0 01.84-.16 1.86 1.86 0 01.86.18 1.21 1.21 0 01.55.52 1.59 1.59 0 01.19.81v2.61H371zm1.77-1.49h.56v4.06h-.56zm2.07.53a1.42 1.42 0 00-.44-.06 1.1 1.1 0 00-.79.27 1 1 0 00-.28.75l-.08-.78a1.56 1.56 0 01.58-.56 1.62 1.62 0 011.3-.13 1.28 1.28 0 01.39.24l-.36.47a.87.87 0 00-.32-.16zm3.38 2.2l1.9-4.35h.59l-1.86 4.3h3v.51h-3.65zm2.56-2h.54v3.34h-.54zm-54.71-34.39v2.31h-.56v-2.31l-1.85-3.37h.62l1.51 2.84 1.52-2.84h.61zm2.71 2.16a1.41 1.41 0 01-.61-.62 2.12 2.12 0 01-.21-1v-.46a2.46 2.46 0 01.2-1 1.53 1.53 0 01.58-.65 1.83 1.83 0 01.93-.22 1.57 1.57 0 01.86.22 1.34 1.34 0 01.55.64 2.37 2.37 0 01.19 1v.46h-2.93v-.51h2.41a1.43 1.43 0 00-.28-.93 1 1 0 00-.8-.33 1.13 1.13 0 00-.88.35 1.47 1.47 0 00-.31 1v.51a1.27 1.27 0 00.33.94 1.22 1.22 0 00.93.34 1.37 1.37 0 00.55-.12 1.51 1.51 0 00.49-.33l.39.37a2.15 2.15 0 01-.68.44 1.84 1.84 0 01-.75.16 2 2 0 01-.96-.26zm3.78-.12a1.13 1.13 0 01-.39-.92 1.11 1.11 0 01.36-.89 1.47 1.47 0 011-.32h1.35l.05.53h-1.4a.9.9 0 00-.6.18.68.68 0 00.05 1 1.28 1.28 0 00.76.19 2.19 2.19 0 00.81-.11c.19-.07.29-.16.29-.29l.08.53a1.3 1.3 0 01-.31.22 1.67 1.67 0 01-.43.13 2.22 2.22 0 01-.53 0 1.66 1.66 0 01-1.09-.25zm2.29-2.3a1.06 1.06 0 00-.26-.76 1 1 0 00-.75-.27 1.88 1.88 0 00-.57.09 1.47 1.47 0 00-.49.27l-.41-.28a1.55 1.55 0 01.61-.44 2.23 2.23 0 01.83-.15 1.93 1.93 0 01.87.18 1.29 1.29 0 01.55.51 1.74 1.74 0 01.18.82v2.6h-.56zm1.77-1.51h.57v4h-.57zm2.08.53a1.5 1.5 0 00-.44-.07 1.08 1.08 0 00-.79.27 1 1 0 00-.28.76l-.09-.78a1.53 1.53 0 01.59-.57 1.63 1.63 0 01.79-.2 1.59 1.59 0 01.5.08 1 1 0 01.39.24l-.36.46a.81.81 0 00-.31-.16zM343 65a1.38 1.38 0 01-.54-.48 1.86 1.86 0 01-.28-.77h.56a1 1 0 00.32.66 1.05 1.05 0 00.7.23 1 1 0 00.77-.28 1 1 0 00.27-.77v-.83a1.12 1.12 0 00-.23-.75.81.81 0 00-.65-.26 1.14 1.14 0 00-.62.17 1.76 1.76 0 00-.51.51h-.49v-3h2.9v.53h-2.34v1.7a1.76 1.76 0 01.49-.33 1.39 1.39 0 01.57-.12 1.58 1.58 0 01.78.19 1.12 1.12 0 01.49.52 1.93 1.93 0 01.17.84v.83a1.75 1.75 0 01-.19.85 1.25 1.25 0 01-.54.55 1.93 1.93 0 01-.87.18A1.58 1.58 0 01343 65zm19.23-2.23v2.31h-.56v-2.31l-1.85-3.37h.61l1.57 2.84 1.51-2.84h.62zm2.7 2.16a1.46 1.46 0 01-.61-.62 2.25 2.25 0 01-.2-1v-.46a2.31 2.31 0 01.2-1 1.47 1.47 0 01.58-.65 1.79 1.79 0 01.92-.22 1.61 1.61 0 01.87.22 1.39 1.39 0 01.55.64 2.37 2.37 0 01.19 1v.46h-2.93v-.51h2.4a1.38 1.38 0 00-.28-.93 1 1 0 00-.8-.33 1.11 1.11 0 00-.87.35 1.42 1.42 0 00-.31 1v.51a1.27 1.27 0 00.33.94 1.2 1.2 0 00.92.34 1.38 1.38 0 00.56-.12 1.63 1.63 0 00.49-.33l.38.37a2 2 0 01-.67.44 1.85 1.85 0 01-.76.16 2.06 2.06 0 01-.96-.26zm3.79-.12a1.29 1.29 0 010-1.81 1.49 1.49 0 011-.32H371l.06.53h-1.4a.94.94 0 00-.61.18.6.6 0 00-.21.5.61.61 0 00.27.53 1.26 1.26 0 00.75.19 2.25 2.25 0 00.82-.11c.19-.07.29-.16.29-.29l.08.53a1.54 1.54 0 01-.31.22 1.75 1.75 0 01-.44.13 2.14 2.14 0 01-.52 0 1.66 1.66 0 01-1.06-.28zm2.29-2.3a1 1 0 00-.27-.76 1 1 0 00-.75-.27 1.77 1.77 0 00-.56.09 1.37 1.37 0 00-.49.27l-.41-.28a1.51 1.51 0 01.6-.44A2.28 2.28 0 01370 61a1.86 1.86 0 01.86.18 1.24 1.24 0 01.55.51 1.63 1.63 0 01.19.82v2.6h-.6zm1.77-1.51h.56v4h-.56zm2.07.53a1.4 1.4 0 00-.44-.07 1.1 1.1 0 00-.79.27 1.06 1.06 0 00-.28.76l-.08-.78a1.51 1.51 0 01.58-.57 1.69 1.69 0 01.8-.2 1.59 1.59 0 01.5.08 1 1 0 01.39.24l-.36.46a.85.85 0 00-.32-.16zm4.06 3.41a1.35 1.35 0 01-.54-.59 2.13 2.13 0 01-.18-.92 3.09 3.09 0 01.07-.66 3.37 3.37 0 01.22-.68.61.61 0 010-.12l.05-.11 1.24-2.45h.62L379 62.24v-.15a.79.79 0 01.34-.28 1.18 1.18 0 01.5-.1 1.57 1.57 0 01.83.2 1.23 1.23 0 01.52.58 2.11 2.11 0 01.17.91 2.2 2.2 0 01-.18.93 1.32 1.32 0 01-.54.6 1.95 1.95 0 01-1.72 0zm1.61-.63a1.18 1.18 0 00.27-.84 1.34 1.34 0 00-.28-.91 1 1 0 00-.78-.32.91.91 0 00-.73.32 1.45 1.45 0 00-.25.91 1.17 1.17 0 00.27.83 1 1 0 00.75.3.94.94 0 00.75-.29z" fill="#6f6f6e"/><path class="cls-7" d="M326.08 27.11v2.31h-.56v-2.31l-1.85-3.37h.62l1.51 2.83 1.52-2.83h.61zm2.71 2.15a1.41 1.41 0 01-.61-.62 2.12 2.12 0 01-.21-1v-.44a2.49 2.49 0 01.2-1 1.39 1.39 0 01.58-.64 1.83 1.83 0 01.93-.23 1.69 1.69 0 01.86.22 1.38 1.38 0 01.55.64 2.4 2.4 0 01.19 1v.46h-2.93v-.5h2.41a1.43 1.43 0 00-.28-.93 1 1 0 00-.8-.33 1.12 1.12 0 00-.88.34 1.48 1.48 0 00-.31 1v.51a1.31 1.31 0 00.33.95 1.26 1.26 0 00.93.33 1.37 1.37 0 00.55-.12 1.25 1.25 0 00.49-.33l.39.37a2.37 2.37 0 01-.68.45 2.13 2.13 0 01-1.71-.06zm3.78-.11a1.15 1.15 0 01-.39-.93 1.12 1.12 0 01.36-.89 1.47 1.47 0 011-.31h1.35l.05.52h-1.4a.9.9 0 00-.6.18.61.61 0 00-.21.5.59.59 0 00.26.53 1.28 1.28 0 00.76.19 2.46 2.46 0 00.81-.1c.19-.07.29-.17.29-.3l.08.53a.91.91 0 01-.31.22 1.81 1.81 0 01-.43.14 3 3 0 01-.53 0 1.66 1.66 0 01-1.09-.28zm2.29-2.3a1.09 1.09 0 00-.26-.77 1 1 0 00-.75-.27 1.84 1.84 0 00-.57.09 1.93 1.93 0 00-.49.27l-.41-.28a1.44 1.44 0 01.61-.43 2 2 0 01.83-.16 1.93 1.93 0 01.87.18 1.26 1.26 0 01.55.52 1.67 1.67 0 01.18.81v2.61h-.56zm1.77-1.49h.57v4.06h-.57zm2.08.53a1.51 1.51 0 00-.44-.06 1.08 1.08 0 00-.79.27 1 1 0 00-.28.75l-.09-.78a1.69 1.69 0 01.59-.57 1.63 1.63 0 01.79-.2 1.59 1.59 0 01.5.08 1.11 1.11 0 01.39.24l-.36.47a.83.83 0 00-.31-.2zm6.38-1.68l-1.47 5.21H343l1.49-5.16h-1.94v1H342v-1.52h3.09zm17.14 2.9v2.31h-.56v-2.31l-1.85-3.37h.61l1.57 2.83 1.51-2.83h.62zm2.7 2.15a1.46 1.46 0 01-.61-.62 2.25 2.25 0 01-.2-1v-.44a2.34 2.34 0 01.2-1 1.39 1.39 0 01.58-.64 1.79 1.79 0 01.92-.23 1.7 1.7 0 01.87.22 1.44 1.44 0 01.55.64 2.4 2.4 0 01.19 1v.46h-2.93v-.5h2.4a1.38 1.38 0 00-.28-.93 1 1 0 00-.8-.33 1.1 1.1 0 00-.87.34 1.43 1.43 0 00-.31 1v.51a1.31 1.31 0 00.33.95 1.23 1.23 0 00.92.33 1.38 1.38 0 00.56-.12 1.33 1.33 0 00.49-.33l.38.37a2.19 2.19 0 01-.67.45 2 2 0 01-.76.15 2.06 2.06 0 01-.96-.28zm3.79-.11a1.31 1.31 0 010-1.82 1.49 1.49 0 011-.31H371l.06.52h-1.4a.94.94 0 00-.61.18.61.61 0 00-.21.5.6.6 0 00.27.53 1.26 1.26 0 00.75.19 2.53 2.53 0 00.82-.1c.19-.07.29-.17.29-.3l.08.53a1 1 0 01-.31.22 1.75 1.75 0 01-.44.14 2.82 2.82 0 01-.52 0 1.66 1.66 0 01-1.06-.28zm2.29-2.3a1 1 0 00-.27-.77 1 1 0 00-.75-.27 1.64 1.64 0 00-1.05.36l-.41-.28a1.41 1.41 0 01.6-.43 2.1 2.1 0 01.84-.16 1.86 1.86 0 01.86.18 1.21 1.21 0 01.55.52 1.57 1.57 0 01.19.81v2.61H371zm1.77-1.49h.56v4.06h-.56zm2.07.53a1.42 1.42 0 00-.44-.06 1.1 1.1 0 00-.79.27 1 1 0 00-.28.75l-.08-.78a1.67 1.67 0 01.58-.57 1.69 1.69 0 01.8-.2 1.59 1.59 0 01.5.08 1.11 1.11 0 01.39.24l-.36.47a.87.87 0 00-.32-.2zm4.15 3.4a1.27 1.27 0 01-.59-.53 1.64 1.64 0 01-.21-.84v-.06a1.58 1.58 0 01.21-.81 1.42 1.42 0 01.58-.56 1.29 1.29 0 01-.49-.52 1.48 1.48 0 01-.18-.72v-.06a1.74 1.74 0 01.19-.82 1.24 1.24 0 01.55-.51 1.93 1.93 0 01.87-.18 1.86 1.86 0 01.86.18 1.19 1.19 0 01.55.51 1.63 1.63 0 01.19.82v.06a1.57 1.57 0 01-.17.73 1.36 1.36 0 01-.5.51 1.36 1.36 0 01.58.56 1.58 1.58 0 01.21.81v.06a1.74 1.74 0 01-.2.84 1.38 1.38 0 01-.59.53 2.49 2.49 0 01-1.86 0zm1.55-.45a.89.89 0 00.39-.38 1.16 1.16 0 00.13-.58 1.22 1.22 0 00-.13-.59.93.93 0 00-.39-.37 1.54 1.54 0 00-1.24 0 .93.93 0 00-.39.37 1.24 1.24 0 00-.14.6 1.2 1.2 0 00.14.59.93.93 0 00.39.37 1.66 1.66 0 001.24 0zm0-2.68a.89.89 0 00.36-.36 1.16 1.16 0 00.13-.58 1 1 0 00-.13-.53.79.79 0 00-.36-.34 1.41 1.41 0 00-.57-.11 1.43 1.43 0 00-.58.11.84.84 0 00-.36.34 1.12 1.12 0 00-.13.53v.06a1.26 1.26 0 00.13.57 1 1 0 00.36.36 1.28 1.28 0 00.58.12 1.26 1.26 0 00.56-.17z"/><path d="M12.33 107.16l2.38-5.44h.74l-2.33 5.38h3.78v.63h-4.57zm3.21-2.52h.68v4.18h-.68zm5.91 1.36v.65h-3.29V106zm.97-2.25h.73l1.66 4.7-.37.78zm4.49 0L24.75 110a1.44 1.44 0 01-.31.55 1 1 0 01-.46.29 2.31 2.31 0 01-.69.09h-.2v-.66h.2a1 1 0 00.62-.18 1.32 1.32 0 00.4-.61l1.88-5.73zm1.66 4.87a1.67 1.67 0 01-.76-.77 2.6 2.6 0 01-.27-1.23v-.57a3 3 0 01.26-1.29 1.8 1.8 0 01.73-.81 2.28 2.28 0 011.15-.28 2.06 2.06 0 011.08.28 1.75 1.75 0 01.69.8 3 3 0 01.24 1.26v.58H28V106h3a1.79 1.79 0 00-.35-1.17 1.27 1.27 0 00-1-.41 1.4 1.4 0 00-1.1.43 1.83 1.83 0 00-.35 1.15v.65a1.63 1.63 0 00.41 1.18 1.54 1.54 0 001.16.42 1.72 1.72 0 00.69-.15 1.85 1.85 0 00.61-.42l.48.46a2.53 2.53 0 01-.84.56 2.41 2.41 0 01-.94.2 2.47 2.47 0 01-1.2-.28zm4.73-.14a1.41 1.41 0 01-.49-1.16 1.39 1.39 0 01.45-1.11 1.83 1.83 0 011.26-.39h1.68l.07.65h-1.75a1.14 1.14 0 00-.75.23.74.74 0 00-.27.62.76.76 0 00.34.67 1.57 1.57 0 00.94.24 3 3 0 001-.14c.24-.08.36-.21.36-.37l.1.67a1.49 1.49 0 01-.39.27 2.63 2.63 0 01-.54.17 3.37 3.37 0 01-.66.06 2.07 2.07 0 01-1.35-.41zm2.86-2.88a1.29 1.29 0 00-.33-.95 1.23 1.23 0 00-.94-.34 2.1 2.1 0 00-.7.12 1.84 1.84 0 00-.62.33l-.51-.35a1.87 1.87 0 01.76-.54 2.68 2.68 0 011-.2 2.39 2.39 0 011.08.23 1.53 1.53 0 01.69.64 2.13 2.13 0 01.23 1v3.26h-.7zm2.21-1.85h.71v5.07h-.71zm2.6.66a1.87 1.87 0 00-.55-.08 1.34 1.34 0 00-1 .34 1.25 1.25 0 00-.35.94l-.1-1a1.82 1.82 0 01.73-.7 2 2 0 011-.26 1.77 1.77 0 01.63.11 1.28 1.28 0 01.49.29l-.45.59a1.14 1.14 0 00-.37-.23zm5.31 4.4a3 3 0 01-.73-.24 2.68 2.68 0 01-.59-.37l.41-.5a3.3 3.3 0 00.86.43 2.35 2.35 0 00.84.16 2.1 2.1 0 001.13-.29.79.79 0 00.39-.7.62.62 0 00-.19-.5 1.08 1.08 0 00-.48-.23c-.2 0-.47-.07-.82-.09h-.28a5.13 5.13 0 01-.84-.15 1.11 1.11 0 01-.56-.37 1.14 1.14 0 01-.23-.77 1.4 1.4 0 01.24-.83 1.48 1.48 0 01.69-.52 3 3 0 011.1-.19 3.7 3.7 0 01.66.07 4.32 4.32 0 01.64.19 2.73 2.73 0 01.56.3l-.41.48a4.13 4.13 0 00-.75-.32 2.44 2.44 0 00-.73-.11 1.81 1.81 0 00-1 .23.77.77 0 00-.35.68.53.53 0 00.19.45 1 1 0 00.48.2c.19 0 .46.06.8.08h.14a4.31 4.31 0 01.9.13 1.24 1.24 0 01.63.4 1.34 1.34 0 01.25.88 1.37 1.37 0 01-.25.84 1.66 1.66 0 01-.74.53 3.45 3.45 0 01-1.18.18 4.07 4.07 0 01-.78-.05zm3.84-5.06h2.29v.6h-2.29zm.81 4.75a1.51 1.51 0 01-.28-1v-5.23h.7v5.24a.8.8 0 00.14.5.54.54 0 00.44.18h.48v.65h-.58a1.1 1.1 0 01-.9-.34zm3.55-1.67a1.47 1.47 0 00.34 1 1.33 1.33 0 001 .37 1.35 1.35 0 001-.34 1.27 1.27 0 00.34-1l.07 1.06a1.53 1.53 0 01-.61.63 2.12 2.12 0 01-1 .25 1.62 1.62 0 01-1.3-.54 2.32 2.32 0 01-.45-1.52v-3.08h.7zm2.64-3.08h.7v5.07h-.7zm2.88 4.9a1.47 1.47 0 01-.6-.7 2.68 2.68 0 01-.21-1.11v-1.1a2.88 2.88 0 01.2-1.12 1.5 1.5 0 01.58-.7 1.73 1.73 0 01.92-.25 2.32 2.32 0 011 .22 1.6 1.6 0 01.7.71l-.1 1a1.39 1.39 0 00-.15-.63 1.27 1.27 0 00-1.14-.67 1.27 1.27 0 00-1 .38 1.59 1.59 0 00-.35 1.09v1.09a1.55 1.55 0 00.35 1.07 1.27 1.27 0 001 .37 1.25 1.25 0 001.13-.68 1.35 1.35 0 00.16-.64l.07 1.06a1.26 1.26 0 01-.61.67 2.39 2.39 0 01-1 .2 1.78 1.78 0 01-.95-.26zm2.51-6.93h.7v7.1h-.7zm2.36 0h.71v.7h-.71zm0 2h.71v5.07h-.71zm3.24 4.9a1.77 1.77 0 01-.76-.77 2.72 2.72 0 01-.26-1.23v-.57a3 3 0 01.25-1.29 1.85 1.85 0 01.73-.81 2.33 2.33 0 011.15-.28 2.08 2.08 0 011.09.28 1.68 1.68 0 01.68.8 3 3 0 01.24 1.26v.58h-3.66V106h3a1.74 1.74 0 00-.36-1.17 1.25 1.25 0 00-1-.41 1.38 1.38 0 00-1.09.43 1.78 1.78 0 00-.39 1.23v.65a1.63 1.63 0 00.41 1.18 1.56 1.56 0 001.16.42 1.73 1.73 0 00.7-.15 2 2 0 00.61-.42l.48.46a2.75 2.75 0 01-.84.56 2.59 2.59 0 01-2.15-.07zm5.44.19a2.77 2.77 0 01-.72-.24 2.54 2.54 0 01-.6-.37l.41-.5a3.3 3.3 0 00.86.43 2.35 2.35 0 00.84.16 2.1 2.1 0 001.13-.25.79.79 0 00.39-.7.62.62 0 00-.19-.5 1.08 1.08 0 00-.48-.23c-.2 0-.47-.07-.82-.09h-.28a5.13 5.13 0 01-.84-.15 1.11 1.11 0 01-.56-.37 1.14 1.14 0 01-.23-.77 1.4 1.4 0 01.24-.83 1.48 1.48 0 01.69-.52 3 3 0 011.1-.19 3.7 3.7 0 01.66.07 4.32 4.32 0 01.64.19 2.73 2.73 0 01.56.3l-.41.48a4.13 4.13 0 00-.75-.32 2.44 2.44 0 00-.73-.11 1.81 1.81 0 00-1 .23.77.77 0 00-.35.68.53.53 0 00.19.45 1 1 0 00.48.2c.19 0 .46.06.8.08h.14a4.31 4.31 0 01.9.13 1.24 1.24 0 01.63.4 1.34 1.34 0 01.25.88 1.37 1.37 0 01-.25.84 1.66 1.66 0 01-.74.53 3.45 3.45 0 01-1.18.18 4.07 4.07 0 01-.78-.09zM13.19 70.88a1.66 1.66 0 01-.68-.73 2.73 2.73 0 01-.23-1.15 4.2 4.2 0 01.09-.83 6.45 6.45 0 01.27-.85 1 1 0 01.07-.15l.06-.14L14.32 64h.78l-1.81 3.5v-.18a1.06 1.06 0 01.42-.36 1.54 1.54 0 01.63-.12 2 2 0 011 .25 1.58 1.58 0 01.65.72 2.68 2.68 0 01.25 1.19 2.74 2.74 0 01-.24 1.13 1.66 1.66 0 01-.68.75 2.23 2.23 0 01-1.07.25 2.12 2.12 0 01-1.06-.25zm2-.79a1.46 1.46 0 00.34-1 1.71 1.71 0 00-.35-1.14 1.25 1.25 0 00-1-.4 1.13 1.13 0 00-.91.4A1.82 1.82 0 0013 69a1.49 1.49 0 00.34 1 1.35 1.35 0 001.88 0zm5.7-1.9v.65h-3.28v-.65zm.98-2.19h.72l1.66 4.7-.36.78zm4.48 0l-2.15 6.24a1.59 1.59 0 01-.31.55 1.1 1.1 0 01-.47.29 2.24 2.24 0 01-.68.09h-.21v-.66h.21a1 1 0 00.62-.18 1.5 1.5 0 00.4-.61L25.63 66zM28 70.86a1.72 1.72 0 01-.76-.77 2.6 2.6 0 01-.24-1.23v-.57a3 3 0 01.24-1.29 1.85 1.85 0 01.73-.81 2.3 2.3 0 011.15-.28 2.08 2.08 0 011.09.28 1.73 1.73 0 01.68.8 3 3 0 01.24 1.26v.58h-3.66v-.63h3a1.74 1.74 0 00-.35-1.2 1.27 1.27 0 00-1-.41A1.38 1.38 0 0028 67a1.78 1.78 0 00-.39 1.23v.65a1.63 1.63 0 00.41 1.18 1.56 1.56 0 001.16.42 1.76 1.76 0 00.7-.15 2.08 2.08 0 00.61-.42l.48.46a2.75 2.75 0 01-.84.56 2.59 2.59 0 01-2.13-.07zm4.74-.14a1.41 1.41 0 01-.49-1.16 1.39 1.39 0 01.45-1.11 1.86 1.86 0 011.3-.39h1.69l.06.65H34a1.15 1.15 0 00-.76.23.74.74 0 00-.26.62.78.78 0 00.33.67 1.59 1.59 0 00.94.24 3 3 0 001-.14c.24-.08.36-.21.36-.37l.1.67a1.61 1.61 0 01-.38.27 2.55 2.55 0 01-.55.17 3.34 3.34 0 01-.65.06 2.1 2.1 0 01-1.39-.41zm2.86-2.88a1.31 1.31 0 00-.33-1 1.22 1.22 0 00-.93-.34A2.22 2.22 0 0033 67l-.51-.35a1.94 1.94 0 01.76-.54 2.69 2.69 0 011.05-.2 2.39 2.39 0 011.08.23 1.56 1.56 0 01.68.64 2 2 0 01.23 1v3.26h-.7zM37.82 66h.7v5.07h-.7zm2.59.66a1.82 1.82 0 00-.55-.08 1.37 1.37 0 00-1 .34 1.25 1.25 0 00-.35.94l-.1-1a1.89 1.89 0 01.73-.7 2 2 0 011-.26 1.71 1.71 0 01.62.11 1.32 1.32 0 01.5.29l-.46.59a1 1 0 00-.39-.24zm5.31 4.39a2.77 2.77 0 01-.72-.24 3 3 0 01-.6-.37l.41-.5a3.46 3.46 0 00.86.43 2.44 2.44 0 00.84.16 2.1 2.1 0 001.13-.25.8.8 0 00.4-.7.63.63 0 00-.2-.5 1 1 0 00-.48-.23c-.2 0-.47-.07-.82-.09h-.27a4.76 4.76 0 01-.84-.15 1.09 1.09 0 01-.57-.37 1.14 1.14 0 01-.23-.77 1.4 1.4 0 01.24-.83 1.48 1.48 0 01.69-.52 3 3 0 011.1-.19 3.7 3.7 0 01.66.07 4 4 0 01.64.19 2.49 2.49 0 01.56.3l-.4.48a4.22 4.22 0 00-.76-.32 2.44 2.44 0 00-.73-.11 1.83 1.83 0 00-1 .23.79.79 0 00-.35.68.53.53 0 00.19.45 1 1 0 00.48.2c.19 0 .46.06.8.08h.14a4.31 4.31 0 01.91.13 1.26 1.26 0 01.62.4 1.36 1.36 0 01.26.88 1.38 1.38 0 01-.26.84 1.61 1.61 0 01-.74.53 3.41 3.41 0 01-1.18.18 4.15 4.15 0 01-.78-.09zM49.57 66h2.28v.6h-2.28zm.8 4.75a1.51 1.51 0 01-.28-1v-5.24h.7v5.24a.75.75 0 00.15.5.52.52 0 00.43.18h.48v.65h-.57a1.11 1.11 0 01-.91-.34zm3.55-1.68a1.47 1.47 0 00.35 1 1.3 1.3 0 001 .37 1.35 1.35 0 001-.34 1.28 1.28 0 00.35-1l.07 1.06a1.56 1.56 0 01-.62.63 2.09 2.09 0 01-1.05.25 1.58 1.58 0 01-1.29-.54 2.26 2.26 0 01-.46-1.52V66h.7zM56.57 66h.7v5.07h-.7zm2.87 4.89a1.59 1.59 0 01-.6-.7 2.68 2.68 0 01-.21-1.11V68a2.88 2.88 0 01.2-1.12 1.52 1.52 0 01.59-.7 1.68 1.68 0 01.92-.25 2.39 2.39 0 011 .22 1.65 1.65 0 01.7.71l-.11 1a1.39 1.39 0 00-.15-.63 1.15 1.15 0 00-.45-.48 1.19 1.19 0 00-.69-.19 1.27 1.27 0 00-1 .38 1.58 1.58 0 00-.3 1.06v1.09a1.55 1.55 0 00.34 1.07 1.27 1.27 0 001 .37 1.21 1.21 0 00.69-.19 1.33 1.33 0 00.45-.49 1.46 1.46 0 00.18-.65v1.06a1.24 1.24 0 01-.6.67 2.42 2.42 0 01-1 .2 1.79 1.79 0 01-.96-.24zM62 64h.71v7.1H62zm2.32 0H65v.7h-.7zm0 2H65v5.07h-.7zm3.23 4.86a1.69 1.69 0 01-.75-.77 2.6 2.6 0 01-.27-1.23v-.57a3 3 0 01.26-1.29 1.8 1.8 0 01.73-.81 2.28 2.28 0 011.15-.28 2.06 2.06 0 011.08.28 1.75 1.75 0 01.69.8 3 3 0 01.23 1.26v.58H67v-.63h3a1.79 1.79 0 00-.33-1.2 1.27 1.27 0 00-1-.41 1.4 1.4 0 00-1.1.43 1.83 1.83 0 00-.38 1.23v.65a1.59 1.59 0 00.41 1.18 1.54 1.54 0 001.16.42 1.72 1.72 0 00.69-.15 2 2 0 00.61-.42l.48.46a2.53 2.53 0 01-.84.56 2.44 2.44 0 01-.94.2 2.54 2.54 0 01-1.21-.29zm5.45.19a2.77 2.77 0 01-.72-.24 2.68 2.68 0 01-.59-.37l.4-.5a3.46 3.46 0 00.86.43 2.44 2.44 0 00.84.16 2.08 2.08 0 001.13-.25.78.78 0 00.4-.7.65.65 0 00-.19-.5 1.11 1.11 0 00-.49-.23c-.2 0-.47-.07-.82-.09h-.27a4.76 4.76 0 01-.84-.15 1.09 1.09 0 01-.57-.37 1.14 1.14 0 01-.23-.77 1.4 1.4 0 01.24-.83 1.46 1.46 0 01.7-.52 3 3 0 011.09-.19 3.91 3.91 0 01.67.07 4.19 4.19 0 01.63.19 2.49 2.49 0 01.56.3l-.4.48a4.22 4.22 0 00-.76-.32 2.44 2.44 0 00-.73-.11 1.86 1.86 0 00-1 .23.79.79 0 00-.35.68.53.53 0 00.19.45 1 1 0 00.48.2c.19 0 .46.06.8.08h.14a4.31 4.31 0 01.91.13 1.22 1.22 0 01.62.4 1.36 1.36 0 01.26.88 1.38 1.38 0 01-.26.84 1.61 1.61 0 01-.7.57 3.41 3.41 0 01-1.18.18 4.15 4.15 0 01-.82-.13zM13.35 36.61a1.56 1.56 0 01-.74-.67 2 2 0 01-.26-1v-.07a2 2 0 01.26-1 1.82 1.82 0 01.72-.71 1.57 1.57 0 01-.61-.64 1.82 1.82 0 01-.22-.9v-.08a2.08 2.08 0 01.24-1 1.51 1.51 0 01.68-.64 2.67 2.67 0 012.17 0 1.53 1.53 0 01.69.64 2.08 2.08 0 01.23 1v.08a1.83 1.83 0 01-.22.91 1.51 1.51 0 01-.62.63 1.85 1.85 0 01.73.71 2 2 0 01.26 1v.07a2 2 0 01-.25 1 1.61 1.61 0 01-.74.67 2.73 2.73 0 01-1.16.23 2.69 2.69 0 01-1.16-.23zm1.93-.61a1.09 1.09 0 00.49-.46 1.56 1.56 0 00.17-.74 1.51 1.51 0 00-.17-.73 1.11 1.11 0 00-.49-.47 1.65 1.65 0 00-.77-.16 1.7 1.7 0 00-.78.16 1.09 1.09 0 00-.48.47 1.42 1.42 0 00-.17.74 1.39 1.39 0 00.17.73 1.07 1.07 0 00.48.46 1.7 1.7 0 00.78.16 1.65 1.65 0 00.77-.16zm0-3.35a1 1 0 00.45-.45 1.52 1.52 0 00.16-.71v-.07a1.41 1.41 0 00-.16-.67 1 1 0 00-.45-.41 1.8 1.8 0 00-1.44 0 .92.92 0 00-.45.42 1.24 1.24 0 00-.16.66v.08a1.46 1.46 0 00.16.71 1 1 0 00.45.44 1.7 1.7 0 001.44 0zm6.1 1.25v.65H18.1v-.65zm.98-2.2h.72l1.67 4.7-.37.78zm4.49 0L24.69 38a1.44 1.44 0 01-.31.55 1 1 0 01-.47.29 2.2 2.2 0 01-.68.09H23v-.66h.2a1 1 0 00.62-.18 1.32 1.32 0 00.4-.61l1.87-5.73zm1.65 4.87a1.77 1.77 0 01-.76-.77 2.72 2.72 0 01-.26-1.23V34a3.16 3.16 0 01.25-1.29 1.85 1.85 0 01.73-.81 2.33 2.33 0 011.15-.28 2.08 2.08 0 011.09.28 1.68 1.68 0 01.68.8 3 3 0 01.24 1.3v.58H28v-.63h3a1.74 1.74 0 00-.36-1.17 1.25 1.25 0 00-1-.41 1.38 1.38 0 00-1.09.43 1.78 1.78 0 00-.38 1.23v.65a1.59 1.59 0 00.41 1.18 1.52 1.52 0 001.15.42 1.73 1.73 0 00.7-.15 2 2 0 00.61-.42l.48.46a2.75 2.75 0 01-.84.56 2.59 2.59 0 01-2.15-.07zm4.73-.14a1.44 1.44 0 01-.49-1.16 1.39 1.39 0 01.45-1.11 1.86 1.86 0 011.26-.39h1.69l.07.65h-1.75a1.15 1.15 0 00-.76.23.76.76 0 00-.26.62.78.78 0 00.33.67 1.63 1.63 0 00.95.24 3 3 0 001-.14c.24-.08.36-.21.36-.37l.11.67a1.49 1.49 0 01-.39.27 2.63 2.63 0 01-.54.17 3.52 3.52 0 01-.66.06 2.12 2.12 0 01-1.37-.41zm2.86-2.88a1.31 1.31 0 00-.33-.95 1.21 1.21 0 00-.93-.34 2.16 2.16 0 00-.71.12 1.89 1.89 0 00-.61.33l-.51-.35a2 2 0 01.76-.54 2.77 2.77 0 011-.2 2.39 2.39 0 011.08.23 1.51 1.51 0 01.68.64 2 2 0 01.24 1v3.26h-.71zm2.22-1.85H39v5.07h-.7zm2.59.66a1.82 1.82 0 00-.55-.08 1.33 1.33 0 00-1 .34 1.22 1.22 0 00-.36.94l-.1-1a2 2 0 01.73-.7 2 2 0 011-.26 1.81 1.81 0 01.63.11 1.28 1.28 0 01.49.29l-.46.59a1 1 0 00-.38-.23zm5.31 4.4a2.77 2.77 0 01-.72-.24 2.68 2.68 0 01-.59-.37l.4-.5a3.64 3.64 0 00.86.43 2.45 2.45 0 00.85.16 2.07 2.07 0 001.12-.24.78.78 0 00.4-.7.62.62 0 00-.19-.5 1.06 1.06 0 00-.49-.23c-.19 0-.47-.07-.81-.09h-.28a4.76 4.76 0 01-.84-.15 1.06 1.06 0 01-.79-1.14 1.47 1.47 0 01.23-.83 1.46 1.46 0 01.7-.52 3 3 0 011.09-.19 3.71 3.71 0 01.67.07 4.71 4.71 0 01.64.19 2.65 2.65 0 01.55.3l-.4.48a4.13 4.13 0 00-.75-.32 2.51 2.51 0 00-.74-.11 1.86 1.86 0 00-1 .23.79.79 0 00-.35.68.56.56 0 00.19.45 1 1 0 00.48.2c.2 0 .46.06.8.08h.14a4.31 4.31 0 01.91.13 1.24 1.24 0 01.63.4 1.36 1.36 0 01.25.88 1.37 1.37 0 01-.25.84 1.64 1.64 0 01-.75.53 3.35 3.35 0 01-1.17.18 4.17 4.17 0 01-.79-.1zm3.85-5.06h2.28v.6h-2.28zm.81 4.75a1.51 1.51 0 01-.29-1v-5.23h.7v5.24a.75.75 0 00.15.5.53.53 0 00.44.18h.47v.65h-.57a1.1 1.1 0 01-.9-.34zm3.54-1.67a1.47 1.47 0 00.35 1 1.3 1.3 0 001 .37 1.37 1.37 0 001-.34 1.27 1.27 0 00.34-1l.03 1.19a1.53 1.53 0 01-.61.63 2.16 2.16 0 01-1.06.25 1.58 1.58 0 01-1.29-.54 2.26 2.26 0 01-.46-1.52V31.7h.7zm2.65-3.08h.7v5.07h-.7zm2.87 4.9a1.59 1.59 0 01-.6-.7 2.86 2.86 0 01-.2-1.11v-1.1a2.7 2.7 0 01.2-1.12 1.44 1.44 0 01.58-.7 1.71 1.71 0 01.92-.25 2.32 2.32 0 011 .22 1.65 1.65 0 01.7.71l-.1 1a1.28 1.28 0 00-.16-.63 1.2 1.2 0 00-.44-.48 1.23 1.23 0 00-.69-.19 1.26 1.26 0 00-1 .38 1.59 1.59 0 00-.35 1.09v1.09a1.55 1.55 0 00.35 1.07 1.25 1.25 0 001 .37 1.25 1.25 0 001.13-.68 1.48 1.48 0 00.16-.64l.09 1.07a1.26 1.26 0 01-.61.67 2.42 2.42 0 01-1 .2 1.81 1.81 0 01-.98-.27zm2.52-6.93h.7v7.1h-.7zm2.36 0h.7v.7h-.7zm0 2h.7v5.07h-.7zm3.24 4.9a1.72 1.72 0 01-.76-.77 2.6 2.6 0 01-.29-1.23V34a3 3 0 01.25-1.29 1.85 1.85 0 01.75-.81 2.3 2.3 0 011.15-.28 2 2 0 011.08.28 1.75 1.75 0 01.69.8 3 3 0 01.25 1.3v.58h-3.66v-.63h3a1.74 1.74 0 00-.35-1.17 1.27 1.27 0 00-1-.41 1.37 1.37 0 00-1.09.43 1.78 1.78 0 00-.39 1.23v.65a1.63 1.63 0 00.41 1.18 1.54 1.54 0 001.16.42 1.68 1.68 0 00.69-.15 2 2 0 00.62-.42l.48.46a2.75 2.75 0 01-.84.56 2.59 2.59 0 01-2.15-.07zm5.43.19a2.9 2.9 0 01-.72-.24 2.68 2.68 0 01-.59-.37l.4-.5a3.64 3.64 0 00.86.43 2.45 2.45 0 00.85.16A2.07 2.07 0 0075.4 36a.78.78 0 00.4-.7.62.62 0 00-.19-.5 1.06 1.06 0 00-.49-.23 7.86 7.86 0 00-.81-.09H74a4.76 4.76 0 01-.84-.15 1.07 1.07 0 01-.56-.37 1.09 1.09 0 01-.23-.77 1.47 1.47 0 01.23-.83 1.46 1.46 0 01.7-.52 3 3 0 011.09-.19 3.71 3.71 0 01.67.07 4.71 4.71 0 01.64.19 2.42 2.42 0 01.55.3l-.4.48a4.13 4.13 0 00-.75-.32 2.49 2.49 0 00-.73-.11 1.87 1.87 0 00-1 .23.79.79 0 00-.35.68.56.56 0 00.19.45 1 1 0 00.48.2c.2 0 .46.06.8.08h.14a4.31 4.31 0 01.91.13 1.24 1.24 0 01.63.4 1.36 1.36 0 01.25.88 1.37 1.37 0 01-.25.84 1.64 1.64 0 01-.75.53 3.35 3.35 0 01-1.17.18 4.17 4.17 0 01-.77-.1z"/></svg>