<svg xmlns="http://www.w3.org/2000/svg" viewBox="0 0 139.92 44.88"><path d="M136.55 44.88H3.37C1.51 44.88 0 43.37 0 41.51V3.37C0 1.51 1.51 0 3.37 0h133.18c1.86 0 3.37 1.51 3.37 3.37v38.14c0 1.86-1.51 3.37-3.37 3.37z" fill="#d75d90"/><path d="M38.89 12.06h1.78v7.7h-1.78v-7.7zm10.3 4.4c.25.33.37.73.37 1.21 0 .67-.26 1.19-.79 1.56-.52.36-1.29.54-2.29.54H42.5v-7.7h3.76c.94 0 1.66.18 2.16.54s.75.85.75 1.46c0 .37-.09.71-.27 1-.18.29-.43.52-.75.69.44.14.79.37 1.04.7zm-4.92-3.05v1.82h1.77c.44 0 .77-.08 1-.23.23-.15.34-.38.34-.68s-.11-.53-.34-.68c-.23-.15-.56-.23-1-.23h-1.77zm3.14 4.78c.24-.15.36-.39.36-.71 0-.64-.47-.96-1.42-.96h-2.08v1.9h2.08c.47 0 .82-.07 1.06-.23zm6.62-6.13h3.5c.84 0 1.57.16 2.22.48.64.32 1.14.77 1.5 1.35.36.58.53 1.25.53 2.02s-.18 1.44-.53 2.02c-.36.58-.85 1.03-1.5 1.35s-1.38.48-2.22.48h-3.5v-7.7zm3.41 6.24c.77 0 1.38-.21 1.84-.64.46-.43.69-1.01.69-1.74s-.23-1.31-.69-1.74c-.46-.43-1.07-.64-1.84-.64h-1.63v4.77h1.63zm5.64-5.55c-.2-.18-.3-.41-.3-.68s.1-.5.3-.68c.2-.18.45-.28.77-.28s.57.09.77.26c.2.18.3.4.3.66 0 .29-.1.52-.3.71-.2.19-.45.28-.77.28s-.57-.09-.77-.27zm-.09 1.1h1.72v5.92h-1.72v-5.92zm8.31.29c.45.25.8.61 1.06 1.07s.38.99.38 1.6-.13 1.14-.38 1.6-.61.81-1.06 1.07c-.45.25-.95.38-1.5.38-.76 0-1.35-.24-1.78-.71v2.76H66.3v-8.05h1.64v.68c.43-.51 1.04-.77 1.86-.77.55-.01 1.05.12 1.5.37zM70.59 18c.28-.3.42-.69.42-1.19s-.14-.9-.42-1.19c-.28-.3-.64-.45-1.08-.45s-.8.15-1.08.45c-.28.3-.42.69-.42 1.19s.14.9.42 1.19c.28.3.64.45 1.08.45s.79-.15 1.08-.45zm3.3-6.4h1.72v8.16h-1.72V11.6zm4.45 7.86c-.5-.26-.88-.62-1.16-1.08-.28-.46-.42-.99-.42-1.57s.14-1.11.42-1.57c.28-.46.67-.82 1.16-1.08.5-.26 1.05-.39 1.68-.39.62 0 1.18.13 1.67.39s.88.62 1.15 1.08c.28.46.42.99.42 1.57s-.14 1.11-.42 1.57c-.28.46-.66.82-1.15 1.08-.49.26-1.05.39-1.67.39-.62 0-1.18-.13-1.68-.39zM81.1 18c.28-.3.42-.69.42-1.19s-.14-.9-.42-1.19-.64-.45-1.08-.45c-.44 0-.8.15-1.09.45-.29.3-.43.69-.43 1.19s.14.9.43 1.19c.29.3.65.45 1.09.45.44-.01.8-.15 1.08-.45zm12.65-3.59c.44.44.65 1.09.65 1.96v3.39h-1.72v-3.12c0-.47-.1-.82-.29-1.05-.19-.23-.47-.35-.83-.35-.4 0-.72.13-.96.39s-.35.65-.35 1.16v2.97h-1.72v-3.12c0-.93-.37-1.4-1.12-1.4-.4 0-.71.13-.95.39s-.35.65-.35 1.16v2.97h-1.72v-5.92h1.64v.68c.22-.25.49-.44.81-.57.32-.13.67-.2 1.05-.2.42 0 .8.08 1.13.25s.61.41.81.72c.24-.31.55-.55.92-.71s.78-.25 1.22-.25c.76 0 1.35.22 1.78.65zm6.7 0c.49.44.74 1.09.74 1.97v3.38h-1.61v-.74c-.32.55-.92.83-1.8.83-.46 0-.85-.08-1.18-.23-.33-.15-.59-.37-.76-.64a1.62 1.62 0 01-.26-.92c0-.55.21-.98.62-1.3s1.05-.47 1.92-.47h1.36c0-.37-.11-.66-.34-.86-.23-.2-.57-.3-1.02-.3-.32 0-.63.05-.93.15-.3.1-.56.23-.78.4l-.62-1.2c.32-.23.71-.4 1.16-.53.45-.12.92-.19 1.39-.19.91 0 1.62.22 2.11.65zm-1.47 4.08c.23-.14.39-.34.48-.6v-.6h-1.18c-.7 0-1.06.23-1.06.69 0 .22.09.39.26.52s.41.19.71.19c.31.01.57-.06.79-.2zm-57.56 8.85c.45.25.8.61 1.06 1.07.26.46.38.99.38 1.6s-.13 1.14-.38 1.6c-.26.46-.61.81-1.06 1.07-.45.25-.95.38-1.5.38-.76 0-1.35-.24-1.78-.71v2.76h-1.72v-8.05h1.64v.68c.43-.51 1.04-.77 1.86-.77.54-.01 1.04.12 1.5.37zm-.72 3.86c.28-.3.42-.69.42-1.19s-.14-.9-.42-1.19c-.28-.3-.64-.45-1.08-.45s-.8.15-1.08.45c-.28.3-.42.69-.42 1.19s.14.9.42 1.19c.28.3.64.45 1.08.45s.8-.15 1.08-.45zm5.78-4.02c.35-.15.75-.22 1.2-.22v1.58c-.19-.01-.32-.02-.38-.02-.49 0-.88.14-1.16.41-.28.27-.42.69-.42 1.24v2.79H44v-5.92h1.64v.78c.21-.28.49-.49.84-.64zm3.31 5.48c-.5-.26-.88-.62-1.16-1.08s-.42-.99-.42-1.57.14-1.11.42-1.57.67-.82 1.16-1.08c.49-.26 1.05-.39 1.68-.39s1.18.13 1.67.39.88.62 1.16 1.08c.28.46.42.99.42 1.57s-.14 1.11-.42 1.57c-.28.46-.66.82-1.16 1.08-.49.26-1.05.39-1.67.39s-1.19-.13-1.68-.39zm2.76-1.46c.28-.3.42-.69.42-1.19s-.14-.9-.42-1.19-.64-.45-1.08-.45-.8.15-1.09.45-.43.69-.43 1.19.14.9.43 1.19.65.45 1.09.45.8-.15 1.08-.45zm9.41-4.15v4.93c0 1.09-.28 1.89-.85 2.42-.56.53-1.39.79-2.47.79-.57 0-1.11-.07-1.63-.21-.51-.14-.94-.34-1.28-.6l.68-1.23c.25.21.56.37.95.49.38.12.76.18 1.14.18.59 0 1.03-.13 1.31-.4s.42-.67.42-1.21v-.25c-.45.49-1.07.74-1.87.74-.54 0-1.04-.12-1.49-.36-.45-.24-.81-.57-1.07-1.01-.26-.43-.4-.93-.4-1.5 0-.56.13-1.06.4-1.5s.62-.77 1.07-1.01c.45-.24.95-.36 1.49-.36.86 0 1.51.28 1.96.85v-.76h1.64zm-2.13 3.82c.29-.27.43-.62.43-1.05 0-.43-.15-.78-.43-1.05-.29-.27-.66-.4-1.12-.4s-.83.13-1.12.4c-.29.27-.44.62-.44 1.05 0 .43.15.78.44 1.05.29.27.67.4 1.12.4s.83-.13 1.12-.4zm6.19-3.69c.35-.15.75-.22 1.2-.22v1.58c-.19-.01-.32-.02-.38-.02-.49 0-.88.14-1.16.41-.28.27-.42.69-.42 1.24v2.79h-1.72v-5.92h1.64v.78c.22-.28.49-.49.84-.64zm6.7.43c.49.44.74 1.09.74 1.97v3.38h-1.61v-.74c-.32.55-.92.83-1.8.83-.46 0-.85-.08-1.18-.23-.33-.15-.59-.37-.76-.64a1.62 1.62 0 01-.26-.92c0-.55.21-.98.62-1.3.41-.32 1.05-.47 1.92-.47h1.36c0-.37-.11-.66-.34-.86-.23-.2-.57-.3-1.02-.3-.32 0-.63.05-.93.15-.3.1-.56.23-.78.4l-.62-1.2c.32-.23.71-.4 1.16-.53.45-.12.91-.19 1.39-.19.91 0 1.61.22 2.11.65zm-1.47 4.08c.23-.14.39-.34.48-.6v-.6h-1.18c-.7 0-1.06.23-1.06.69 0 .22.09.39.26.52s.41.19.71.19c.31.01.57-.06.79-.2zm13.1-4.08c.43.44.65 1.09.65 1.97v3.39h-1.72v-3.12c0-.47-.1-.82-.29-1.05-.19-.23-.47-.35-.83-.35-.4 0-.72.13-.96.39s-.35.65-.35 1.16v2.97h-1.72v-3.12c0-.93-.37-1.4-1.12-1.4-.4 0-.71.13-.95.39s-.35.65-.35 1.16v2.97H75v-5.92h1.64v.68c.22-.25.49-.44.81-.57.32-.13.67-.2 1.05-.2.42 0 .8.08 1.13.25s.61.41.81.72c.24-.31.55-.55.92-.71s.78-.25 1.22-.25c.74-.01 1.33.21 1.77.64zm11.54 0c.44.44.65 1.09.65 1.96v3.39h-1.72v-3.12c0-.47-.1-.82-.29-1.05-.19-.23-.47-.35-.83-.35-.4 0-.72.13-.96.39s-.35.65-.35 1.16v2.97h-1.72v-3.12c0-.93-.37-1.4-1.12-1.4-.4 0-.71.13-.95.39s-.35.65-.35 1.16v2.97h-1.72v-5.92h1.64v.68c.22-.25.49-.44.81-.57.32-.13.67-.2 1.05-.2.42 0 .8.08 1.13.25s.61.41.81.72c.24-.31.55-.55.92-.71s.78-.25 1.22-.25c.75 0 1.34.22 1.78.65zm8.02 2.88h-4.48c.08.37.27.66.57.87.3.21.67.32 1.12.32.31 0 .58-.05.82-.14.24-.09.46-.24.67-.43l.91.99c-.56.64-1.37.96-2.44.96-.67 0-1.26-.13-1.77-.39a2.9 2.9 0 01-1.19-1.08c-.28-.46-.42-.99-.42-1.57 0-.58.14-1.1.41-1.57.27-.47.65-.83 1.13-1.09.48-.26 1.02-.39 1.61-.39.58 0 1.1.12 1.57.37s.84.61 1.11 1.07.4 1.01.4 1.62c.02.02 0 .17-.02.46zm-4.01-1.9c-.26.22-.43.52-.48.9h2.92c-.06-.37-.22-.67-.48-.9a1.47 1.47 0 00-.97-.34c-.4.01-.73.12-.99.34z" fill="#fff"/></svg>