<svg version="1.1" id="Vrstva_1" xmlns="http://www.w3.org/2000/svg" x="0" y="0" viewBox="0 0 338 338" xml:space="preserve"><style>.st0{fill:#010202}</style><g id="XMLID_10_"><path id="XMLID_62_" class="st0" d="M242.6 108c-7.6 0-11.2 2.1-11.2 2.3 0 0-18.8 38.4-19.1 39.1 0-1.1-7.7-39.1-7.7-39.1s-2.9-2.3-10.7-2.3c-8.8 0-12.8 2.8-12.8 2.8l16.3 64.3s2.9 2.3 11.1 2.3c8.4 0 11.7-2.3 11.7-2.3l34.4-64.3c-.2-.2-3.5-2.8-12-2.8z"/><path id="XMLID_69_" class="st0" d="M151.8 107.2c-21.4 0-40.2 12.9-40.2 42 0 19.2 11.5 29.2 30.1 29.2 16.4 0 25.7-7.1 25.7-7.1 4-5.5 1.7-13.3-2.7-15.9 0 0-9.7 5.7-19.4 5.7-7.7 0-11.2-5.3-10.7-11.9h40.5l1.3-9.5c3.1-22-6.1-32.5-24.6-32.5zm1.4 31.1H136c1.5-10.1 5.1-14 11.2-14 6 0 7.4 4.6 6 14z"/><g id="XMLID_11_"><path id="XMLID_20_" class="st0" d="M171.3 256.2c0 1.8 1.1 2.9 3.6 2.9 1.9 0 2.9-1 3.3-1.4V254c-.7-.2-1.8-.4-3-.4-2.9 0-3.9 1.3-3.9 2.6z"/><path id="XMLID_21_" class="st0" d="M212.1 286.3c-3.2 0-4.4 2.3-4.4 6.2 0 3.9 1.3 6.2 4.4 6.2 3.1 0 4.4-2.3 4.4-6.2 0-3.9-1.3-6.2-4.4-6.2z"/><path id="XMLID_57_" class="st0" d="M141.3 286.3c-3.2 0-4.4 2.3-4.4 6.2 0 3.9 1.3 6.2 4.4 6.2 3.1 0 4.4-2.3 4.4-6.2 0-3.9-1.2-6.2-4.4-6.2z"/><path id="XMLID_65_" class="st0" d="M169 0C75.7 0 0 75.7 0 169s75.7 169 169 169 169-75.7 169-169S262.3 0 169 0zM95 259.5s-2.6 2.2-7.5 2.2c-7.3 0-10.7-4.7-10.7-11.8s3.4-11.8 10.8-11.8c3.2 0 4.8.7 5.8 1.3.1 1.2-.8 2.2-1.3 2.6 0 0-1.9-1.1-4.3-1.1-4.5 0-7.3 3.7-7.3 9.1 0 5.2 2.5 8.9 7.2 8.9 1.9 0 3.9-.7 3.9-.7v-5.7h-6.4s-.4-.4-.4-1.3c0-1 .4-1.4.4-1.4H95v9.7zm8.5 1.7s-.5-2.2-1.8-5.8l-4-10.7s.5-.4 1.8-.4 1.8.3 1.8.3l3.8 10.8c.4 1.3.9 3.1.9 3.3 0-.1.6-1.9 1.1-3.3l4-10.8s.2-.3 1.5-.3 1.8.4 1.8.4l-9.1 24.7c-.3.2-1.1.3-1.9.3-.7 0-1.4-.1-1.5-.3l2.9-8c-.9.1-1.3-.2-1.3-.2zm8.8 39.9H98.4V278h13.2s.4.4.4 1.4-.4 1.4-.4 1.4h-9.4v6.7h7.7s.4.4.4 1.4c0 1-.4 1.4-.4 1.4h-7.7v8.2h10.1s.4.4.4 1.4-.4 1.2-.4 1.2zm12.2-.4s-.5.4-1.8.4-1.8-.3-1.8-.3l-6.6-16.4s.5-.4 1.8-.4 1.8.3 1.8.3l3.5 8.8c.7 1.7 1.3 4.4 1.4 4.6 0-.1.6-2.8 1.4-4.6l3.6-8.8s.2-.3 1.5-.3 1.8.4 1.8.4l-6.6 16.3zm8-51.6v12.1s-.5.4-1.8.4-1.8-.4-1.8-.4v-10.8c0-2.3-.9-3.6-3.1-3.6-2.6 0-3.8 1.9-4.1 2.3v12.1s-.5.4-1.8.4-1.8-.4-1.8-.4v-16.4s.5-.4 1.8-.4 1.8.4 1.8.4v2s2-2.6 5.7-2.6c2 0 3.9 1.1 4.7 2.9 1.2-1.5 2.7-2.9 5.8-2.9 3.6 0 5.6 1.8 5.6 5.8v8.2c0 1.2.2 1.5 1.3 1.5 0 0 .3.4.3 1 0 0-.6 1.1-2.6 1.1s-2.5-1.3-2.5-1.3v-10.1c0-2.3-1-3.6-3.2-3.6-2.3-.1-3.6 1.1-4.3 2.3zm8.8 52.2c-5.3 0-8-3.1-8-8.8 0-5.7 2.7-8.8 8-8.8s8 3.1 8 8.8c0 5.7-2.7 8.8-8 8.8zm15.1 0c-2 0-2.5-1.3-2.5-1.3v-23.3s.5-.4 1.8-.4 1.8.4 1.8.4v20.9c0 1.4.4 1.6 1.3 1.6 0 0 .3.4.3 1 0 0-.7 1.1-2.7 1.1zm3.4-40.9v-10.1c0-2.3-.9-3.6-3.1-3.6-2.6 0-3.8 1.9-4.1 2.3v12.1s-.5.4-1.8.4-1.8-.4-1.8-.4v-16.4s.5-.4 1.8-.4 1.8.4 1.8.4v1.9c.7-.9 2.1-2.5 5.4-2.5 3.5 0 5.5 1.8 5.5 5.8v8.1c0 1.4.2 1.6 1.3 1.6 0 0 .3.4.3 1 0 0-.6 1.1-2.6 1.1-2.2 0-2.7-1.3-2.7-1.3zm17.1 40.9c-1.5 0-2.4-.9-2.4-1.9v-.8c-1.2 1.4-2.7 2.7-5.8 2.7-3.6 0-5.6-1.8-5.6-5.8v-11.2s.5-.4 1.8-.4 1.8.4 1.8.4v10.8c0 2.3 1 3.6 3.1 3.6 2.6 0 3.9-1.9 4.2-2.3v-12.1s.5-.4 1.8-.4 1.8.4 1.8.4v13.3c0 1.3.3 1.6 1.3 1.6 0 0 .3.4.3 1 0 0-.6 1.1-2.3 1.1zm1.9-41.5c-.5.5-1.8 1.9-4.4 1.9-3.7 0-6.7-1.7-6.7-5.4 0-2.5 1.5-4.9 6.9-4.9 1.5 0 2.9.2 3.7.4v-1.7c0-2.3-1.1-3.4-3.6-3.4-2.7 0-4.2 1.3-4.8 1.6-.6-.3-1.3-1.2-1.2-2.2.6-.3 2.6-1.9 6.5-1.9 4.2 0 6.6 1.9 6.6 5.7v8.1c0 1.1.3 1.7 1.3 1.7 0 0 .3.4.3 1 0 0-.7 1.1-2.2 1.1-1.6-.1-2.4-1.3-2.4-2zm-5.6-19.6l5.9-3c.7.4 1.5 2.2 1.3 2.9l-6.3 2.3c-.6-.4-1.1-1.5-.9-2.2zm18.9 60.1c-.3.3-1.1 1-3.5 1-3.5 0-4.6-1.8-4.6-5.9v-9.1h-1.2l-1.4-.6c0-1.2.2-1.8.2-1.8h2.3v-4.3s.5-.3 1.8-.3c1.2 0 1.8.3 1.8.3v4.3h3.6s.3.4.3 1.2c0 .9-.3 1.3-.3 1.3h-3.6v9c0 2.2.4 3.4 1.8 3.4 1.2 0 1.8-.8 1.8-.8 1 .1 1.4 1.4 1 2.3zm7.4.4s-.5.4-1.8.4-1.8-.4-1.8-.4v-16.4s.5-.4 1.8-.4 1.8.4 1.8.4v16.4zm.1-18.9s-.5.4-1.9.4-2-.4-2-.4v-2.6s.5-.4 2-.4c1.4 0 1.9.3 2 .4v2.6zm.9-20.3h-14.1s-.4-.4-.4-1.3l9.8-13.3h-8.7s-.4-.5-.4-1.3.4-1.3.4-1.3h13.3s.4.3.4 1.2l-9.9 13.3h9.6s.4.4.4 1.3c0 1-.4 1.4-.4 1.4zm11.6 39.8c-5.3 0-8-3.1-8-8.8 0-5.7 2.7-8.8 8-8.8s8 3.1 8 8.8c0 5.7-2.7 8.8-8 8.8zm-5.1-58.8c-1.5 0-2-.4-2-.4v-2.6s.5-.4 2-.4c1.4 0 1.9.3 2 .4v2.6c-.1 0-.6.4-2 .4zm1.7 2.2v16.4s-.5.4-1.8.4-1.8-.4-1.8-.4v-16.4s.5-.4 1.8-.4 1.8.4 1.8.4zm12.1 14.4c2.6 0 3.9-1.9 4.2-2.3v-12.1s.5-.4 1.8-.4 1.8.4 1.8.4V258c0 1.3.3 1.6 1.3 1.6 0 0 .3.4.3 1 0 0-.6 1.1-2.3 1.1-1.5 0-2.4-.9-2.4-1.9v-.8c-1.2 1.4-2.7 2.7-5.8 2.7-3.6 0-5.6-1.8-5.6-5.8v-11.2s.5-.4 1.8-.4 1.8.4 1.8.4v10.8c0 2.3 1 3.6 3.1 3.6zm17.3 42.2c-2 0-2.6-1.3-2.6-1.3v-10.1c0-2.3-.9-3.6-3.1-3.6-2.6 0-3.8 1.9-4.1 2.3v12.1s-.5.4-1.8.4-1.8-.4-1.8-.4v-16.4s.5-.4 1.8-.4 1.8.4 1.8.4v1.9c.7-.9 2.1-2.5 5.4-2.5 3.5 0 5.5 1.8 5.5 5.8v8.1c0 1.4.2 1.6 1.3 1.6 0 0 .3.4.3 1-.1 0-.7 1.1-2.7 1.1zm20.5-39.6c-2 0-2.5-1.3-2.5-1.3v-10.1c0-2.3-1-3.6-3.2-3.6-2.1 0-3.3 1.2-4.1 2.4v12.1s-.5.4-1.8.4-1.8-.4-1.8-.4v-10.8c0-2.3-.9-3.6-3.1-3.6-2.6 0-3.8 1.9-4.1 2.3v12.1s-.5.4-1.8.4-1.8-.4-1.8-.4v-16.4s.5-.4 1.8-.4 1.8.4 1.8.4v2s2-2.6 5.7-2.6c2 0 3.9 1.1 4.7 2.9 1.2-1.5 2.7-2.9 5.8-2.9 3.6 0 5.6 1.8 5.6 5.8v8.2c0 1.2.2 1.5 1.3 1.5 0 0 .3.4.3 1-.2-.1-.8 1-2.8 1zm-111.3-42.6c-35.1 0-66.2-16.4-83.2-40.9.5 0 1 .1 1.5.1 24.1 0 35.8-12.3 35.8-12.3l5.6-40.1H67.5s-4 3.6-4 11.2c0 4.5 1.6 6.5 1.6 6.5h18.1l-2.1 14.5s-6.5 2.1-12 2.1c-11.9 0-17.5-9.9-17.5-23.2 0-20.7 10.9-35.8 27.2-35.8 8.5 0 15.3 4.7 15.3 4.7 4.1-1.6 11.2-8.5 11.6-16.5-4.7-2.4-12.1-6.3-26.2-6.3-2.7 0-5.3.2-7.8.5 17.8-19.2 45.2-31.5 75.6-31.5 51.2 0 112.8 23 136.9 55.2-20.5 1.7-35.3 15.3-35.3 41.6 0 16.8 8.6 26.2 22.2 28.6-29.2 24.9-80.2 41.6-123.8 41.6zm132.8-58.2c-6-.4-8.6-5.5-8.1-13.9.8-13.5 6-23.2 15.6-22.6 6.1.4 8.6 5.5 8.1 13.9-.9 13.2-5.8 23.2-15.6 22.6z"/></g></g></svg>