<svg xmlns="http://www.w3.org/2000/svg" viewBox="0 0 130.72 109.21"><g data-name="Layer 2"><path d="M10.87 66.8C7.64 49.71 33.47 29.15 60.9 24s46.1 7 49.3 24.06-9.7 35.21-37.13 40.39-59-4.55-62.2-21.65" fill="#e66da3"/><path d="M37.73 46.94h1.46v6.3h-1.46zm8.43 3.59a1.62 1.62 0 01.3 1 1.45 1.45 0 01-.64 1.27 3.26 3.26 0 01-1.88.45h-3.25v-6.3h3.07a3 3 0 011.77.44 1.39 1.39 0 01.62 1.19 1.5 1.5 0 01-.22.82 1.56 1.56 0 01-.62.57 1.65 1.65 0 01.85.56zm-4-2.5v1.49h1.44a1.42 1.42 0 00.82-.19.63.63 0 00.28-.56.61.61 0 00-.28-.55 1.5 1.5 0 00-.82-.19zM44.7 52a.65.65 0 00.3-.59c0-.52-.39-.78-1.16-.78h-1.7v1.56h1.7a1.54 1.54 0 00.86-.19zm5.42-5.06H53a4 4 0 011.81.39 2.93 2.93 0 011.19 1.1 3.11 3.11 0 01.43 1.66 3.08 3.08 0 01-.43 1.65 3 3 0 01-1.23 1.11 4 4 0 01-1.81.39h-2.84zM52.91 52a2.14 2.14 0 001.51-.53 1.86 1.86 0 00.58-1.38 1.88 1.88 0 00-.56-1.43 2.14 2.14 0 00-1.51-.53h-1.35V52zm4.61-4.51a.71.71 0 01-.24-.55.74.74 0 01.24-.56 1 1 0 011.26 0 .66.66 0 01.25.54.74.74 0 01-.25.58.89.89 0 01-.63.23.92.92 0 01-.63-.24zm-.07.9h1.41v4.85h-1.41zm6.8.24a2.23 2.23 0 01.87.88 2.62 2.62 0 01.32 1.31 2.67 2.67 0 01-.32 1.31 2.27 2.27 0 01-.87.87 2.44 2.44 0 01-1.23.31 1.88 1.88 0 01-1.46-.59V55h-1.4v-6.61h1.34V49a1.87 1.87 0 011.5-.68 2.55 2.55 0 011.25.31zm-.58 3.16a1.57 1.57 0 000-1.95 1.26 1.26 0 00-1.78 0 1.57 1.57 0 000 1.95 1.26 1.26 0 001.78 0zm2.7-5.23h1.4v6.68h-1.4zM70 53a2.38 2.38 0 01-1.29-2.17 2.44 2.44 0 01.34-1.29 2.4 2.4 0 011-.89 3.09 3.09 0 012.74 0 2.4 2.4 0 011 .89 2.44 2.44 0 01.21 1.28A2.38 2.38 0 0172.75 53 3.09 3.09 0 0170 53zm2.26-1.2a1.53 1.53 0 000-1.95 1.19 1.19 0 00-.89-.37 1.21 1.21 0 00-.89.37 1.53 1.53 0 000 1.95 1.17 1.17 0 00.89.37 1.16 1.16 0 00.9-.38zm10.36-2.94a2.17 2.17 0 01.54 1.6v2.78h-1.41v-2.56a1.32 1.32 0 00-.24-.86.83.83 0 00-.68-.28 1 1 0 00-.78.32 1.38 1.38 0 00-.29 1v2.43h-1.4v-2.61c0-.76-.31-1.14-.92-1.14a1 1 0 00-.77.32 1.34 1.34 0 00-.29 1v2.43H75v-4.9h1.34V49a1.85 1.85 0 01.66-.47 2.35 2.35 0 01.86-.16 2.11 2.11 0 01.92.2 1.74 1.74 0 01.67.59 2 2 0 01.75-.58 2.36 2.36 0 011-.21 2 2 0 011.42.49zm5.48 0a2 2 0 01.6 1.61v2.77h-1.31v-.61a1.58 1.58 0 01-1.48.68 2.27 2.27 0 01-1-.19 1.46 1.46 0 01-.62-.52 1.33 1.33 0 01-.22-.76 1.26 1.26 0 01.51-1.06 2.57 2.57 0 011.57-.39h1.15a.9.9 0 00-.28-.7 1.22 1.22 0 00-.84-.25 2.46 2.46 0 00-.76.12 2 2 0 00-.64.33l-.5-1a3 3 0 011-.43 4 4 0 011.14-.16 2.53 2.53 0 011.68.56zm-1.2 3.34a.93.93 0 00.4-.49v-.5h-1c-.57 0-.86.19-.86.57a.52.52 0 00.21.43 1 1 0 00.58.15 1.24 1.24 0 00.67-.16zm-47.1 7.23a2.23 2.23 0 01.87.88 2.62 2.62 0 01.33 1.31 2.67 2.67 0 01-.31 1.31 2.27 2.27 0 01-.87.87 2.44 2.44 0 01-1.23.31 1.88 1.88 0 01-1.46-.59v2.26h-1.4v-6.59h1.34v.56a1.86 1.86 0 011.52-.63 2.55 2.55 0 011.21.31zm-.59 3.16a1.53 1.53 0 000-2 1.17 1.17 0 00-.88-.37 1.19 1.19 0 00-.89.37 1.57 1.57 0 000 2 1.16 1.16 0 00.89.37 1.13 1.13 0 00.88-.37zm4.73-3.29a2.5 2.5 0 011-.18v1.3h-.32a1.29 1.29 0 00-1 .34 1.38 1.38 0 00-.34 1V64h-1.4v-4.81h1.34v.64a1.57 1.57 0 01.72-.53zm2.71 4.49a2.33 2.33 0 01-.95-.89 2.4 2.4 0 01-.34-1.28 2.44 2.44 0 01.34-1.29 2.33 2.33 0 01.95-.89 3.09 3.09 0 012.74 0 2.31 2.31 0 01.94.89 2.45 2.45 0 01.35 1.29 2.41 2.41 0 01-.35 1.28 2.31 2.31 0 01-.94.89 3.09 3.09 0 01-2.74 0zm2.26-1.2a1.57 1.57 0 000-2 1.26 1.26 0 00-1.78 0 1.53 1.53 0 000 2 1.26 1.26 0 001.78 0zm7.7-3.4v4a2.58 2.58 0 01-.7 2 2.85 2.85 0 01-2 .64 4.8 4.8 0 01-1.33-.17 3 3 0 01-1.05-.49l.56-1a2.24 2.24 0 00.77.4 3.13 3.13 0 00.94.15 1.53 1.53 0 001.08-.33 1.31 1.31 0 00.34-1v-.19a2 2 0 01-1.53.6 2.53 2.53 0 01-1.22-.29 2.22 2.22 0 01-.87-.82 2.31 2.31 0 01-.33-1.23 2.25 2.25 0 01.33-1.22 2.08 2.08 0 01.87-.82 2.53 2.53 0 011.22-.3 1.9 1.9 0 011.6.7v-.63zm-1.75 3.13a1.1 1.1 0 00.36-.86 1.12 1.12 0 00-.36-.86 1.27 1.27 0 00-.91-.33 1.31 1.31 0 00-.92.33 1.12 1.12 0 00-.36.86 1.1 1.1 0 00.36.86 1.31 1.31 0 00.92.33 1.27 1.27 0 00.91-.33zm5.07-3.02a2.57 2.57 0 011-.18v1.3h-.32a1.26 1.26 0 00-.94.34 1.34 1.34 0 00-.35 1V64h-1.4v-4.81h1.34v.64a1.63 1.63 0 01.67-.53zm5.48.36a2 2 0 01.6 1.61V64H64.7v-.61a1.58 1.58 0 01-1.48.68 2.27 2.27 0 01-1-.19 1.46 1.46 0 01-.62-.52 1.33 1.33 0 01-.22-.76 1.26 1.26 0 01.51-1.06 2.57 2.57 0 011.57-.39h1.12a.9.9 0 00-.28-.7 1.22 1.22 0 00-.84-.25 2.46 2.46 0 00-.76.12 1.88 1.88 0 00-.63.33l-.51-1a3 3 0 01.95-.43 4 4 0 011.14-.16 2.51 2.51 0 011.76.6zM64.21 63a.93.93 0 00.4-.49V62h-1q-.87 0-.87.57A.52.52 0 0063 63a1 1 0 00.58.15 1.22 1.22 0 00.63-.15zm10.72-3.34a2.19 2.19 0 01.53 1.6V64h-1.4v-2.52a1.32 1.32 0 00-.24-.86.84.84 0 00-.68-.28 1 1 0 00-.78.32 1.34 1.34 0 00-.29 1V64h-1.41v-2.52c0-.76-.3-1.14-.91-1.14a1 1 0 00-.78.32 1.38 1.38 0 00-.29 1V64h-1.4v-4.81h1.34v.56a1.85 1.85 0 01.66-.47 2.39 2.39 0 01.86-.16 2.18 2.18 0 01.93.2 1.64 1.64 0 01.66.59 2 2 0 01.76-.58 2.31 2.31 0 011-.21 2 2 0 011.44.54zm9.44 0a2.19 2.19 0 01.53 1.6V64h-1.4v-2.52a1.32 1.32 0 00-.24-.86.84.84 0 00-.68-.28 1 1 0 00-.78.32 1.38 1.38 0 00-.29 1V64h-1.4v-2.52c0-.76-.31-1.14-.92-1.14a1 1 0 00-.78.32 1.38 1.38 0 00-.28 1V64h-1.41v-4.81h1.34v.56a1.85 1.85 0 01.66-.47 2.39 2.39 0 01.86-.16 2.15 2.15 0 01.93.2 1.74 1.74 0 01.67.59 2 2 0 01.75-.58 2.31 2.31 0 011-.21 2 2 0 011.44.54zM90.93 62h-3.66a1.13 1.13 0 00.47.71 1.49 1.49 0 00.92.26 1.78 1.78 0 00.67-.11 1.5 1.5 0 00.54-.36l.75.82a2.52 2.52 0 01-2 .78 3.19 3.19 0 01-1.45-.32 2.32 2.32 0 01-1-.89 2.4 2.4 0 01-.34-1.28 2.53 2.53 0 01.33-1.29 2.41 2.41 0 01.93-.89 2.74 2.74 0 011.32-.32 2.67 2.67 0 011.29.31 2.24 2.24 0 01.9.88 2.59 2.59 0 01.4 1.33s0 .15-.07.37zm-3.28-1.56a1.15 1.15 0 00-.4.74h2.39a1.16 1.16 0 00-.4-.73 1.21 1.21 0 00-.79-.28 1.19 1.19 0 00-.8.28z" fill="#fff"/></g></svg>