<svg version="1.1" id="Layer_1" xmlns="http://www.w3.org/2000/svg" x="0" y="0" viewBox="0 0 130.72 109.21" xml:space="preserve"><style>.st1{enable-background:new}.st2{fill:#1d1d1b}</style><g id="Layer_2_1_"><path d="M111.27 43.94c-5.02-16.65-37.41-23-64.14-14.95S9.46 56.42 14.46 73.1 39.3 99.86 66.03 91.78s50.25-31.21 45.24-47.87" fill="#e9f403"/><g class="st1"><path class="st2" d="M27.83 50.99h1.33v2.56c-.34.26-.74.46-1.19.59-.45.14-.9.21-1.36.21-.65 0-1.24-.14-1.76-.42s-.93-.67-1.23-1.16-.45-1.05-.45-1.68.15-1.18.45-1.68c.3-.5.71-.88 1.24-1.16.53-.28 1.12-.42 1.78-.42.55 0 1.05.09 1.5.28.45.19.83.46 1.13.81l-.94.86c-.45-.47-.99-.71-1.63-.71-.4 0-.76.08-1.07.25s-.56.41-.73.71-.26.66-.26 1.05.09.74.26 1.04c.17.31.42.54.72.72s.66.26 1.06.26c.42 0 .8-.09 1.13-.27v-1.84z"/></g><g class="st1"><path class="st2" d="M35.4 53.07v1.17h-4.88v-6.3h4.76v1.17h-3.31v1.37h2.93v1.13h-2.93v1.46h3.43z"/></g><g class="st1"><path class="st2" d="M42.52 47.94l-2.73 6.3h-1.44l-2.72-6.3h1.58l1.92 4.5 1.94-4.5h1.45z"/></g><g class="st1"><path class="st2" d="M44.26 53.92c-.52-.28-.94-.67-1.23-1.17s-.45-1.05-.45-1.67c0-.62.15-1.17.45-1.67s.71-.88 1.23-1.17c.53-.28 1.11-.42 1.77-.42.65 0 1.24.14 1.76.42a3.167 3.167 0 011.68 2.84c0 .62-.15 1.17-.45 1.67s-.71.88-1.23 1.17c-.52.28-1.11.42-1.76.42-.66.01-1.25-.13-1.77-.42zm2.78-1.07c.3-.17.54-.41.71-.72.17-.31.26-.65.26-1.04s-.09-.74-.26-1.04c-.17-.31-.41-.54-.71-.71-.3-.17-.64-.26-1.01-.26s-.71.09-1.01.26c-.3.17-.54.41-.71.71-.17.31-.26.65-.26 1.04s.09.74.26 1.04c.17.31.41.54.71.72.3.17.64.26 1.01.26s.71-.09 1.01-.26zm6.07 1.26c-.36-.16-.65-.38-.88-.68l.81-.97c.34.46.73.69 1.17.69.59 0 .89-.35.89-1.04v-3h-2.21v-1.17h3.66v4.09c0 .77-.19 1.35-.58 1.74-.38.39-.95.58-1.69.58-.43 0-.82-.08-1.17-.24zm4.85-5.61c-.16-.15-.24-.34-.24-.56s.08-.41.24-.56c.16-.15.37-.22.63-.22s.47.07.63.22c.16.14.24.32.24.54 0 .23-.08.43-.24.58-.16.15-.37.23-.63.23-.26-.01-.47-.08-.63-.23zm-.07.9h1.4v4.84h-1.4V49.4zm6.7 3.76v1.08h-4.32v-.85l2.47-2.92h-2.4V49.4h4.18v.85l-2.47 2.92h2.54zm-.36-5.68l-1.19 1.3H61.8l-1.19-1.3h1.03l.78.67.78-.67h1.03zm5.65 2.39c.37.36.55.89.55 1.6v2.77h-1.4v-2.56c0-.38-.08-.67-.25-.86-.17-.19-.41-.28-.73-.28-.35 0-.64.11-.85.33-.21.22-.32.54-.32.98v2.39h-1.4V49.4h1.34v.57c.19-.2.42-.36.69-.47.28-.11.58-.17.91-.17.61 0 1.09.18 1.46.54zm2.92-2.39h1.51l-1.63 1.3h-1.1l1.22-1.3zm-1.09 1.92h1.4v4.84h-1.4V49.4zm11.08 4.84l-.01-3.78-1.85 3.11h-.66l-1.84-3.03v3.7h-1.37v-6.3h1.21l2.36 3.92 2.32-3.92h1.2l.02 6.3h-1.38zm7.48-2.03h-3.66c.07.3.22.54.47.71.25.17.55.26.92.26.25 0 .48-.04.67-.11.2-.08.38-.19.54-.36l.75.81c-.46.52-1.12.78-2 .78-.55 0-1.03-.11-1.45-.32s-.74-.51-.97-.89c-.23-.38-.34-.81-.34-1.29 0-.47.11-.9.34-1.28.22-.38.53-.68.93-.89s.83-.32 1.32-.32c.47 0 .9.1 1.29.31.38.2.69.5.9.88s.33.82.33 1.33c-.01.02-.02.15-.04.38zm-.71-4.73l-1.19 1.3h-1.24l-1.19-1.3h1.03l.78.67.78-.67h1.03zm-2.57 3.18c-.22.18-.35.43-.4.74h2.38c-.05-.31-.18-.55-.4-.73-.22-.18-.48-.27-.79-.27-.31-.01-.58.08-.79.26zm4.69 3.5c-.38-.1-.69-.22-.92-.37l.47-1.01c.22.14.48.25.78.34s.61.13.9.13c.59 0 .89-.15.89-.44 0-.14-.08-.24-.24-.3-.16-.06-.41-.11-.75-.15-.4-.06-.72-.13-.98-.21s-.48-.22-.67-.41c-.19-.2-.28-.48-.28-.85 0-.31.09-.58.27-.81.18-.24.43-.42.77-.55s.74-.2 1.2-.2c.34 0 .68.04 1.02.11.34.08.62.18.84.31l-.47 1c-.43-.24-.89-.36-1.39-.36-.3 0-.53.04-.68.13-.15.08-.22.19-.22.32 0 .15.08.26.24.32s.42.12.77.17c.4.07.72.14.97.21.25.07.47.21.66.41.19.2.28.47.28.83 0 .3-.09.57-.27.8-.18.23-.44.42-.79.54-.34.13-.75.19-1.23.19-.39 0-.78-.05-1.17-.15z"/></g><g class="st1"><path class="st2" d="M99.13 54.01c-.14.1-.31.18-.51.23-.2.05-.41.08-.63.08-.58 0-1.02-.15-1.34-.44-.31-.29-.47-.73-.47-1.3v-1.99h-.75v-1.08h.75v-1.18h1.4v1.18h1.21v1.08h-1.21v1.97c0 .2.05.36.16.47.11.11.25.17.45.17.22 0 .41-.06.57-.18l.37.99z"/></g><g class="st1"><path class="st2" d="M100.7 53.99c-.41-.21-.72-.51-.95-.89-.23-.38-.34-.81-.34-1.29s.11-.91.34-1.29c.23-.38.54-.67.95-.89s.86-.32 1.37-.32c.51 0 .97.11 1.37.32.4.21.72.51.95.89.23.38.34.81.34 1.29s-.11.91-.34 1.29a2.4 2.4 0 01-.95.89c-.4.21-.86.32-1.37.32-.51 0-.97-.1-1.37-.32zm2.26-1.19c.23-.24.35-.57.35-.98s-.12-.73-.35-.98c-.23-.24-.53-.36-.89-.36s-.66.12-.89.36c-.23.24-.35.57-.35.98s.12.73.35.98c.23.24.53.36.89.36s.66-.12.89-.36z"/></g><path fill="none" d="M13.63 59.09h82.26V92.5H13.63z"/><path d="M36.35 64.11h-1.26v1.66h-.65v-1.66h-3.56v-.47l3.34-4.18h.72l-3.22 4.07h2.74v-1.46h.63v1.46h1.26v.58zm.75-1.06h2.36v.56H37.1v-.56zm7.66-2.02l-2.37 5.3c-.19.44-.41.76-.67.94-.25.19-.56.28-.91.28-.23 0-.44-.04-.64-.11s-.37-.18-.51-.32l.3-.48c.24.24.53.36.86.36.22 0 .4-.06.55-.18.15-.12.3-.32.43-.61l.21-.46-2.12-4.73h.67l1.78 4.02 1.78-4.02h.64zm4.89 2.57h-3.96c.04.49.22.89.57 1.19.34.3.77.45 1.3.45.29 0 .56-.05.81-.16.25-.1.46-.26.64-.46l.36.41c-.21.25-.47.44-.79.58-.31.13-.66.2-1.04.2-.49 0-.92-.1-1.29-.31s-.67-.49-.88-.86-.31-.78-.31-1.24.1-.88.3-1.24c.2-.37.48-.65.83-.85s.73-.31 1.17-.31.83.1 1.18.31c.35.2.62.49.82.85.2.36.3.78.3 1.25l-.01.19zm-3.44-1.62c-.31.29-.48.67-.53 1.14h3.36c-.04-.47-.22-.85-.53-1.14s-.69-.44-1.16-.44c-.44.01-.83.15-1.14.44zm7.7-.52c.33.31.49.77.49 1.37v2.93h-.61v-.74c-.14.25-.36.44-.63.58-.28.14-.61.21-.99.21-.53 0-.95-.13-1.26-.38s-.47-.58-.47-1c0-.4.15-.73.44-.97s.75-.37 1.39-.37h1.5v-.29c0-.41-.11-.72-.34-.93s-.56-.32-1-.32c-.3 0-.59.05-.86.15-.28.1-.51.24-.71.41l-.29-.48c.24-.2.53-.36.86-.47s.68-.16 1.05-.16c.62 0 1.1.15 1.43.46zm-.72 3.6c.26-.17.45-.4.58-.72v-.77h-1.49c-.81 0-1.21.28-1.21.85 0 .28.1.49.31.65s.5.24.88.24c.36 0 .67-.08.93-.25zm4.23-3.82c.3-.16.66-.24 1.1-.24v.62l-.15-.01c-.5 0-.89.15-1.17.46-.28.31-.42.74-.42 1.29v2.41h-.64v-4.73h.61v.93c.15-.33.37-.57.67-.73zm7.76.22c.33.31.49.77.49 1.37v2.93h-.61v-.74c-.14.25-.36.44-.63.58-.28.14-.61.21-.99.21-.53 0-.95-.13-1.26-.38s-.47-.58-.47-1c0-.4.15-.73.44-.97s.75-.37 1.39-.37h1.5v-.29c0-.41-.11-.72-.34-.93s-.56-.32-1-.32c-.3 0-.59.05-.86.15-.28.1-.51.24-.71.41l-.29-.48c.24-.2.53-.36.86-.47s.69-.16 1.06-.16c.62 0 1.09.15 1.42.46zm-.72 3.6c.26-.17.45-.4.58-.72v-.77h-1.49c-.81 0-1.21.28-1.21.85 0 .28.1.49.31.65s.5.24.88.24c.37 0 .67-.08.93-.25zm6.78-3.55c.35.35.53.85.53 1.51v2.75h-.64v-2.68c0-.49-.12-.87-.37-1.12s-.6-.39-1.05-.39c-.51 0-.91.15-1.21.46s-.45.72-.45 1.25v2.48h-.64v-4.73h.61v.87c.17-.29.42-.51.72-.67.31-.16.67-.24 1.08-.24.6 0 1.07.17 1.42.51zm6.6-2.42v6.68h-.61v-.94c-.19.32-.45.56-.76.73-.32.17-.67.25-1.07.25-.44 0-.85-.1-1.21-.31-.36-.2-.64-.49-.85-.86-.2-.37-.31-.78-.31-1.25s.1-.88.31-1.25c.2-.37.49-.65.85-.85.36-.2.76-.3 1.21-.3.38 0 .73.08 1.04.24.31.16.56.39.76.7v-2.84h.64zm-1.48 5.92c.27-.15.48-.37.63-.65.15-.28.23-.6.23-.96s-.08-.68-.23-.96c-.15-.28-.36-.5-.63-.65s-.57-.23-.9-.23c-.34 0-.64.08-.9.23-.27.15-.48.37-.63.65-.15.28-.23.6-.23.96s.08.68.23.96c.15.28.36.5.63.65.27.15.57.23.9.23.33 0 .63-.07.9-.23zm-48.91 8.02c.32.16.57.38.75.66.18.29.27.62.27 1s-.09.72-.28 1.02-.44.52-.77.68-.69.24-1.1.24c-.83 0-1.47-.27-1.92-.82-.44-.55-.67-1.32-.67-2.33 0-.7.12-1.3.36-1.78.24-.49.58-.85 1.01-1.1s.94-.37 1.51-.37c.62 0 1.12.11 1.49.34l-.26.52c-.3-.2-.71-.3-1.22-.3-.7 0-1.24.22-1.64.66-.4.44-.59 1.08-.59 1.92 0 .15.01.32.03.51.16-.34.41-.61.75-.8.34-.19.73-.28 1.18-.28.42-.01.78.07 1.1.23zm-.04 2.67c.28-.25.43-.58.43-1s-.14-.74-.43-.99-.67-.37-1.16-.37c-.32 0-.6.06-.84.18s-.43.29-.57.5-.21.44-.21.7c0 .24.06.46.19.67.13.2.32.37.57.5s.55.19.9.19c.46-.01.83-.13 1.12-.38zm1.93-1.85h2.36v.56h-2.36v-.56zM37 71.83l-2.37 5.3c-.19.44-.41.76-.67.94-.25.19-.56.28-.91.28-.23 0-.44-.04-.64-.11s-.37-.18-.51-.32l.3-.48c.24.24.53.36.86.36.22 0 .4-.06.55-.18.15-.12.3-.32.43-.61l.21-.46-2.12-4.73h.67l1.78 4.02 1.78-4.02H37zm4.89 2.57h-3.96c.04.49.22.89.57 1.19.34.3.77.45 1.3.45.29 0 .56-.05.81-.16.25-.1.46-.26.64-.46l.36.41c-.21.25-.47.44-.79.58-.31.13-.66.2-1.04.2-.49 0-.92-.1-1.29-.31s-.67-.49-.88-.86-.31-.78-.31-1.24.1-.88.3-1.24c.2-.37.48-.65.83-.85s.75-.31 1.18-.31.83.1 1.18.31c.35.2.62.49.82.85.2.36.3.78.3 1.25l-.02.19zm-3.44-1.62c-.31.29-.48.67-.53 1.14h3.36c-.04-.47-.22-.85-.53-1.14s-.69-.44-1.16-.44c-.45.01-.83.15-1.14.44zm7.69-.52c.33.31.49.77.49 1.37v2.93h-.61v-.74c-.14.25-.36.44-.63.58-.28.14-.61.21-.99.21-.53 0-.95-.13-1.26-.38s-.47-.58-.47-1c0-.4.15-.73.44-.97s.75-.37 1.39-.37H46v-.29c0-.41-.11-.72-.34-.93s-.56-.32-1-.32c-.3 0-.59.05-.86.15-.28.1-.51.24-.71.41l-.29-.48c.24-.2.53-.36.86-.47s.69-.17 1.06-.17c.62.01 1.09.16 1.42.47zm-.72 3.6c.26-.17.45-.4.58-.72v-.77h-1.49c-.81 0-1.21.28-1.21.85 0 .28.1.49.31.65s.5.24.88.24c.36 0 .67-.09.93-.25zm4.24-3.82c.3-.16.66-.24 1.1-.24v.62l-.15-.01c-.5 0-.89.15-1.17.46-.28.31-.42.74-.42 1.29v2.41h-.64v-4.73h.61v.93c.15-.33.37-.57.67-.73zm4.85 4.4c-.35-.11-.63-.25-.82-.42l.29-.5c.2.16.45.28.75.38.3.1.61.15.94.15.43 0 .75-.07.96-.2.21-.13.31-.33.31-.57 0-.17-.06-.31-.17-.41-.11-.1-.26-.17-.43-.23-.17-.05-.41-.1-.69-.15-.38-.07-.69-.15-.93-.22-.23-.08-.43-.2-.6-.38s-.25-.43-.25-.75c0-.4.17-.72.5-.97s.79-.38 1.38-.38c.31 0 .61.04.92.12.31.08.56.19.76.32l-.28.51c-.39-.27-.85-.4-1.4-.4-.41 0-.72.07-.92.22-.21.14-.31.33-.31.57 0 .18.06.32.18.43.12.11.26.19.44.24.17.05.41.1.72.16.38.07.68.14.91.22.23.07.42.19.58.37.16.17.24.41.24.72 0 .41-.17.74-.52.99-.35.24-.82.36-1.44.36a3.7 3.7 0 01-1.12-.18zm6.72-.16c-.12.11-.27.19-.45.25s-.36.08-.55.08c-.44 0-.79-.12-1.03-.36s-.36-.58-.36-1.02v-2.86H58v-.54h.85V70.8h.64v1.03h1.44v.54h-1.44v2.83c0 .28.07.5.21.64.14.15.34.22.61.22.13 0 .26-.02.38-.06s.23-.1.32-.18l.22.46zm5.43-4.45v4.73h-.61v-.86c-.17.29-.4.51-.69.67s-.63.24-1.01.24c-.62 0-1.11-.17-1.46-.52-.36-.34-.54-.85-.54-1.52v-2.75h.64v2.68c0 .5.12.88.37 1.13s.6.39 1.05.39c.5 0 .89-.15 1.18-.45s.43-.72.43-1.26v-2.48h.64zm6.11-1.94v6.68h-.61v-.94c-.19.32-.45.56-.76.73-.32.17-.67.25-1.07.25-.44 0-.85-.1-1.21-.31-.36-.2-.64-.49-.85-.86-.2-.37-.31-.78-.31-1.25s.1-.88.31-1.25c.2-.37.49-.65.85-.85.36-.2.76-.3 1.21-.3.38 0 .73.08 1.04.24.31.16.56.39.76.7v-2.84h.64zm-1.49 5.92c.27-.15.48-.37.63-.65.15-.28.23-.6.23-.96s-.08-.68-.23-.96c-.15-.28-.36-.5-.63-.65s-.57-.23-.9-.23c-.34 0-.64.08-.9.23-.27.15-.48.37-.63.65-.15.28-.23.6-.23.96s.08.68.23.96c.15.28.36.5.63.65.27.15.57.23.9.23.34 0 .64-.07.9-.23zm3.27-5.15a.438.438 0 01-.13-.32.445.445 0 01.46-.45c.13 0 .24.04.33.13s.13.19.13.31c0 .13-.04.24-.13.33s-.2.14-.33.14-.24-.05-.33-.14zm0 1.17h.64v4.73h-.64v-4.73zm6.55 2.57h-3.96c.04.49.22.89.57 1.19.34.3.77.45 1.3.45.29 0 .56-.05.81-.16.25-.1.46-.26.64-.46l.36.41c-.21.25-.47.44-.79.58-.32.13-.66.2-1.04.2-.49 0-.92-.1-1.29-.31s-.67-.49-.88-.86-.31-.78-.31-1.24.1-.88.3-1.24c.2-.37.48-.65.83-.85.35-.2.75-.31 1.18-.31.44 0 .83.1 1.18.31.35.2.62.49.82.85s.3.78.3 1.25l-.02.19zm-3.44-1.62c-.31.29-.48.67-.53 1.14h3.36c-.04-.47-.22-.85-.53-1.14-.31-.29-.69-.44-1.16-.44-.44.01-.83.15-1.14.44zm4.92 3.66c-.35-.11-.62-.25-.82-.42l.29-.5c.2.16.45.28.75.38.3.1.61.15.94.15.43 0 .75-.07.96-.2.21-.13.31-.33.31-.57 0-.17-.06-.31-.17-.41-.11-.1-.26-.17-.43-.23-.17-.05-.41-.1-.69-.15-.38-.07-.69-.15-.93-.22-.23-.08-.43-.2-.6-.38s-.25-.43-.25-.75c0-.4.17-.72.5-.97s.79-.38 1.38-.38c.31 0 .61.04.92.12s.56.19.76.32l-.28.51c-.39-.27-.85-.4-1.39-.4-.41 0-.72.07-.92.22-.21.14-.31.33-.31.57 0 .18.06.32.18.43.12.11.26.19.44.24s.41.1.72.16c.38.07.68.14.91.22.23.07.42.19.58.37.16.17.24.41.24.72 0 .41-.17.74-.52.99s-.82.36-1.44.36c-.41-.01-.78-.06-1.13-.18z"/></g></svg>