<svg xmlns="http://www.w3.org/2000/svg" viewBox="0 0 139.92 44.88"><path d="M136.55 44.88H3.37C1.51 44.88 0 43.37 0 41.51V3.37C0 1.51 1.51 0 3.37 0h133.18c1.86 0 3.37 1.51 3.37 3.37v38.14c0 1.86-1.51 3.37-3.37 3.37z" fill="#d75d90"/><path d="M27.46 12.12h2.43v10.5h-2.43v-10.5zm14.55 7.63c0 1.81-1.44 2.86-4.2 2.86h-5.43v-10.5h5.13c2.62 0 3.98 1.09 3.98 2.73 0 1.05-.54 1.86-1.4 2.31 1.17.38 1.92 1.28 1.92 2.6zm-7.21-5.8v2.47h2.42c1.19 0 1.83-.42 1.83-1.24 0-.83-.65-1.23-1.83-1.23H34.8zm4.77 5.55c0-.88-.67-1.3-1.94-1.3H34.8v2.59h2.83c1.26 0 1.94-.39 1.94-1.29zm8.53-7.38h4.77c3.44 0 5.79 2.07 5.79 5.25s-2.35 5.25-5.79 5.25H48.1v-10.5zm4.65 8.5c2.08 0 3.45-1.24 3.45-3.25s-1.37-3.25-3.45-3.25h-2.22v6.51h2.22zm7.29-8.5c0-.73.58-1.31 1.46-1.31.87 0 1.46.54 1.46 1.26 0 .78-.59 1.35-1.46 1.35-.88 0-1.46-.56-1.46-1.3zm.28 2.43h2.34v8.07h-2.34v-8.07zm13.31 4.04c0 2.53-1.75 4.15-4.02 4.15-1 0-1.83-.31-2.43-.98v3.76h-2.34V14.55h2.23v.93c.58-.71 1.46-1.05 2.53-1.05 2.27 0 4.03 1.62 4.03 4.16zm-2.37 0c0-1.4-.88-2.23-2.05-2.23s-2.06.84-2.06 2.23.89 2.23 2.06 2.23 2.05-.84 2.05-2.23zm3.93-7.1h2.34v11.13h-2.34V11.49zm3.91 7.1c0-2.43 1.87-4.15 4.44-4.15 2.56 0 4.42 1.72 4.42 4.15 0 2.43-1.86 4.15-4.42 4.15-2.56 0-4.44-1.73-4.44-4.15zm6.5 0c0-1.4-.88-2.23-2.05-2.23s-2.07.84-2.07 2.23.9 2.23 2.07 2.23 2.05-.84 2.05-2.23zm17.56-.59v4.62h-2.34v-4.26c0-1.31-.58-1.9-1.53-1.9-1.05 0-1.79.67-1.79 2.11v4.05h-2.34v-4.26c0-1.31-.55-1.9-1.53-1.9-1.03 0-1.77.67-1.77 2.11v4.05h-2.34v-8.07h2.23v.93c.6-.69 1.5-1.05 2.54-1.05 1.12 0 2.08.43 2.66 1.32.64-.83 1.69-1.32 2.91-1.32 1.92 0 3.3 1.11 3.3 3.57zm9.24.01v4.6h-2.19v-1c-.43.73-1.27 1.12-2.46 1.12-1.89 0-3.02-1.05-3.02-2.44 0-1.43 1-2.42 3.46-2.42h1.86c0-1-.6-1.59-1.86-1.59-.85 0-1.74.28-2.32.75l-.84-1.64c.89-.63 2.19-.97 3.48-.97 2.47.01 3.89 1.15 3.89 3.59zm-2.34 2.06v-.83h-1.61c-1.09 0-1.44.41-1.44.95 0 .58.5.97 1.32.97.79 0 1.46-.36 1.73-1.09zM27.91 35.16l-.01-5.39-2.64 4.56h-.23l-2.64-4.54v5.37h-.45v-6.3h.39l2.82 4.87 2.82-4.87h.38l.01 6.3h-.45zm6.47-2.24h-4.04c.04 1.12.86 1.87 1.99 1.87.59 0 1.14-.22 1.5-.66l.26.3c-.41.5-1.06.77-1.77.77-1.42 0-2.42-.99-2.42-2.39s.96-2.39 2.25-2.39 2.24.97 2.24 2.37c0 .04-.01.09-.01.13zm-4.03-.35h3.6c-.06-1.02-.8-1.75-1.8-1.75s-1.73.72-1.8 1.75zm8.57 2.2v.39h-3.74v-.31l3.1-4.01h-3.05v-.39h3.64v.31l-3.11 4.01h3.16zm1.2-5.81c0-.2.16-.37.37-.37s.37.16.37.36c0 .21-.16.37-.37.37s-.37-.16-.37-.36zm.15 1.5h.45v4.7h-.45v-4.7zm6.55 1.96v2.75h-.45v-2.71c0-1.06-.57-1.62-1.52-1.62-1.11 0-1.78.71-1.78 1.83v2.5h-.45v-4.7h.43v1.02c.32-.66.97-1.05 1.86-1.05 1.15-.01 1.91.66 1.91 1.98zm5.25-.24v2.98h-.43v-.84c-.3.54-.87.87-1.69.87-1.05 0-1.69-.54-1.69-1.34 0-.71.45-1.31 1.76-1.31h1.61v-.38c0-.87-.48-1.34-1.4-1.34-.65 0-1.23.24-1.62.59l-.23-.32c.47-.41 1.15-.67 1.88-.67 1.16.01 1.81.6 1.81 1.76zm-.45 1.6v-.88h-1.6c-.97 0-1.31.4-1.31.95 0 .61.48.99 1.31.99.78-.01 1.33-.39 1.6-1.06zm-1.41-4.08h-.49l1.25-1.06h.65l-1.41 1.06zm5.93.73v.44c-.04 0-.07-.01-.11-.01-1.04 0-1.67.69-1.67 1.85v2.45h-.45v-4.7h.43v1.03c.3-.69.92-1.06 1.8-1.06zm.69 2.38c0-1.4 1-2.39 2.35-2.39s2.35.99 2.35 2.39-1 2.39-2.35 2.39-2.35-.99-2.35-2.39zm4.24 0c0-1.18-.81-1.98-1.89-1.98s-1.89.8-1.89 1.98.81 1.98 1.89 1.98 1.89-.8 1.89-1.98zm6.03-4.33v6.68h-.44v-1.11c-.37.73-1.08 1.14-1.93 1.14-1.32 0-2.32-.98-2.32-2.39 0-1.41 1-2.39 2.32-2.39.84 0 1.54.41 1.92 1.13v-3.07h.45zm-.45 4.33c0-1.18-.81-1.98-1.89-1.98s-1.89.8-1.89 1.98.81 1.98 1.89 1.98 1.89-.8 1.89-1.98zm6.55-.39v2.75h-.45v-2.71c0-1.06-.57-1.62-1.52-1.62-1.11 0-1.78.71-1.78 1.83v2.5H69v-4.7h.43v1.02c.31-.66.97-1.05 1.86-1.05 1.14-.01 1.91.66 1.91 1.98zm2.82-3.79h.65l-1.41 1.06h-.49l1.25-1.06zm-.97 1.83h.45v4.7h-.45v-4.7zm12.39 1.96v2.75h-.45v-2.71c0-1.06-.55-1.62-1.47-1.62-1.06 0-1.72.71-1.72 1.83v2.5h-.45v-2.71c0-1.06-.55-1.62-1.47-1.62-1.06 0-1.72.71-1.72 1.83v2.5h-.45v-4.7h.43v1.01c.31-.66.95-1.04 1.8-1.04.85 0 1.47.39 1.72 1.13.31-.68.99-1.13 1.9-1.13 1.14-.01 1.88.66 1.88 1.98zm5.24-.24v2.98h-.43v-.84c-.3.54-.87.87-1.69.87-1.05 0-1.69-.54-1.69-1.34 0-.71.45-1.31 1.76-1.31h1.61v-.38c0-.87-.48-1.34-1.4-1.34-.65 0-1.23.24-1.62.59l-.22-.32c.47-.41 1.15-.67 1.88-.67 1.16.01 1.8.6 1.8 1.76zm-.45 1.6v-.88h-1.6c-.97 0-1.31.4-1.31.95 0 .61.48.99 1.31.99.79-.01 1.33-.39 1.6-1.06zm4.64 1.08c-.23.23-.61.33-.96.33-.83 0-1.28-.49-1.28-1.28v-3.07h-.86v-.39h.86v-1.03h.45v1.03h1.5v.39h-1.5v3.02c0 .6.3.94.87.94.28 0 .54-.09.73-.26l.19.32zm5.36-4.4v4.7h-.43v-1.01c-.31.66-.95 1.04-1.77 1.04-1.2 0-1.96-.68-1.96-1.99v-2.75h.45v2.71c0 1.06.57 1.62 1.55 1.62 1.06 0 1.72-.71 1.72-1.83v-2.5h.44zm4.13-.03v.44c-.04 0-.07-.01-.11-.01-1.04 0-1.67.69-1.67 1.85v2.45h-.45v-4.7h.43v1.03c.3-.69.92-1.06 1.8-1.06zm1.1-1.47c0-.2.16-.37.37-.37s.37.16.37.36c0 .21-.16.37-.37.37s-.37-.16-.37-.36zm.15 1.5h.45v4.7h-.45v-4.7zm4.68 4.4c-.23.23-.61.33-.96.33-.83 0-1.28-.49-1.28-1.28v-3.07h-.86v-.39h.86v-1.03h.45v1.03h1.5v.39h-1.5v3.02c0 .6.3.94.87.94.28 0 .54-.09.73-.26l.19.32zm4.64-2.68v2.98h-.43v-.84c-.3.54-.87.87-1.69.87-1.05 0-1.69-.54-1.69-1.34 0-.71.45-1.31 1.76-1.31h1.61v-.38c0-.87-.48-1.34-1.4-1.34-.65 0-1.23.24-1.62.59l-.22-.32c.47-.41 1.15-.67 1.88-.67 1.15.01 1.8.6 1.8 1.76zm-.45 1.6v-.88h-1.6c-.97 0-1.31.4-1.31.95 0 .61.48.99 1.31.99.78-.01 1.33-.39 1.6-1.06z" fill="#fff"/></svg>